<svg width="42" height="42" viewBox="0 0 42 42" fill="none" xmlns="http://www.w3.org/2000/svg">
<circle cx="21" cy="21" r="21" fill="white" fill-opacity="0.15"/>
<path fill-rule="evenodd" clip-rule="evenodd" d="M15.2161 13.4496C14.7279 12.9615 13.9365 12.9615 13.4483 13.4496C12.9602 13.9378 12.9602 14.7292 13.4483 15.2174L19.2311 21.0001L13.4481 26.783C12.96 27.2712 12.96 28.0626 13.4481 28.5508C13.9363 29.0389 14.7278 29.0389 15.2159 28.5508L20.9988 22.7679L26.7816 28.5507C27.2698 29.0389 28.0613 29.0389 28.5494 28.5507C29.0376 28.0626 29.0376 27.2711 28.5494 26.7829L22.7666 21.0001L28.5492 15.2175C29.0374 14.7293 29.0374 13.9378 28.5492 13.4497C28.0611 12.9615 27.2696 12.9615 26.7815 13.4497L20.9988 19.2324L15.2161 13.4496Z" fill="white" fill-opacity="0.9"/>
</svg>
