<svg width="42" height="42" viewBox="0 0 42 42" fill="none">
<path fill-rule="evenodd" clip-rule="evenodd" d="M26.3918 32.4717C26.6038 32.4717 26.8191 32.4161 27.0156 32.2991C30.5379 30.2064 32.7253 26.3561 32.7253 22.2511C32.7253 15.786 27.4651 10.5258 21 10.5258C14.5349 10.5258 9.27466 15.786 9.27466 22.2511C9.27466 26.3561 11.4622 30.2064 14.9844 32.2991C15.5689 32.6477 16.3191 32.4529 16.6626 31.8718C17.0078 31.2908 16.8181 30.5388 16.2354 30.1936C13.4531 28.5393 11.7253 25.4965 11.7253 22.2511C11.7253 17.137 15.885 12.9765 21 12.9765C26.115 12.9765 30.2747 17.137 30.2747 22.2511C30.2747 25.4965 28.5469 28.5393 25.7646 30.1936C25.1819 30.5388 24.9922 31.2908 25.3374 31.8718C25.5664 32.2572 25.9731 32.4717 26.3918 32.4717ZM2.27466 22.2511C2.27466 11.9263 10.6743 3.52577 21 3.52577C31.3257 3.52577 39.7253 11.9263 39.7253 22.2511C39.7253 28.794 36.2373 34.9438 30.6233 38.2994C30.4267 38.4173 30.2097 38.4737 29.9961 38.4737C29.5791 38.4737 29.1724 38.2609 28.9434 37.8772C28.5964 37.2962 28.7844 36.5442 29.3655 36.1973C34.2446 33.2801 37.2747 27.9369 37.2747 22.2511C37.2747 13.2773 29.9739 5.97648 21 5.97648C12.0261 5.97648 4.72534 13.2773 4.72534 22.2511C4.72534 27.9369 7.75536 33.2801 12.6345 36.1973C13.2156 36.5442 13.4036 37.2962 13.0566 37.8772C12.7097 38.4574 11.956 38.6488 11.3767 38.2994C5.76269 34.9438 2.27466 28.794 2.27466 22.2511ZM21 18.752C19.0696 18.752 17.5 20.3222 17.5 22.252C17.5 24.1817 19.0696 25.752 21 25.752C22.9304 25.752 24.5 24.1817 24.5 22.252C24.5 20.3222 22.9304 18.752 21 18.752Z" fill="#00A1FF"/>
</svg>
