<svg width="49" height="48" viewBox="0 0 49 48" fill="none" xmlns="http://www.w3.org/2000/svg">
<path d="M8.80469 4.00033C8.80469 3.26395 9.40164 2.66699 10.138 2.66699H28.2524C28.606 2.66699 28.9452 2.80747 29.1952 3.05752L40.4142 14.2765C40.6642 14.5265 40.8047 14.8657 40.8047 15.2193V44.0003C40.8047 44.7367 40.2077 45.3337 39.4714 45.3337H10.138C9.40164 45.3337 8.80469 44.7367 8.80469 44.0003V4.00033Z" fill="#00A1FF"/>
<path d="M8.80469 4.00033C8.80469 3.26395 9.40164 2.66699 10.138 2.66699H28.2524C28.606 2.66699 28.9452 2.80747 29.1952 3.05752L40.4142 14.2765C40.6642 14.5265 40.8047 14.8657 40.8047 15.2193V44.0003C40.8047 44.7367 40.2077 45.3337 39.4714 45.3337H10.138C9.40164 45.3337 8.80469 44.7367 8.80469 44.0003V4.00033Z" fill="url(#paint0_linear_501_91437)" fill-opacity="0.3" style="mix-blend-mode:overlay"/>
<g opacity="0.3" filter="url(#filter0_f_501_91437)">
<path d="M27.6451 14.3626L28.806 3.33398L40.1393 14.6673L29.1107 15.8282C28.2672 15.917 27.5563 15.2061 27.6451 14.3626Z" fill="black"/>
</g>
<path d="M28.8047 13.3337V2.66699L40.8047 14.667H30.138C29.4016 14.667 28.8047 14.07 28.8047 13.3337Z" fill="url(#paint1_linear_501_91437)"/>
<path d="M32.5732 24.7783C32.7571 24.7785 32.9061 24.9275 32.9062 25.1113V26C32.9063 26.184 32.7573 26.3339 32.5732 26.334L17.2393 26.335C17.0554 26.3347 16.9063 26.1859 16.9062 26.002V25.1133C16.9063 24.9293 17.0553 24.7805 17.2393 24.7803L32.5732 24.7783ZM32.5732 20.5566C32.7571 20.5568 32.9061 20.7058 32.9062 20.8896V21.7783C32.9063 21.9624 32.7573 22.1122 32.5732 22.1123L17.2393 22.1133C17.0554 22.113 16.9063 21.9642 16.9062 21.7803V20.8916C16.9063 20.7077 17.0553 20.5588 17.2393 20.5586L32.5732 20.5566ZM32.5732 16.3359C32.7571 16.3361 32.9061 16.4851 32.9062 16.6689V17.5576C32.9063 17.7417 32.7573 17.8915 32.5732 17.8916L17.2393 17.8926C17.0554 17.8923 16.9063 17.7435 16.9062 17.5596V16.6709C16.9063 16.487 17.0553 16.3381 17.2393 16.3379L32.5732 16.3359Z" fill="url(#paint2_linear_501_91437)"/>
<path d="M19.8893 35.1821C19.4413 35.1822 19.0555 35.0806 18.7319 34.8774C18.4125 34.67 18.1698 34.3859 18.0038 34.025C17.8379 33.6641 17.7549 33.2576 17.7548 32.8055C17.7548 32.3741 17.8418 31.982 18.016 31.6294C18.1943 31.2768 18.4453 30.9989 18.7688 30.7956C19.0923 30.5923 19.4657 30.4906 19.8888 30.4906C20.316 30.4905 20.6915 30.5921 21.015 30.7953C21.3428 30.9986 21.5938 31.2765 21.768 31.629C21.9464 31.9816 22.0357 32.3736 22.0357 32.805C22.0357 33.2571 21.9508 33.6637 21.7807 34.0246C21.6148 34.3855 21.3701 34.6697 21.0466 34.8771C20.7231 35.0804 20.3373 35.1821 19.8893 35.1821ZM19.8892 34.2923C20.1215 34.2923 20.3227 34.2301 20.4927 34.1056C20.6628 33.977 20.7914 33.8007 20.8784 33.5767C20.9697 33.3527 21.0153 33.0976 21.0153 32.8113C21.0152 32.5376 20.9696 32.2928 20.8783 32.0771C20.7912 31.8614 20.6625 31.6914 20.4925 31.5669C20.3224 31.4425 20.1212 31.3803 19.8889 31.3803C19.6607 31.3804 19.4616 31.4426 19.2916 31.5671C19.1257 31.6915 18.9971 31.8616 18.9058 32.0773C18.8146 32.2931 18.769 32.5378 18.769 32.8116C18.7691 33.0978 18.8147 33.3529 18.906 33.5769C18.9973 33.8009 19.1259 33.9772 19.2918 34.1057C19.4619 34.2302 19.661 34.2924 19.8892 34.2923ZM23.0846 35.0884L23.0841 30.5773L26.1828 30.577L26.1829 31.4108L24.0486 31.411L24.0488 32.5497L25.9839 32.5495L25.984 33.3646L24.0488 33.3648L24.049 35.0883L23.0846 35.0884ZM27.2664 35.088L27.2659 30.5769L28.9521 30.5767C29.4208 30.5766 29.8253 30.6616 30.1654 30.8317C30.5098 31.0017 30.7732 31.2506 30.9558 31.5782C31.1383 31.9059 31.2296 32.3021 31.2297 32.7667C31.2297 33.5507 31.0183 34.1335 30.5952 34.5152C30.1763 34.8968 29.5997 35.0877 28.8655 35.0878L27.2664 35.088ZM28.7658 34.254C29.2553 34.254 29.6183 34.1399 29.8547 33.9117C30.0952 33.6835 30.2155 33.3081 30.2154 32.7854C30.2154 32.3706 30.0971 32.0367 29.8607 31.7837C29.6283 31.5307 29.2923 31.4042 28.8526 31.4043L28.2366 31.4043L28.2369 34.2541L28.7658 34.254Z" fill="white"/>
<circle opacity="0.5" cx="16.1354" cy="35.3337" r="0.666667" fill="white"/>
<defs>
<filter id="filter0_f_501_91437" x="24.9701" y="0.667318" width="17.8372" height="17.8353" filterUnits="userSpaceOnUse" color-interpolation-filters="sRGB">
<feFlood flood-opacity="0" result="BackgroundImageFix"/>
<feBlend mode="normal" in="SourceGraphic" in2="BackgroundImageFix" result="shape"/>
<feGaussianBlur stdDeviation="1.33333" result="effect1_foregroundBlur_501_91437"/>
</filter>
<linearGradient id="paint0_linear_501_91437" x1="36.138" y1="9.00032" x2="20.8047" y2="30.3337" gradientUnits="userSpaceOnUse">
<stop/>
<stop offset="1" stop-opacity="0"/>
</linearGradient>
<linearGradient id="paint1_linear_501_91437" x1="29.4714" y1="14.667" x2="35.8047" y2="9.33366" gradientUnits="userSpaceOnUse">
<stop stop-color="#FDFDFD"/>
<stop offset="1" stop-color="#E4E4E4"/>
</linearGradient>
<linearGradient id="paint2_linear_501_91437" x1="23.6274" y1="25.4953" x2="28.0983" y2="10.0741" gradientUnits="userSpaceOnUse">
<stop stop-color="white"/>
<stop offset="1" stop-color="white" stop-opacity="0.8"/>
</linearGradient>
</defs>
</svg>
