<svg width="49" height="48" viewBox="0 0 49 48" fill="none" xmlns="http://www.w3.org/2000/svg">
<path d="M8.60156 4.00033C8.60156 3.26395 9.19852 2.66699 9.9349 2.66699H28.0493C28.4029 2.66699 28.742 2.80747 28.9921 3.05752L40.211 14.2765C40.4611 14.5265 40.6016 14.8657 40.6016 15.2193V44.0003C40.6016 44.7367 40.0046 45.3337 39.2682 45.3337H9.93489C9.19851 45.3337 8.60156 44.7367 8.60156 44.0003V4.00033Z" fill="#F2AD42"/>
<path d="M8.60156 4.00033C8.60156 3.26395 9.19852 2.66699 9.9349 2.66699H28.0493C28.4029 2.66699 28.742 2.80747 28.9921 3.05752L40.211 14.2765C40.4611 14.5265 40.6016 14.8657 40.6016 15.2193V44.0003C40.6016 44.7367 40.0046 45.3337 39.2682 45.3337H9.93489C9.19851 45.3337 8.60156 44.7367 8.60156 44.0003V4.00033Z" fill="url(#paint0_linear_501_92253)" fill-opacity="0.3" style="mix-blend-mode:overlay"/>
<g opacity="0.3" filter="url(#filter0_f_501_92253)">
<path d="M27.3725 14.3421L28.5208 4.0498L31.4648 10.0221C31.5823 10.2607 31.7686 10.4586 31.9995 10.5905L39.1377 14.6667L28.8454 15.8151C27.9958 15.9099 27.2777 15.1918 27.3725 14.3421Z" fill="black"/>
</g>
<path d="M28.6016 13.3337V2.66699L40.6016 14.667H29.9349C29.1985 14.667 28.6016 14.07 28.6016 13.3337Z" fill="url(#paint1_linear_501_92253)"/>
<path d="M31.2109 32.2599C31.4948 32.2599 31.7253 32.4898 31.7256 32.7736C31.7256 33.0576 31.4949 33.2882 31.2109 33.2882H17.8428C17.5588 33.2882 17.3281 33.0576 17.3281 32.7736C17.3284 32.4898 17.559 32.2599 17.8428 32.2599H31.2109ZM18.291 30.8996C18.3256 30.8541 18.3921 30.8505 18.4326 30.8908L18.6553 31.1134C18.6955 31.1539 18.692 31.2205 18.6465 31.255C18.4848 31.378 18.1365 31.62 18.0312 31.5148C17.926 31.4096 18.1681 31.0613 18.291 30.8996ZM22.168 26.3127C22.2022 26.3265 22.2352 26.3594 22.2969 26.4211L23.1279 27.2521C23.1912 27.3154 23.2216 27.3467 23.2354 27.381C23.2473 27.4102 23.2493 27.4427 23.2441 27.4718C23.2355 27.5043 23.2101 27.5303 23.1572 27.5832L20.8545 29.8859C20.4304 30.3101 19.6863 30.8168 19.1094 31.0812C19.0614 31.1018 19.0389 31.1137 19.0098 31.1154C18.9859 31.1154 18.9587 31.1087 18.9365 31.0968C18.909 31.0831 18.8862 31.0602 18.8398 31.0138L18.5342 30.7082C18.4881 30.6621 18.4659 30.6398 18.4521 30.6125C18.4401 30.5901 18.4326 30.5623 18.4326 30.5382C18.4327 30.5109 18.4438 30.4866 18.4678 30.4386C18.7322 29.8618 19.2381 29.1186 19.6621 28.6945L21.9648 26.3918C22.0181 26.3385 22.0445 26.3125 22.0771 26.3039C22.1062 26.2988 22.1389 26.3007 22.168 26.3127ZM22.4287 25.631C25.9591 22.1124 28.867 19.4133 29.5029 20.048C30.1385 20.6835 27.439 23.5915 23.9199 27.1222C23.8441 27.1983 23.7205 27.1991 23.6445 27.1232L22.4277 25.9064C22.3521 25.8305 22.3528 25.7067 22.4287 25.631Z" fill="url(#paint2_linear_501_92253)"/>
<defs>
<filter id="filter0_f_501_92253" x="24.6966" y="1.38314" width="17.1068" height="17.1068" filterUnits="userSpaceOnUse" color-interpolation-filters="sRGB">
<feFlood flood-opacity="0" result="BackgroundImageFix"/>
<feBlend mode="normal" in="SourceGraphic" in2="BackgroundImageFix" result="shape"/>
<feGaussianBlur stdDeviation="1.33333" result="effect1_foregroundBlur_501_92253"/>
</filter>
<linearGradient id="paint0_linear_501_92253" x1="35.9349" y1="9.00033" x2="20.6016" y2="30.3337" gradientUnits="userSpaceOnUse">
<stop/>
<stop offset="1" stop-opacity="0"/>
</linearGradient>
<linearGradient id="paint1_linear_501_92253" x1="29.2682" y1="14.667" x2="35.6016" y2="9.33366" gradientUnits="userSpaceOnUse">
<stop stop-color="#FDFDFD"/>
<stop offset="1" stop-color="#E4E4E4"/>
</linearGradient>
<linearGradient id="paint2_linear_501_92253" x1="23.3761" y1="32.1685" x2="31.4607" y2="13.3502" gradientUnits="userSpaceOnUse">
<stop stop-color="white"/>
<stop offset="1" stop-color="white" stop-opacity="0.8"/>
</linearGradient>
</defs>
</svg>
