<svg width="49" height="48" viewBox="0 0 49 48" fill="none" xmlns="http://www.w3.org/2000/svg">
<path d="M8.39844 4.00033C8.39844 3.26395 8.99539 2.66699 9.73177 2.66699H27.8462C28.1998 2.66699 28.5389 2.80747 28.789 3.05752L40.0079 14.2765C40.258 14.5265 40.3984 14.8657 40.3984 15.2193V44.0003C40.3984 44.7367 39.8015 45.3337 39.0651 45.3337H9.73177C8.99539 45.3337 8.39844 44.7367 8.39844 44.0003V4.00033Z" fill="#947458"/>
<path d="M8.39844 4.00033C8.39844 3.26395 8.99539 2.66699 9.73177 2.66699H27.8462C28.1998 2.66699 28.5389 2.80747 28.789 3.05752L40.0079 14.2765C40.258 14.5265 40.3984 14.8657 40.3984 15.2193V44.0003C40.3984 44.7367 39.8015 45.3337 39.0651 45.3337H9.73177C8.99539 45.3337 8.39844 44.7367 8.39844 44.0003V4.00033Z" fill="url(#paint0_linear_501_92358)" fill-opacity="0.3" style="mix-blend-mode:overlay"/>
<g opacity="0.3" filter="url(#filter0_f_501_92358)">
<path d="M27.1694 14.3421L28.3177 4.0498L31.2616 10.0221C31.3792 10.2607 31.5654 10.4586 31.7964 10.5905L38.9346 14.6667L28.6423 15.8151C27.7926 15.9099 27.0746 15.1918 27.1694 14.3421Z" fill="black"/>
</g>
<path d="M28.3984 13.3337V2.66699L40.3984 14.667H29.7318C28.9954 14.667 28.3984 14.07 28.3984 13.3337Z" fill="url(#paint1_linear_501_92358)"/>
<path d="M20.8689 36.0927C20.9578 35.4082 21.1488 34.7149 21.442 34.0126C21.7397 33.3104 22.0886 32.7103 22.4885 32.2125L22.4885 32.1659L20.1152 32.1661L20.1151 31.2594L23.7351 31.2591L23.7352 32.0324C23.2952 32.4813 22.9108 33.0725 22.582 33.8058C22.2532 34.5348 22.0466 35.297 21.9623 36.0926L20.8689 36.0927ZM24.6227 36.0923L24.6227 35.3056L27.109 32.192L27.109 32.1654L24.709 32.1656L24.7089 31.2589L28.4422 31.2585L28.4423 32.0785L25.9826 35.1588L25.9826 35.1855L28.4893 35.1852L28.4894 36.0919L24.6227 36.0923Z" fill="white"/>
<path opacity="0.95" d="M26.958 22.7793C27.3561 22.7793 27.5549 22.78 27.707 22.8574C27.8408 22.9256 27.9504 23.0342 28.0186 23.168C28.0959 23.32 28.0957 23.5192 28.0957 23.917V24.1514C28.0958 24.5496 28.096 24.7492 28.0186 24.9014C27.9504 25.035 27.8416 25.1438 27.708 25.2119C27.5559 25.2894 27.3563 25.289 26.958 25.2891L21.4111 25.29C21.0134 25.2901 20.8142 25.2902 20.6621 25.2129C20.5283 25.1447 20.4198 25.0352 20.3516 24.9014C20.2741 24.7493 20.2735 24.5504 20.2734 24.1523V23.918C20.2734 23.5202 20.2734 23.321 20.3506 23.1689C20.4187 23.0351 20.5283 22.9256 20.6621 22.8574C20.8142 22.7801 21.0133 22.7803 21.4111 22.7803L26.958 22.7793ZM26.958 18.7021C27.3561 18.7021 27.5549 18.7029 27.707 18.7803C27.8408 18.8484 27.9504 18.957 28.0186 19.0908C28.0959 19.2429 28.0957 19.442 28.0957 19.8398V20.0742C28.0958 20.4725 28.096 20.6721 28.0186 20.8242C27.9504 20.9578 27.8416 21.0666 27.708 21.1348C27.5559 21.2123 27.3563 21.2119 26.958 21.2119L21.4111 21.2129C21.0134 21.2129 20.8142 21.2131 20.6621 21.1357C20.5283 21.0676 20.4198 20.958 20.3516 20.8242C20.2741 20.6721 20.2735 20.4733 20.2734 20.0752V19.8408C20.2734 19.443 20.2734 19.2438 20.3506 19.0918C20.4187 18.958 20.5283 18.8485 20.6621 18.7803C20.8142 18.703 21.0133 18.7032 21.4111 18.7031L26.958 18.7021ZM26.958 14.624C27.3563 14.624 27.5559 14.6247 27.708 14.7021C27.8416 14.7703 27.9505 14.8791 28.0186 15.0127C28.0959 15.1647 28.0957 15.3639 28.0957 15.7617V15.9961C28.0957 16.394 28.0959 16.593 28.0186 16.7451C27.9504 16.8789 27.8418 16.9884 27.708 17.0566C27.5559 17.1342 27.3563 17.1337 26.958 17.1338L21.4121 17.1348C21.0139 17.1348 20.8142 17.1341 20.6621 17.0566C20.5284 16.9885 20.4197 16.8798 20.3516 16.7461C20.2741 16.594 20.2735 16.3951 20.2734 15.9971V15.7627C20.2734 15.3646 20.2742 15.1658 20.3516 15.0137C20.4197 14.8799 20.5283 14.7703 20.6621 14.7021C20.8141 14.6248 21.0133 14.625 21.4111 14.625L26.958 14.624Z" fill="url(#paint2_linear_501_92358)"/>
<circle opacity="0.5" cx="18.401" cy="35.3337" r="0.666667" fill="white"/>
<defs>
<filter id="filter0_f_501_92358" x="24.4935" y="1.38314" width="17.1068" height="17.1068" filterUnits="userSpaceOnUse" color-interpolation-filters="sRGB">
<feFlood flood-opacity="0" result="BackgroundImageFix"/>
<feBlend mode="normal" in="SourceGraphic" in2="BackgroundImageFix" result="shape"/>
<feGaussianBlur stdDeviation="1.33333" result="effect1_foregroundBlur_501_92358"/>
</filter>
<linearGradient id="paint0_linear_501_92358" x1="35.7318" y1="9.00033" x2="20.3984" y2="30.3337" gradientUnits="userSpaceOnUse">
<stop/>
<stop offset="1" stop-opacity="0"/>
</linearGradient>
<linearGradient id="paint1_linear_501_92358" x1="29.0651" y1="14.667" x2="35.3984" y2="9.33366" gradientUnits="userSpaceOnUse">
<stop stop-color="#FDFDFD"/>
<stop offset="1" stop-color="#E4E4E4"/>
</linearGradient>
<linearGradient id="paint2_linear_501_92358" x1="23.5594" y1="24.8362" x2="32.1343" y2="11.8668" gradientUnits="userSpaceOnUse">
<stop stop-color="white"/>
<stop offset="1" stop-color="white" stop-opacity="0.8"/>
</linearGradient>
</defs>
</svg>
