<svg width="49" height="48" viewBox="0 0 49 48" fill="none" xmlns="http://www.w3.org/2000/svg">
<path d="M8.60156 4.00033C8.60156 3.26395 9.19852 2.66699 9.9349 2.66699H28.0493C28.4029 2.66699 28.742 2.80747 28.9921 3.05752L40.211 14.2765C40.4611 14.5265 40.6016 14.8657 40.6016 15.2193V44.0003C40.6016 44.7367 40.0046 45.3337 39.2682 45.3337H9.9349C9.19852 45.3337 8.60156 44.7367 8.60156 44.0003V4.00033Z" fill="#484C50"/>
<path d="M8.60156 4.00033C8.60156 3.26395 9.19852 2.66699 9.9349 2.66699H28.0493C28.4029 2.66699 28.742 2.80747 28.9921 3.05752L40.211 14.2765C40.4611 14.5265 40.6016 14.8657 40.6016 15.2193V44.0003C40.6016 44.7367 40.0046 45.3337 39.2682 45.3337H9.9349C9.19852 45.3337 8.60156 44.7367 8.60156 44.0003V4.00033Z" fill="url(#paint0_linear_501_92001)" fill-opacity="0.3" style="mix-blend-mode:overlay"/>
<g opacity="0.3" filter="url(#filter0_f_501_92001)">
<path d="M27.2944 14.3421L28.4427 4.0498L31.3866 10.0221C31.5042 10.2607 31.6904 10.4586 31.9214 10.5905L39.0596 14.6667L28.7673 15.8151C27.9176 15.9099 27.1996 15.1918 27.2944 14.3421Z" fill="black"/>
</g>
<path d="M28.6016 13.3337V2.66699L40.6016 14.667H29.9349C29.1985 14.667 28.6016 14.07 28.6016 13.3337Z" fill="url(#paint1_linear_501_92001)"/>
<g opacity="0.95">
<path d="M24.2912 12.666C24.6142 12.666 24.9324 12.6898 25.2433 12.7354C25.5405 12.7789 25.7674 13.0004 25.8361 13.2764L25.9992 13.9307C26.0911 14.2992 26.3853 14.6222 26.7892 14.8564C27.1903 15.089 27.6107 15.1785 27.9777 15.0732L28.6261 14.8877C28.8991 14.8094 29.2044 14.8952 29.3908 15.1299C29.7846 15.6258 30.1078 16.1807 30.3449 16.7793C30.4553 17.0581 30.3771 17.3652 30.173 17.5625L29.6867 18.0322C29.4125 18.2972 29.2795 18.7099 29.2795 19.1748C29.2795 19.6397 29.4123 20.0525 29.6867 20.3174L30.173 20.7861C30.3772 20.9834 30.4552 21.2905 30.3449 21.5693C30.1078 22.1681 29.7847 22.7237 29.3908 23.2197C29.2044 23.4543 28.899 23.5402 28.6261 23.4619L27.9777 23.2754C27.6107 23.1702 27.1903 23.2597 26.7892 23.4922C26.3851 23.7265 26.091 24.0502 25.9992 24.4189L25.8361 25.0723C25.7674 25.3482 25.5405 25.5707 25.2433 25.6143C24.9325 25.6598 24.6142 25.6826 24.2912 25.6826C23.9681 25.6826 23.6499 25.6589 23.339 25.6133C23.0421 25.5695 22.815 25.3481 22.7463 25.0723L22.5832 24.4189C22.4913 24.0502 22.1974 23.7265 21.7931 23.4922C21.392 23.2597 20.9717 23.1701 20.6047 23.2754L19.9562 23.4619C19.6835 23.5399 19.3789 23.4541 19.1925 23.2197C18.7986 22.7237 18.4746 22.1682 18.2375 21.5693C18.1272 21.2905 18.2061 20.9834 18.4103 20.7861L18.8957 20.3174C19.1701 20.0525 19.3038 19.6397 19.3039 19.1748C19.3039 18.7098 19.1702 18.2972 18.8957 18.0322L18.4103 17.5625C18.2061 17.3652 18.1271 17.0582 18.2375 16.7793C18.4746 16.1805 18.7986 15.6259 19.1925 15.1299C19.3789 14.8953 19.6834 14.8096 19.9562 14.8877L20.6047 15.0732C20.9717 15.1786 21.392 15.089 21.7931 14.8564C22.1972 14.6222 22.4912 14.2993 22.5832 13.9307L22.7463 13.2764C22.815 13.0005 23.0421 12.7791 23.339 12.7354C23.6499 12.6898 23.9681 12.666 24.2912 12.666ZM24.2912 16.7412C22.9477 16.7415 21.8586 17.8312 21.8586 19.1748C21.8587 20.5182 22.9478 21.6072 24.2912 21.6074C25.6348 21.6074 26.7246 20.5184 26.7248 19.1748C26.7248 17.8311 25.6349 16.7412 24.2912 16.7412Z" fill="url(#paint2_linear_501_92001)"/>
<path d="M18.0675 36.0975L18.0669 30.942L21.6367 30.9416L21.6368 31.8945L19.1764 31.8947L19.1765 32.9543L21.4307 32.9541L21.4308 33.8927L19.1766 33.893L19.1767 35.1445L21.6372 35.1443L21.6373 36.0971L18.0675 36.0975ZM22.4967 36.0971L24.2386 33.4515L22.553 30.9415L23.8757 30.9413L24.9141 32.6479L25.9664 30.9411L27.2819 30.941L25.5826 33.4443L27.3465 36.0965L26.0238 36.0967L24.9072 34.3617L23.8123 36.0969L22.4967 36.0971ZM28.3967 36.0964L28.3961 30.9409L31.9659 30.9405L31.966 31.8934L29.5055 31.8936L29.5056 32.9532L31.7599 32.9529L31.76 33.8916L29.5057 33.8918L29.5059 35.1434L31.9663 35.1431L31.9664 36.096L28.3967 36.0964Z" fill="white"/>
<circle opacity="0.5" cx="15.2682" cy="35.3307" r="0.666667" fill="white"/>
</g>
<defs>
<filter id="filter0_f_501_92001" x="24.6185" y="1.38314" width="17.1068" height="17.1068" filterUnits="userSpaceOnUse" color-interpolation-filters="sRGB">
<feFlood flood-opacity="0" result="BackgroundImageFix"/>
<feBlend mode="normal" in="SourceGraphic" in2="BackgroundImageFix" result="shape"/>
<feGaussianBlur stdDeviation="1.33333" result="effect1_foregroundBlur_501_92001"/>
</filter>
<linearGradient id="paint0_linear_501_92001" x1="35.9349" y1="9.00032" x2="20.6016" y2="30.3337" gradientUnits="userSpaceOnUse">
<stop/>
<stop offset="1" stop-opacity="0"/>
</linearGradient>
<linearGradient id="paint1_linear_501_92001" x1="29.2682" y1="14.667" x2="35.6016" y2="9.33366" gradientUnits="userSpaceOnUse">
<stop stop-color="#FDFDFD"/>
<stop offset="1" stop-color="#E4E4E4"/>
</linearGradient>
<linearGradient id="paint2_linear_501_92001" x1="23.401" y1="24.7105" x2="32.9384" y2="8.25548" gradientUnits="userSpaceOnUse">
<stop stop-color="white"/>
<stop offset="1" stop-color="white" stop-opacity="0.8"/>
</linearGradient>
</defs>
</svg>
