<svg width="48" height="48" viewBox="0 0 48 48" fill="none" xmlns="http://www.w3.org/2000/svg">
<path d="M8 4.00033C8 3.26395 8.59695 2.66699 9.33333 2.66699H27.4477C27.8013 2.66699 28.1405 2.80747 28.3905 3.05752L39.6095 14.2765C39.8595 14.5265 40 14.8657 40 15.2193V44.0003C40 44.7367 39.403 45.3337 38.6667 45.3337H9.33333C8.59695 45.3337 8 44.7367 8 44.0003V4.00033Z" fill="#947458"/>
<path d="M8 4.00033C8 3.26395 8.59695 2.66699 9.33333 2.66699H27.4477C27.8013 2.66699 28.1405 2.80747 28.3905 3.05752L39.6095 14.2765C39.8595 14.5265 40 14.8657 40 15.2193V44.0003C40 44.7367 39.403 45.3337 38.6667 45.3337H9.33333C8.59695 45.3337 8 44.7367 8 44.0003V4.00033Z" fill="url(#paint0_linear_501_91913)" fill-opacity="0.3" style="mix-blend-mode:overlay"/>
<g opacity="0.3" filter="url(#filter0_f_501_91913)">
<path d="M26.9194 14.3421L28.0677 4.0498L31.0116 10.0221C31.1292 10.2607 31.3154 10.4586 31.5464 10.5905L38.6846 14.6667L28.3923 15.8151C27.5426 15.9099 26.8246 15.1918 26.9194 14.3421Z" fill="black"/>
</g>
<path d="M28 13.3337V2.66699L40 14.667H29.3333C28.597 14.667 28 14.07 28 13.3337Z" fill="url(#paint1_linear_501_91913)"/>
<path opacity="0.95" d="M26.5596 22.7793C26.9576 22.7793 27.1565 22.78 27.3086 22.8574C27.4424 22.9256 27.5519 23.0342 27.6201 23.168C27.6975 23.32 27.6972 23.5192 27.6973 23.917V24.1514C27.6973 24.5496 27.6976 24.7492 27.6201 24.9014C27.552 25.035 27.4432 25.1438 27.3096 25.2119C27.1575 25.2894 26.9578 25.289 26.5596 25.2891L21.0127 25.29C20.6149 25.2901 20.4157 25.2902 20.2637 25.2129C20.1299 25.1447 20.0213 25.0352 19.9531 24.9014C19.8757 24.7493 19.8751 24.5504 19.875 24.1523V23.918C19.875 23.5202 19.8749 23.321 19.9522 23.1689C20.0203 23.0351 20.1299 22.9256 20.2637 22.8574C20.4157 22.7801 20.6149 22.7803 21.0127 22.7803L26.5596 22.7793ZM26.5596 18.7021C26.9576 18.7021 27.1565 18.7029 27.3086 18.7803C27.4424 18.8484 27.5519 18.957 27.6201 19.0908C27.6975 19.2429 27.6972 19.442 27.6973 19.8398V20.0742C27.6973 20.4725 27.6976 20.6721 27.6201 20.8242C27.552 20.9578 27.4432 21.0666 27.3096 21.1348C27.1575 21.2123 26.9578 21.2119 26.5596 21.2119L21.0127 21.2129C20.6149 21.2129 20.4157 21.2131 20.2637 21.1357C20.1299 21.0676 20.0213 20.958 19.9531 20.8242C19.8757 20.6721 19.8751 20.4733 19.875 20.0752V19.8408C19.875 19.443 19.8749 19.2438 19.9522 19.0918C20.0203 18.958 20.1299 18.8485 20.2637 18.7803C20.4157 18.703 20.6149 18.7032 21.0127 18.7031L26.5596 18.7021ZM26.5596 14.624C26.9577 14.624 27.1565 14.6247 27.3086 14.7021C27.4424 14.7703 27.5519 14.8789 27.6201 15.0127C27.6974 15.1647 27.6972 15.3639 27.6973 15.7617V15.9961C27.6973 16.394 27.6974 16.5931 27.6201 16.7451C27.552 16.8789 27.4433 16.9884 27.3096 17.0566C27.1575 17.1342 26.9578 17.1337 26.5596 17.1338L21.0127 17.1348C20.6147 17.1348 20.4158 17.1341 20.2637 17.0566C20.1299 16.9885 20.0213 16.8799 19.9531 16.7461C19.8757 16.594 19.875 16.3951 19.875 15.9971V15.7627C19.875 15.3649 19.8749 15.1657 19.9522 15.0137C20.0203 14.8799 20.1299 14.7703 20.2637 14.7021C20.4157 14.6249 20.6149 14.625 21.0127 14.625L26.5596 14.624Z" fill="url(#paint2_linear_501_91913)"/>
<defs>
<filter id="filter0_f_501_91913" x="24.2435" y="1.38314" width="17.1068" height="17.1068" filterUnits="userSpaceOnUse" color-interpolation-filters="sRGB">
<feFlood flood-opacity="0" result="BackgroundImageFix"/>
<feBlend mode="normal" in="SourceGraphic" in2="BackgroundImageFix" result="shape"/>
<feGaussianBlur stdDeviation="1.33333" result="effect1_foregroundBlur_501_91913"/>
</filter>
<linearGradient id="paint0_linear_501_91913" x1="35.3333" y1="9.00033" x2="20" y2="30.3337" gradientUnits="userSpaceOnUse">
<stop/>
<stop offset="1" stop-opacity="0"/>
</linearGradient>
<linearGradient id="paint1_linear_501_91913" x1="28.6667" y1="14.667" x2="35" y2="9.33366" gradientUnits="userSpaceOnUse">
<stop stop-color="#FDFDFD"/>
<stop offset="1" stop-color="#E4E4E4"/>
</linearGradient>
<linearGradient id="paint2_linear_501_91913" x1="23.161" y1="24.8362" x2="31.7359" y2="11.8668" gradientUnits="userSpaceOnUse">
<stop stop-color="white"/>
<stop offset="1" stop-color="white" stop-opacity="0.8"/>
</linearGradient>
</defs>
</svg>
