<svg width="49" height="48" viewBox="0 0 49 48" fill="none" xmlns="http://www.w3.org/2000/svg">
<path d="M8.80469 4.00033C8.80469 3.26395 9.40164 2.66699 10.138 2.66699H28.2524C28.606 2.66699 28.9452 2.80747 29.1952 3.05752L40.4142 14.2765C40.6642 14.5265 40.8047 14.8657 40.8047 15.2193V44.0003C40.8047 44.7367 40.2077 45.3337 39.4714 45.3337H10.138C9.40164 45.3337 8.80469 44.7367 8.80469 44.0003V4.00033Z" fill="#947458"/>
<path d="M8.80469 4.00033C8.80469 3.26395 9.40164 2.66699 10.138 2.66699H28.2524C28.606 2.66699 28.9452 2.80747 29.1952 3.05752L40.4142 14.2765C40.6642 14.5265 40.8047 14.8657 40.8047 15.2193V44.0003C40.8047 44.7367 40.2077 45.3337 39.4714 45.3337H10.138C9.40164 45.3337 8.80469 44.7367 8.80469 44.0003V4.00033Z" fill="url(#paint0_linear_501_91957)" fill-opacity="0.3" style="mix-blend-mode:overlay"/>
<g opacity="0.3" filter="url(#filter0_f_501_91957)">
<path d="M27.7944 14.3421L28.9427 4.0498L31.8866 10.0221C32.0042 10.2607 32.1904 10.4586 32.4214 10.5905L39.5596 14.6667L29.2673 15.8151C28.4176 15.9099 27.6996 15.1918 27.7944 14.3421Z" fill="black"/>
</g>
<path d="M28.8047 13.3337V2.66699L40.8047 14.667H30.138C29.4016 14.667 28.8047 14.07 28.8047 13.3337Z" fill="url(#paint1_linear_501_91957)"/>
<path d="M18.9199 38.0993L18.9193 32.9437L21.1309 32.9435C21.458 32.9435 21.7543 33.0027 22.0198 33.1212C22.29 33.2349 22.5058 33.4032 22.667 33.626C22.8282 33.8488 22.9088 34.119 22.9088 34.4366C22.9089 34.7922 22.8188 35.0719 22.6387 35.2758C22.4586 35.4796 22.2121 35.6148 21.8992 35.6812L21.8992 35.7167C22.0509 35.7404 22.1789 35.802 22.2832 35.9016C22.3923 35.9964 22.48 36.1173 22.5464 36.2642C22.6175 36.4112 22.6791 36.5866 22.7313 36.7904C22.7408 36.8141 22.7479 36.8402 22.7526 36.8686C22.7621 36.8923 22.7692 36.9184 22.774 36.9469L23.0514 38.0988L21.9137 38.099L21.6576 37.0608C21.5959 36.8048 21.5342 36.6128 21.4726 36.4848C21.411 36.3568 21.3351 36.2691 21.245 36.2217C21.1549 36.1696 21.0364 36.1435 20.8895 36.1435L20.029 36.1436L20.0292 38.0992L18.9199 38.0993ZM20.9889 35.2048C21.2354 35.2048 21.4227 35.1526 21.5507 35.0483C21.6787 34.944 21.7426 34.7757 21.7426 34.5434C21.7426 34.3159 21.6667 34.1523 21.515 34.0528C21.368 33.9485 21.1523 33.8964 20.8679 33.8964L20.0288 33.8965L20.0289 35.2049L20.9889 35.2048ZM23.8078 38.0988L25.649 32.943L26.9717 32.9429L28.8211 38.0982L27.5767 38.0983L26.3105 34.0807L26.2678 34.0807L25.0096 38.0986L23.8078 38.0988ZM24.8245 36.9964L25.0307 36.0933L27.5196 36.093L27.733 36.9961L24.8245 36.9964ZM29.8879 38.0981L29.8874 32.9425L32.0989 32.9423C32.4261 32.9423 32.7224 33.0015 32.9878 33.12C33.2581 33.2337 33.4738 33.402 33.635 33.6248C33.7962 33.8476 33.8768 34.1178 33.8769 34.4354C33.8769 34.791 33.7869 35.0707 33.6068 35.2746C33.4266 35.4784 33.1801 35.6136 32.8672 35.68L32.8672 35.7155C33.0189 35.7392 33.147 35.8008 33.2513 35.9004C33.3603 35.9952 33.448 36.1161 33.5144 36.263C33.5855 36.41 33.6472 36.5854 33.6994 36.7892C33.7088 36.8129 33.716 36.839 33.7207 36.8674C33.7302 36.8912 33.7373 36.9172 33.742 36.9457L34.0195 38.0976L32.8817 38.0978L32.6256 37.0596C32.564 36.8036 32.5023 36.6116 32.4407 36.4836C32.379 36.3556 32.3032 36.2679 32.2131 36.2205C32.123 36.1684 32.0045 36.1423 31.8575 36.1423L30.9971 36.1424L30.9973 38.098L29.8879 38.0981ZM31.957 35.2036C32.2035 35.2036 32.3907 35.1514 32.5187 35.0471C32.6467 34.9428 32.7107 34.7745 32.7107 34.5422C32.7106 34.3147 32.6348 34.1511 32.4831 34.0516C32.3361 33.9473 32.1204 33.8952 31.8359 33.8952L30.9968 33.8953L30.997 35.2037L31.957 35.2036Z" fill="white"/>
<path opacity="0.95" d="M27.3564 22.7793C27.7545 22.7793 27.9534 22.78 28.1055 22.8574C28.2393 22.9256 28.3488 23.0342 28.417 23.168C28.4944 23.32 28.4941 23.5192 28.4941 23.917V24.1514C28.4942 24.5496 28.4945 24.7492 28.417 24.9014C28.3489 25.035 28.2401 25.1438 28.1064 25.2119C27.9543 25.2894 27.7547 25.289 27.3564 25.2891L21.8096 25.29C21.4118 25.2901 21.2126 25.2902 21.0605 25.2129C20.9267 25.1447 20.8182 25.0352 20.75 24.9014C20.6725 24.7493 20.6719 24.5504 20.6719 24.1523V23.918C20.6718 23.5202 20.6718 23.321 20.749 23.1689C20.8172 23.0351 20.9268 22.9256 21.0605 22.8574C21.2126 22.7801 21.4118 22.7803 21.8096 22.7803L27.3564 22.7793ZM27.3564 18.7021C27.7545 18.7021 27.9534 18.7029 28.1055 18.7803C28.2393 18.8484 28.3488 18.957 28.417 19.0908C28.4944 19.2429 28.4941 19.442 28.4941 19.8398V20.0742C28.4942 20.4725 28.4945 20.6721 28.417 20.8242C28.3489 20.9578 28.2401 21.0666 28.1064 21.1348C27.9543 21.2123 27.7547 21.2119 27.3564 21.2119L21.8096 21.2129C21.4118 21.2129 21.2126 21.2131 21.0605 21.1357C20.9267 21.0676 20.8182 20.958 20.75 20.8242C20.6725 20.6721 20.6719 20.4733 20.6719 20.0752V19.8408C20.6718 19.443 20.6718 19.2438 20.749 19.0918C20.8172 18.958 20.9268 18.8485 21.0605 18.7803C21.2126 18.703 21.4118 18.7032 21.8096 18.7031L27.3564 18.7021ZM27.3564 14.624C27.7545 14.624 27.9534 14.6247 28.1055 14.7021C28.2393 14.7703 28.3488 14.8789 28.417 15.0127C28.4943 15.1647 28.4941 15.3639 28.4941 15.7617V15.9961C28.4942 16.394 28.4943 16.5931 28.417 16.7451C28.3489 16.8789 28.2402 16.9884 28.1064 17.0566C27.9543 17.1342 27.7547 17.1337 27.3564 17.1338L21.8096 17.1348C21.4116 17.1348 21.2126 17.1341 21.0605 17.0566C20.9268 16.9885 20.8182 16.8799 20.75 16.7461C20.6725 16.594 20.6719 16.3951 20.6719 15.9971V15.7627C20.6718 15.3649 20.6718 15.1657 20.749 15.0137C20.8172 14.8799 20.9268 14.7703 21.0605 14.7021C21.2126 14.6249 21.4117 14.625 21.8096 14.625L27.3564 14.624Z" fill="url(#paint2_linear_501_91957)"/>
<circle opacity="0.5" cx="15.4714" cy="35.3337" r="0.666667" fill="white"/>
<defs>
<filter id="filter0_f_501_91957" x="25.1185" y="1.38314" width="17.1068" height="17.1068" filterUnits="userSpaceOnUse" color-interpolation-filters="sRGB">
<feFlood flood-opacity="0" result="BackgroundImageFix"/>
<feBlend mode="normal" in="SourceGraphic" in2="BackgroundImageFix" result="shape"/>
<feGaussianBlur stdDeviation="1.33333" result="effect1_foregroundBlur_501_91957"/>
</filter>
<linearGradient id="paint0_linear_501_91957" x1="36.138" y1="9.00033" x2="20.8047" y2="30.3337" gradientUnits="userSpaceOnUse">
<stop/>
<stop offset="1" stop-opacity="0"/>
</linearGradient>
<linearGradient id="paint1_linear_501_91957" x1="29.4714" y1="14.667" x2="35.8047" y2="9.33366" gradientUnits="userSpaceOnUse">
<stop stop-color="#FDFDFD"/>
<stop offset="1" stop-color="#E4E4E4"/>
</linearGradient>
<linearGradient id="paint2_linear_501_91957" x1="23.9579" y1="24.8362" x2="32.5328" y2="11.8668" gradientUnits="userSpaceOnUse">
<stop stop-color="white"/>
<stop offset="1" stop-color="white" stop-opacity="0.8"/>
</linearGradient>
</defs>
</svg>
