<svg width="48" height="48" viewBox="0 0 48 48" fill="none" xmlns="http://www.w3.org/2000/svg">
<path d="M8 4.00033C8 3.26395 8.59695 2.66699 9.33333 2.66699H27.4477C27.8013 2.66699 28.1405 2.80747 28.3905 3.05752L39.6095 14.2765C39.8595 14.5265 40 14.8657 40 15.2193V44.0003C40 44.7367 39.4031 45.3337 38.6667 45.3337H9.33333C8.59695 45.3337 8 44.7367 8 44.0003V4.00033Z" fill="#E44E43"/>
<path d="M8 4.00033C8 3.26395 8.59695 2.66699 9.33333 2.66699H27.4477C27.8013 2.66699 28.1405 2.80747 28.3905 3.05752L39.6095 14.2765C39.8595 14.5265 40 14.8657 40 15.2193V44.0003C40 44.7367 39.4031 45.3337 38.6667 45.3337H9.33333C8.59695 45.3337 8 44.7367 8 44.0003V4.00033Z" fill="url(#paint0_linear_501_92466)" fill-opacity="0.3" style="mix-blend-mode:overlay"/>
<g opacity="0.3" filter="url(#filter0_f_501_92466)">
<path d="M26.8404 14.3626L28.0013 3.33398L39.3346 14.6673L28.306 15.8282C27.4625 15.917 26.7516 15.2061 26.8404 14.3626Z" fill="black"/>
</g>
<path d="M28 13.3337V2.66699L40 14.667H29.3333C28.597 14.667 28 14.07 28 13.3337Z" fill="url(#paint1_linear_501_92466)"/>
<path opacity="0.95" d="M28.9801 27.8401L26.9465 27.8403L24.3899 23.3373L25.4065 21.5466C26.1321 20.2662 25.2238 18.6661 23.7704 18.6662C22.3169 18.6664 21.4083 20.2667 22.1355 21.547L23.1525 23.3374L20.5969 27.841L18.564 27.8412C17.1105 27.8414 16.2019 29.4417 16.9291 30.7219C17.2927 31.3624 17.9286 31.6823 18.5644 31.6822C19.2002 31.6821 19.836 31.3621 20.1995 30.7216L21.2154 28.9323L26.3289 28.9317L27.3452 30.7208C27.7088 31.3606 28.3447 31.6811 28.9805 31.681C29.6164 31.681 30.2522 31.361 30.6156 30.7205C31.3419 29.44 30.4335 27.8399 28.9801 27.8401ZM23.0643 20.1724C23.1347 20.0476 23.3453 19.7576 23.7698 19.7576C24.1944 19.7576 24.405 20.0474 24.4754 20.1722C24.5459 20.2971 24.6881 20.6272 24.4755 21.001L23.7701 22.2446L23.0644 21.0012C22.8517 20.6274 22.9939 20.2972 23.0643 20.1724ZM19.2705 30.1753C19.0579 30.5491 18.7065 30.5901 18.5649 30.5901C18.4234 30.5901 18.0713 30.5499 17.8593 30.1755C17.6466 29.8017 17.7888 29.4715 17.8592 29.3467C17.9296 29.2219 18.1402 28.932 18.5648 28.9319L19.9766 28.9318L19.2712 30.1753L19.2705 30.1753ZM21.8357 27.8402L23.771 24.4308L25.707 27.8397L21.8357 27.8402ZM29.686 30.1742C29.4734 30.548 29.1219 30.589 28.9804 30.589C28.8389 30.589 28.4868 30.5488 28.2748 30.1743L27.5691 28.9309L28.9809 28.9308C29.4055 28.9307 29.6161 29.2206 29.6865 29.3454C29.757 29.4702 29.8992 29.8004 29.6866 30.1742L29.686 30.1742Z" fill="url(#paint2_linear_501_92466)"/>
<defs>
<filter id="filter0_f_501_92466" x="24.1654" y="0.667317" width="17.8372" height="17.8353" filterUnits="userSpaceOnUse" color-interpolation-filters="sRGB">
<feFlood flood-opacity="0" result="BackgroundImageFix"/>
<feBlend mode="normal" in="SourceGraphic" in2="BackgroundImageFix" result="shape"/>
<feGaussianBlur stdDeviation="1.33333" result="effect1_foregroundBlur_501_92466"/>
</filter>
<linearGradient id="paint0_linear_501_92466" x1="35.3333" y1="9.00033" x2="20" y2="30.3337" gradientUnits="userSpaceOnUse">
<stop/>
<stop offset="1" stop-opacity="0"/>
</linearGradient>
<linearGradient id="paint1_linear_501_92466" x1="28.6667" y1="14.667" x2="35" y2="9.33366" gradientUnits="userSpaceOnUse">
<stop stop-color="#FDFDFD"/>
<stop offset="1" stop-color="#E4E4E4"/>
</linearGradient>
<linearGradient id="paint2_linear_501_92466" x1="22.6375" y1="31.1279" x2="31.0774" y2="12.1351" gradientUnits="userSpaceOnUse">
<stop stop-color="white"/>
<stop offset="1" stop-color="white" stop-opacity="0.8"/>
</linearGradient>
</defs>
</svg>
