<svg width="49" height="48" viewBox="0 0 49 48" fill="none" xmlns="http://www.w3.org/2000/svg">
<path d="M8.20312 4.00033C8.20312 3.26395 8.80008 2.66699 9.53646 2.66699H27.6508C28.0045 2.66699 28.3436 2.80747 28.5937 3.05752L39.8126 14.2765C40.0627 14.5265 40.2031 14.8657 40.2031 15.2193V44.0003C40.2031 44.7367 39.6062 45.3337 38.8698 45.3337H9.53646C8.80008 45.3337 8.20312 44.7367 8.20312 44.0003V4.00033Z" fill="#F4A92D"/>
<path d="M8.20312 4.00033C8.20312 3.26395 8.80008 2.66699 9.53646 2.66699H27.6508C28.0045 2.66699 28.3436 2.80747 28.5937 3.05752L39.8126 14.2765C40.0627 14.5265 40.2031 14.8657 40.2031 15.2193V44.0003C40.2031 44.7367 39.6062 45.3337 38.8698 45.3337H9.53646C8.80008 45.3337 8.20312 44.7367 8.20312 44.0003V4.00033Z" fill="url(#paint0_linear_501_92325)" fill-opacity="0.3" style="mix-blend-mode:overlay"/>
<g opacity="0.3" filter="url(#filter0_f_501_92325)">
<path d="M26.8959 14.3421L28.0443 4.0498L30.9882 10.0221C31.1058 10.2607 31.292 10.4586 31.5229 10.5905L38.6612 14.6667L28.3689 15.8151C27.5192 15.9099 26.8011 15.1918 26.8959 14.3421Z" fill="black"/>
</g>
<path d="M28.2031 13.3337V2.66699L40.2031 14.667H29.5365C28.8001 14.667 28.2031 14.07 28.2031 13.3337Z" fill="url(#paint1_linear_501_92325)"/>
<path d="M31.7139 23.3008C32.0871 23.3007 32.2744 23.3005 32.417 23.373C32.5424 23.437 32.6441 23.5396 32.708 23.665C32.7806 23.8076 32.7812 23.9941 32.7813 24.3672V24.9004C32.7813 25.2738 32.7807 25.4609 32.708 25.6035C32.6441 25.7289 32.5423 25.8306 32.417 25.8945C32.2744 25.9672 32.088 25.9677 31.7148 25.9678L16.833 25.9688C16.4596 25.9688 16.2725 25.9691 16.1299 25.8965C16.0046 25.8326 15.9028 25.7307 15.8389 25.6055C15.7662 25.4629 15.7657 25.2757 15.7656 24.9023V24.3691C15.7656 23.996 15.7663 23.8096 15.8389 23.667C15.9028 23.5415 16.0044 23.4389 16.1299 23.375C16.2724 23.3024 16.4591 23.3028 16.832 23.3027L31.7139 23.3008ZM31.7139 19.2998C32.0872 19.2998 32.2744 19.2995 32.417 19.3721C32.5424 19.436 32.6441 19.5386 32.708 19.6641C32.7806 19.8066 32.7812 19.9931 32.7813 20.3662V20.8994C32.7813 21.2728 32.7807 21.4599 32.708 21.6025C32.6441 21.7278 32.5423 21.8297 32.417 21.8936C32.2744 21.9662 32.0879 21.9668 31.7148 21.9668L16.833 21.9678C16.4596 21.9678 16.2725 21.9682 16.1299 21.8955C16.0046 21.8317 15.9028 21.7297 15.8389 21.6045C15.7662 21.4619 15.7657 21.2747 15.7656 20.9014V20.3682C15.7656 19.995 15.7663 19.8086 15.8389 19.666C15.9028 19.5406 16.0044 19.438 16.1299 19.374C16.2724 19.3014 16.4591 19.3018 16.832 19.3018L31.7139 19.2998Z" fill="url(#paint2_linear_501_92325)"/>
<path d="M21.5349 36.1541C21.1438 36.1541 20.7904 36.0564 20.4749 35.8609C20.1593 35.6609 19.9504 35.3609 19.8481 34.9609L20.8214 34.6475C20.8836 34.8653 20.9814 35.0186 21.1148 35.1075C21.2526 35.1919 21.4037 35.2341 21.5681 35.2341C21.7815 35.2341 21.9503 35.1585 22.0748 35.0074C22.2036 34.8562 22.2681 34.6807 22.268 34.4807L22.2677 31.2607L23.3077 31.2606L23.308 34.5472C23.3081 35.0495 23.1593 35.4428 22.8615 35.7273C22.5638 36.0118 22.1216 36.154 21.5349 36.1541ZM26.4568 36.1869C25.959 36.1869 25.5256 36.0714 25.1567 35.8404C24.7878 35.6093 24.5544 35.2827 24.4566 34.8604L25.4766 34.5337C25.5344 34.7737 25.6477 34.967 25.8167 35.1136C25.9856 35.2558 26.2056 35.3269 26.4767 35.3269C26.6411 35.3269 26.7856 35.3046 26.91 35.2602C27.0344 35.2113 27.13 35.1468 27.1966 35.0668C27.2633 34.9824 27.2966 34.889 27.2966 34.7868C27.2966 34.6624 27.2699 34.5668 27.2166 34.5001C27.1632 34.429 27.0788 34.369 26.9632 34.3202C26.8521 34.2713 26.6699 34.2069 26.4165 34.1269L25.5765 33.867C25.1943 33.7515 24.932 33.5848 24.7898 33.3671C24.6475 33.1493 24.5786 32.8849 24.583 32.5738C24.5875 32.3382 24.6541 32.1138 24.783 31.9004C24.9163 31.6871 25.1185 31.5115 25.3896 31.3737C25.6651 31.2359 26.0073 31.1669 26.4162 31.1669C26.7096 31.1669 26.9829 31.2157 27.2362 31.3135C27.494 31.4112 27.7096 31.5601 27.883 31.7601C28.0608 31.96 28.1786 32.2023 28.2364 32.4867L27.1831 32.7268C27.1341 32.5135 27.0386 32.3446 26.8963 32.2202C26.7541 32.0913 26.5763 32.0269 26.363 32.0269C26.2119 32.0269 26.083 32.0514 25.9763 32.1003C25.8697 32.1492 25.7874 32.2158 25.7297 32.3003C25.6764 32.3803 25.6497 32.467 25.6497 32.5603C25.6497 32.6981 25.712 32.8136 25.8364 32.907C25.9609 33.0003 26.1698 33.0891 26.4631 33.1736L27.2965 33.4135C27.5454 33.4845 27.7454 33.5712 27.8965 33.6734C28.0476 33.7712 28.1632 33.9067 28.2432 34.08C28.3232 34.2489 28.3632 34.4711 28.3633 34.7467C28.3633 35.0133 28.2811 35.2578 28.1167 35.48C27.9567 35.6978 27.7323 35.8712 27.4434 36.0001C27.1545 36.1246 26.8257 36.1868 26.4568 36.1869Z" fill="white"/>
<circle opacity="0.5" cx="18.1979" cy="35.3346" r="0.666667" fill="white"/>
<defs>
<filter id="filter0_f_501_92325" x="24.2201" y="1.38314" width="17.1068" height="17.1068" filterUnits="userSpaceOnUse" color-interpolation-filters="sRGB">
<feFlood flood-opacity="0" result="BackgroundImageFix"/>
<feBlend mode="normal" in="SourceGraphic" in2="BackgroundImageFix" result="shape"/>
<feGaussianBlur stdDeviation="1.33333" result="effect1_foregroundBlur_501_92325"/>
</filter>
<linearGradient id="paint0_linear_501_92325" x1="35.5365" y1="9.00033" x2="20.2031" y2="30.3337" gradientUnits="userSpaceOnUse">
<stop/>
<stop offset="1" stop-opacity="0"/>
</linearGradient>
<linearGradient id="paint1_linear_501_92325" x1="28.8698" y1="14.667" x2="35.2031" y2="9.33366" gradientUnits="userSpaceOnUse">
<stop stop-color="#FDFDFD"/>
<stop offset="1" stop-color="#E4E4E4"/>
</linearGradient>
<linearGradient id="paint2_linear_501_92325" x1="16.5368" y1="27.9986" x2="21.1412" y2="12.5131" gradientUnits="userSpaceOnUse">
<stop stop-color="white"/>
<stop offset="1" stop-color="white" stop-opacity="0.8"/>
</linearGradient>
</defs>
</svg>
