<svg width="49" height="48" viewBox="0 0 49 48" fill="none" xmlns="http://www.w3.org/2000/svg">
<path d="M8.60156 4.00033C8.60156 3.26395 9.19852 2.66699 9.9349 2.66699H28.0493C28.4029 2.66699 28.742 2.80747 28.9921 3.05752L40.211 14.2765C40.4611 14.5265 40.6016 14.8657 40.6016 15.2193V44.0003C40.6016 44.7367 40.0046 45.3337 39.2682 45.3337H9.93489C9.19851 45.3337 8.60156 44.7367 8.60156 44.0003V4.00033Z" fill="#EB8226"/>
<path d="M8.60156 4.00033C8.60156 3.26395 9.19852 2.66699 9.9349 2.66699H28.0493C28.4029 2.66699 28.742 2.80747 28.9921 3.05752L40.211 14.2765C40.4611 14.5265 40.6016 14.8657 40.6016 15.2193V44.0003C40.6016 44.7367 40.0046 45.3337 39.2682 45.3337H9.93489C9.19851 45.3337 8.60156 44.7367 8.60156 44.0003V4.00033Z" fill="url(#paint0_linear_501_91466)" fill-opacity="0.3" style="mix-blend-mode:overlay"/>
<g opacity="0.3" filter="url(#filter0_f_501_91466)">
<path d="M27.442 14.3626L28.6029 3.33398L39.9362 14.6673L28.9075 15.8282C28.0641 15.917 27.3532 15.2061 27.442 14.3626Z" fill="black"/>
</g>
<path d="M28.6016 13.3337V2.66699L40.6016 14.667H29.9349C29.1985 14.667 28.6016 14.07 28.6016 13.3337Z" fill="url(#paint1_linear_501_91466)"/>
<path d="M33.8965 29.8096C34.2459 29.8095 34.4207 29.8101 34.5547 29.877C34.6777 29.9384 34.7774 30.0382 34.8389 30.1611C34.9058 30.2951 34.9062 30.4699 34.9063 30.8193V31.6572C34.9063 32.0066 34.9067 32.1815 34.8398 32.3154C34.7784 32.4384 34.6786 32.5381 34.5557 32.5996C34.4217 32.6666 34.2468 32.667 33.8975 32.667H28.9326C28.583 32.667 28.4074 32.6675 28.2734 32.6006C28.1506 32.5391 28.0507 32.4393 27.9893 32.3164C27.9223 32.1825 27.9229 32.0075 27.9229 31.6582V30.8193C27.9228 30.47 27.9223 30.2951 27.9893 30.1611C28.0507 30.0382 28.1505 29.9384 28.2734 29.877C28.4074 29.81 28.5822 29.8106 28.9316 29.8105L33.8965 29.8096ZM26.1533 21.5244C26.3279 21.5244 26.4155 21.5251 26.4824 21.5586C26.5437 21.5893 26.5933 21.6389 26.624 21.7002C26.6575 21.7672 26.6582 21.8546 26.6582 22.0293V22.1631C26.6582 22.3376 26.6575 22.4252 26.624 22.4922C26.5933 22.5535 26.5437 22.6031 26.4824 22.6338C26.4154 22.6673 26.328 22.668 26.1533 22.668H22.7021C22.1678 22.668 21.8045 22.6681 21.5234 22.6885C21.2496 22.7083 21.1086 22.7441 21.0107 22.7881C20.765 22.8987 20.5662 23.0787 20.4434 23.2998C20.3945 23.3879 20.354 23.5144 20.332 23.7607C20.3171 23.9277 20.3134 24.1273 20.3115 24.3818H23.1074C23.4568 24.3818 23.6317 24.3824 23.7656 24.4492C23.8886 24.5107 23.9883 24.6104 24.0498 24.7334C24.1167 24.8674 24.1171 25.0422 24.1172 25.3916V27.9434C24.1172 28.2926 24.1175 28.4676 24.0508 28.6016C23.9894 28.7245 23.8895 28.8243 23.7666 28.8857C23.6326 28.9527 23.4579 28.9531 23.1084 28.9531H20.3115C20.3134 29.2081 20.3181 29.408 20.333 29.5752C20.3551 29.8215 20.3945 29.9481 20.4434 30.0361C20.5662 30.2573 20.766 30.4363 21.0117 30.5469C21.1096 30.5909 21.2505 30.6267 21.5244 30.6465C21.8054 30.6668 22.1687 30.668 22.7031 30.668L26.1543 30.667C26.3289 30.667 26.4164 30.6668 26.4834 30.7002C26.5449 30.7309 26.5943 30.7813 26.625 30.8428C26.6585 30.9098 26.6592 30.9971 26.6592 31.1719V31.3057C26.6592 31.4801 26.6594 31.5678 26.626 31.6348C26.5953 31.6962 26.5448 31.7457 26.4834 31.7764C26.4164 31.8098 26.3291 31.8096 26.1543 31.8096L22.6777 31.8105C22.1754 31.8106 21.7608 31.8105 21.4229 31.7861C21.0719 31.7608 20.7484 31.7061 20.4443 31.5693C19.9525 31.3481 19.5534 30.9895 19.3076 30.5469C19.1557 30.2734 19.0956 29.9827 19.0674 29.667C19.049 29.4617 19.044 29.2244 19.042 28.9531L15.6035 28.9541C15.2541 28.9541 15.0793 28.9536 14.9453 28.8867C14.8224 28.8253 14.7226 28.7255 14.6611 28.6025C14.5943 28.4686 14.5938 28.2936 14.5938 27.9443V25.3926C14.5937 25.043 14.5942 24.8674 14.6611 24.7334C14.7226 24.6106 14.8225 24.5106 14.9453 24.4492C15.0792 24.3825 15.2544 24.3828 15.6035 24.3828L19.041 24.3818C19.0429 24.1112 19.0482 23.8749 19.0664 23.6699C19.0946 23.354 19.1547 23.0628 19.3066 22.7891C19.5524 22.3464 19.9516 21.9879 20.4434 21.7666C20.7474 21.6298 21.0709 21.5752 21.4219 21.5498C21.7598 21.5254 22.1745 21.5254 22.6768 21.5254L26.1533 21.5244ZM33.8965 20.667C34.2459 20.667 34.4207 20.6675 34.5547 20.7344C34.6777 20.7958 34.7774 20.8956 34.8389 21.0186C34.9058 21.1525 34.9062 21.3273 34.9063 21.6768V22.5146C34.9063 22.864 34.9067 23.0389 34.8398 23.1729C34.7784 23.2958 34.6786 23.3956 34.5557 23.457C34.4217 23.524 34.2468 23.5244 33.8975 23.5244H28.9326C28.583 23.5245 28.4074 23.5249 28.2734 23.458C28.1505 23.3966 28.0507 23.2967 27.9893 23.1738C27.9223 23.0399 27.9229 22.865 27.9229 22.5156V21.6768C27.9228 21.3275 27.9224 21.1525 27.9893 21.0186C28.0507 20.8956 28.1505 20.7958 28.2734 20.7344C28.4074 20.6674 28.5823 20.668 28.9316 20.668L33.8965 20.667Z" fill="url(#paint2_linear_501_91466)"/>
<defs>
<filter id="filter0_f_501_91466" x="24.7669" y="0.667317" width="17.8372" height="17.8353" filterUnits="userSpaceOnUse" color-interpolation-filters="sRGB">
<feFlood flood-opacity="0" result="BackgroundImageFix"/>
<feBlend mode="normal" in="SourceGraphic" in2="BackgroundImageFix" result="shape"/>
<feGaussianBlur stdDeviation="1.33333" result="effect1_foregroundBlur_501_91466"/>
</filter>
<linearGradient id="paint0_linear_501_91466" x1="35.9349" y1="9.00033" x2="20.6016" y2="30.3337" gradientUnits="userSpaceOnUse">
<stop/>
<stop offset="1" stop-opacity="0"/>
</linearGradient>
<linearGradient id="paint1_linear_501_91466" x1="29.2682" y1="14.667" x2="35.6016" y2="9.33366" gradientUnits="userSpaceOnUse">
<stop stop-color="#FDFDFD"/>
<stop offset="1" stop-color="#E4E4E4"/>
</linearGradient>
<linearGradient id="paint2_linear_501_91466" x1="23.1265" y1="31.6594" x2="28.2409" y2="12.9982" gradientUnits="userSpaceOnUse">
<stop stop-color="white"/>
<stop offset="1" stop-color="white" stop-opacity="0.8"/>
</linearGradient>
</defs>
</svg>
