<svg width="49" height="48" viewBox="0 0 49 48" fill="none" xmlns="http://www.w3.org/2000/svg">
<path d="M8.20312 4.00033C8.20312 3.26395 8.80008 2.66699 9.53646 2.66699H27.6508C28.0045 2.66699 28.3436 2.80747 28.5936 3.05752L39.8126 14.2765C40.0626 14.5265 40.2031 14.8657 40.2031 15.2193V44.0003C40.2031 44.7367 39.6062 45.3337 38.8698 45.3337H9.53646C8.80008 45.3337 8.20312 44.7367 8.20312 44.0003V4.00033Z" fill="#26BD35"/>
<path d="M8.20312 4.00033C8.20312 3.26395 8.80008 2.66699 9.53646 2.66699H27.6508C28.0045 2.66699 28.3436 2.80747 28.5936 3.05752L39.8126 14.2765C40.0626 14.5265 40.2031 14.8657 40.2031 15.2193V44.0003C40.2031 44.7367 39.6062 45.3337 38.8698 45.3337H9.53646C8.80008 45.3337 8.20312 44.7367 8.20312 44.0003V4.00033Z" fill="url(#paint0_linear_501_91787)" fill-opacity="0.3" style="mix-blend-mode:overlay"/>
<g opacity="0.3" filter="url(#filter0_f_501_91787)">
<path d="M27.0435 14.3626L28.2044 3.33398L39.5378 14.6673L28.5091 15.8282C27.6656 15.917 26.9547 15.2061 27.0435 14.3626Z" fill="black"/>
</g>
<path d="M28.2031 13.3337V2.66699L40.2031 14.667H29.5365C28.8001 14.667 28.2031 14.07 28.2031 13.3337Z" fill="url(#paint1_linear_501_91787)"/>
<path d="M17.5889 29.8867C17.8034 29.8869 17.9774 30.0608 17.9775 30.2754V31.9873C17.9778 32.1154 18.0828 32.2197 18.2109 32.2197H30.1885C30.3166 32.2197 30.4216 32.1154 30.4219 31.9873V30.2754C30.422 30.0608 30.5959 29.8868 30.8105 29.8867H31.5889C31.8034 29.8869 31.9774 30.0608 31.9775 30.2754V31.9873C31.9773 32.975 31.1762 33.7754 30.1885 33.7754H18.2109C17.2232 33.7754 16.4221 32.975 16.4219 31.9873V30.2754C16.422 30.0608 16.5959 29.8868 16.8105 29.8867H17.5889ZM24.5918 18.2871C24.8065 18.2871 24.9804 18.4611 24.9805 18.6758V25.0645H28.0791C28.4255 25.0645 28.5985 25.4836 28.3535 25.7285L24.4785 29.6045C24.3266 29.7564 24.0796 29.7564 23.9277 29.6045L20.0518 25.7285C19.807 25.4835 19.9808 25.0645 20.3271 25.0645H23.4258V18.6758C23.4259 18.4611 23.5998 18.2871 23.8145 18.2871H24.5918Z" fill="url(#paint2_linear_501_91787)"/>
<defs>
<filter id="filter0_f_501_91787" x="24.3685" y="0.667318" width="17.8372" height="17.8353" filterUnits="userSpaceOnUse" color-interpolation-filters="sRGB">
<feFlood flood-opacity="0" result="BackgroundImageFix"/>
<feBlend mode="normal" in="SourceGraphic" in2="BackgroundImageFix" result="shape"/>
<feGaussianBlur stdDeviation="1.33333" result="effect1_foregroundBlur_501_91787"/>
</filter>
<linearGradient id="paint0_linear_501_91787" x1="35.5365" y1="9.00032" x2="20.2031" y2="30.3337" gradientUnits="userSpaceOnUse">
<stop/>
<stop offset="1" stop-opacity="0"/>
</linearGradient>
<linearGradient id="paint1_linear_501_91787" x1="28.8698" y1="14.667" x2="35.2031" y2="9.33366" gradientUnits="userSpaceOnUse">
<stop stop-color="#FDFDFD"/>
<stop offset="1" stop-color="#E4E4E4"/>
</linearGradient>
<linearGradient id="paint2_linear_501_91787" x1="22.9564" y1="32.4748" x2="32.8142" y2="11.1332" gradientUnits="userSpaceOnUse">
<stop stop-color="white"/>
<stop offset="1" stop-color="white" stop-opacity="0.8"/>
</linearGradient>
</defs>
</svg>
