<svg width="48" height="48" viewBox="0 0 48 48" fill="none" xmlns="http://www.w3.org/2000/svg">
<path d="M8 4.00033C8 3.26395 8.59695 2.66699 9.33333 2.66699H27.4477C27.8013 2.66699 28.1405 2.80747 28.3905 3.05752L39.6095 14.2765C39.8595 14.5265 40 14.8657 40 15.2193V44.0003C40 44.7367 39.403 45.3337 38.6667 45.3337H9.33333C8.59695 45.3337 8 44.7367 8 44.0003V4.00033Z" fill="#26BD35"/>
<path d="M8 4.00033C8 3.26395 8.59695 2.66699 9.33333 2.66699H27.4477C27.8013 2.66699 28.1405 2.80747 28.3905 3.05752L39.6095 14.2765C39.8595 14.5265 40 14.8657 40 15.2193V44.0003C40 44.7367 39.403 45.3337 38.6667 45.3337H9.33333C8.59695 45.3337 8 44.7367 8 44.0003V4.00033Z" fill="url(#paint0_linear_501_91537)" fill-opacity="0.3" style="mix-blend-mode:overlay"/>
<g opacity="0.3" filter="url(#filter0_f_501_91537)">
<path d="M26.8404 14.3626L28.0013 3.33398L39.3346 14.6673L28.306 15.8282C27.4625 15.917 26.7516 15.2061 26.8404 14.3626Z" fill="black"/>
</g>
<path d="M28 13.3337V2.66699L40 14.667H29.3333C28.597 14.667 28 14.07 28 13.3337Z" fill="url(#paint1_linear_501_91537)"/>
<path d="M25.2161 28.1572C26.8082 28.1572 27.7634 28.1474 28.5882 28.4717C29.2948 28.7496 29.9204 29.2008 30.4075 29.7832C30.9762 30.4632 31.2692 31.3722 31.7728 32.8828L31.9779 33.5C32.0365 33.6761 32.0073 33.87 31.8988 34.0205C31.7903 34.1707 31.6163 34.2597 31.431 34.2598H16.5853C16.3998 34.2596 16.225 34.171 16.1165 34.0205C16.0082 33.87 15.9788 33.6759 16.0374 33.5L16.2435 32.8828C16.747 31.3723 17.0402 30.4632 17.6087 29.7832C18.0958 29.2008 18.7216 28.7496 19.4281 28.4717C20.2529 28.1473 21.2081 28.1572 22.8001 28.1572H25.2161ZM24.0042 19.333C26.0083 19.3331 27.6331 20.9578 27.6331 22.9619C27.633 24.9659 26.0082 26.5907 24.0042 26.5908C22.0003 26.5906 20.3754 24.9658 20.3753 22.9619C20.3753 20.9579 22.0002 19.3332 24.0042 19.333Z" fill="url(#paint2_linear_501_91537)"/>
<defs>
<filter id="filter0_f_501_91537" x="24.1654" y="0.667318" width="17.8372" height="17.8353" filterUnits="userSpaceOnUse" color-interpolation-filters="sRGB">
<feFlood flood-opacity="0" result="BackgroundImageFix"/>
<feBlend mode="normal" in="SourceGraphic" in2="BackgroundImageFix" result="shape"/>
<feGaussianBlur stdDeviation="1.33333" result="effect1_foregroundBlur_501_91537"/>
</filter>
<linearGradient id="paint0_linear_501_91537" x1="35.3333" y1="9.00032" x2="20" y2="30.3337" gradientUnits="userSpaceOnUse">
<stop/>
<stop offset="1" stop-opacity="0"/>
</linearGradient>
<linearGradient id="paint1_linear_501_91537" x1="28.6667" y1="14.667" x2="35" y2="9.33366" gradientUnits="userSpaceOnUse">
<stop stop-color="#FDFDFD"/>
<stop offset="1" stop-color="#E4E4E4"/>
</linearGradient>
<linearGradient id="paint2_linear_501_91537" x1="22.7289" y1="33.0064" x2="31.826" y2="11.9875" gradientUnits="userSpaceOnUse">
<stop stop-color="white"/>
<stop offset="1" stop-color="white" stop-opacity="0.8"/>
</linearGradient>
</defs>
</svg>
