<svg width="49" height="48" viewBox="0 0 49 48" fill="none" xmlns="http://www.w3.org/2000/svg">
<path d="M8.20312 4.00033C8.20312 3.26395 8.80008 2.66699 9.53646 2.66699H27.6508C28.0045 2.66699 28.3436 2.80747 28.5937 3.05752L39.8126 14.2765C40.0627 14.5265 40.2031 14.8657 40.2031 15.2193V44.0003C40.2031 44.7367 39.6062 45.3337 38.8698 45.3337H9.53646C8.80008 45.3337 8.20312 44.7367 8.20312 44.0003V4.00033Z" fill="#EB8226"/>
<path d="M8.20312 4.00033C8.20312 3.26395 8.80008 2.66699 9.53646 2.66699H27.6508C28.0045 2.66699 28.3436 2.80747 28.5937 3.05752L39.8126 14.2765C40.0627 14.5265 40.2031 14.8657 40.2031 15.2193V44.0003C40.2031 44.7367 39.6062 45.3337 38.8698 45.3337H9.53646C8.80008 45.3337 8.20312 44.7367 8.20312 44.0003V4.00033Z" fill="url(#paint0_linear_501_91608)" fill-opacity="0.3" style="mix-blend-mode:overlay"/>
<g opacity="0.3" filter="url(#filter0_f_501_91608)">
<path d="M27.0435 14.3626L28.2044 3.33398L39.5378 14.6673L28.5091 15.8282C27.6656 15.917 26.9547 15.2061 27.0435 14.3626Z" fill="black"/>
</g>
<path d="M28.2031 13.3337V2.66699L40.2031 14.667H29.5365C28.8001 14.667 28.2031 14.07 28.2031 13.3337Z" fill="url(#paint1_linear_501_91608)"/>
<path d="M17.5877 36.0952L17.5872 31.2619L18.6272 31.2618L18.6276 35.2018L20.9876 35.2015L20.9877 36.0948L17.5877 36.0952ZM22.0356 36.0947L22.0351 31.2614L24.1084 31.2612C24.4151 31.2611 24.6929 31.3167 24.9418 31.4277C25.1951 31.5344 25.3974 31.6921 25.5485 31.901C25.6996 32.1099 25.7752 32.3632 25.7753 32.661C25.7753 32.9943 25.6909 33.2565 25.522 33.4477C25.3531 33.6388 25.1221 33.7655 24.8287 33.8278L24.8287 33.8611C24.971 33.8833 25.091 33.9411 25.1887 34.0344C25.291 34.1233 25.3732 34.2366 25.4355 34.3744C25.5021 34.5121 25.5599 34.6766 25.6088 34.8677C25.6177 34.8899 25.6244 34.9143 25.6288 34.941C25.6377 34.9632 25.6444 34.9877 25.6489 35.0143L25.909 36.0943L24.8423 36.0944L24.6022 35.1211C24.5444 34.8811 24.4866 34.7011 24.4288 34.5811C24.371 34.4611 24.2999 34.3789 24.2154 34.3345C24.131 34.2856 24.0199 34.2612 23.8821 34.2612L23.0754 34.2613L23.0756 36.0946L22.0356 36.0947ZM23.9753 33.3812C24.2065 33.3812 24.382 33.3322 24.502 33.2345C24.622 33.1367 24.682 32.9789 24.6819 32.7611C24.6819 32.5478 24.6108 32.3944 24.4686 32.3011C24.3308 32.2034 24.1285 32.1545 23.8619 32.1545L23.0752 32.1546L23.0753 33.3813L23.9753 33.3812ZM29.058 36.1806C28.5692 36.1807 28.1491 36.0718 27.798 35.8541C27.4513 35.6364 27.1891 35.3364 27.0112 34.9542C26.8334 34.572 26.7445 34.1364 26.7444 33.6475C26.7444 33.1809 26.8377 32.7609 27.0243 32.3875C27.2109 32.0097 27.4776 31.7119 27.8242 31.4941C28.1708 31.2763 28.5708 31.1673 29.0242 31.1673C29.5264 31.1672 29.9597 31.2872 30.3242 31.5272C30.6887 31.7671 30.9443 32.1271 31.091 32.6071L30.051 32.9138C30.0021 32.7716 29.931 32.6427 29.8376 32.5272C29.7443 32.4117 29.6287 32.3206 29.4909 32.2539C29.3532 32.1828 29.1998 32.1473 29.0309 32.1473C28.782 32.1473 28.5665 32.2118 28.3843 32.3407C28.2021 32.4696 28.0621 32.6474 27.9644 32.8741C27.871 33.0963 27.8244 33.3519 27.8244 33.6408C27.8245 33.9519 27.8734 34.2274 27.9712 34.4674C28.069 34.703 28.2112 34.8874 28.3979 35.0207C28.589 35.1496 28.8157 35.214 29.0779 35.214C29.3268 35.2139 29.5335 35.145 29.6979 35.0072C29.8668 34.8694 29.9912 34.6672 30.0712 34.4005L31.1046 34.7737C30.9135 35.2938 30.6513 35.6582 30.318 35.8672C29.9847 36.0761 29.5647 36.1806 29.058 36.1806Z" fill="white"/>
<circle opacity="0.5" cx="15.5339" cy="35.3356" r="0.666667" fill="white"/>
<path d="M32.8672 22.082C32.8672 22.3121 32.6803 22.4989 32.4502 22.4989L19.0479 22.4989L21.752 25.204C21.9146 25.3667 21.9145 25.6302 21.752 25.7929L21.1631 26.3827C21.0004 26.5455 20.736 26.5455 20.5732 26.3827L16.4453 22.2548C16.12 21.9295 16.1202 21.4015 16.4453 21.0761L20.5742 16.9482C20.7369 16.7855 21.0004 16.7855 21.1631 16.9482L21.752 17.537C21.9146 17.6997 21.9146 17.9632 21.752 18.1259L19.0469 20.832L32.4502 20.832C32.6803 20.832 32.8672 21.0188 32.8672 21.2489V22.082Z" fill="url(#paint2_linear_501_91608)"/>
<defs>
<filter id="filter0_f_501_91608" x="24.3685" y="0.667317" width="17.8372" height="17.8353" filterUnits="userSpaceOnUse" color-interpolation-filters="sRGB">
<feFlood flood-opacity="0" result="BackgroundImageFix"/>
<feBlend mode="normal" in="SourceGraphic" in2="BackgroundImageFix" result="shape"/>
<feGaussianBlur stdDeviation="1.33333" result="effect1_foregroundBlur_501_91608"/>
</filter>
<linearGradient id="paint0_linear_501_91608" x1="35.5365" y1="9.00033" x2="20.2031" y2="30.3337" gradientUnits="userSpaceOnUse">
<stop/>
<stop offset="1" stop-opacity="0"/>
</linearGradient>
<linearGradient id="paint1_linear_501_91608" x1="28.8698" y1="14.667" x2="35.2031" y2="9.33366" gradientUnits="userSpaceOnUse">
<stop stop-color="#FDFDFD"/>
<stop offset="1" stop-color="#E4E4E4"/>
</linearGradient>
<linearGradient id="paint2_linear_501_91608" x1="17.6008" y1="20.8919" x2="34.6103" y2="34.4796" gradientUnits="userSpaceOnUse">
<stop stop-color="white"/>
<stop offset="1" stop-color="white" stop-opacity="0.8"/>
</linearGradient>
</defs>
</svg>
