<svg width="49" height="48" viewBox="0 0 49 48" fill="none" xmlns="http://www.w3.org/2000/svg">
<path d="M8.20312 4.00033C8.20312 3.26395 8.80008 2.66699 9.53646 2.66699H27.6508C28.0045 2.66699 28.3436 2.80747 28.5936 3.05752L39.8126 14.2765C40.0626 14.5265 40.2031 14.8657 40.2031 15.2193V44.0003C40.2031 44.7367 39.6062 45.3337 38.8698 45.3337H9.53646C8.80008 45.3337 8.20312 44.7367 8.20312 44.0003V4.00033Z" fill="#584CD0"/>
<path d="M8.20312 4.00033C8.20312 3.26395 8.80008 2.66699 9.53646 2.66699H27.6508C28.0045 2.66699 28.3436 2.80747 28.5936 3.05752L39.8126 14.2765C40.0626 14.5265 40.2031 14.8657 40.2031 15.2193V44.0003C40.2031 44.7367 39.6062 45.3337 38.8698 45.3337H9.53646C8.80008 45.3337 8.20312 44.7367 8.20312 44.0003V4.00033Z" fill="url(#paint0_linear_501_92078)" fill-opacity="0.3" style="mix-blend-mode:overlay"/>
<g opacity="0.3" filter="url(#filter0_f_501_92078)">
<path d="M26.9194 14.3421L28.0677 4.0498L31.0116 10.0221C31.1292 10.2607 31.3154 10.4586 31.5464 10.5905L38.6846 14.6667L28.3923 15.8151C27.5426 15.9099 26.8246 15.1918 26.9194 14.3421Z" fill="black"/>
</g>
<path d="M28.2031 13.3337V2.66699L40.2031 14.667H29.5365C28.8001 14.667 28.2031 14.07 28.2031 13.3337Z" fill="url(#paint1_linear_501_92078)"/>
<g opacity="0.95">
<path fill-rule="evenodd" clip-rule="evenodd" d="M18.2666 20.3555C18.0301 20.3555 17.8241 20.3555 17.6541 20.3693C17.4739 20.3841 17.2918 20.4168 17.1158 20.5065C16.8551 20.6393 16.6432 20.8512 16.5104 21.1119C16.4207 21.2879 16.388 21.47 16.3733 21.6502C16.3594 21.8202 16.3594 22.0262 16.3594 22.2626V29.115C16.3594 29.3514 16.3594 29.5574 16.3733 29.7275C16.388 29.9076 16.4207 30.0897 16.5104 30.2657C16.6432 30.5264 16.8551 30.7383 17.1158 30.8711C17.2918 30.9608 17.4739 30.9935 17.6541 31.0083C17.8241 31.0222 18.0301 31.0221 18.2665 31.0221H26.5046C26.741 31.0221 26.947 31.0222 27.1171 31.0083C27.2972 30.9935 27.4793 30.9608 27.6554 30.8711C27.916 30.7383 28.128 30.5264 28.2608 30.2657C28.3505 30.0897 28.3832 29.9076 28.3979 29.7275C28.4118 29.5574 28.4118 29.3514 28.4118 29.115V22.2627C28.4118 22.0263 28.4118 21.8202 28.3979 21.6502C28.3832 21.47 28.3505 21.2879 28.2608 21.1119C28.128 20.8512 27.916 20.6393 27.6554 20.5065C27.4793 20.4168 27.2972 20.3841 27.1171 20.3693C26.947 20.3555 26.741 20.3555 26.5046 20.3555H18.2666ZM19.5467 22.9181C19.5467 23.2624 19.2676 23.5415 18.9233 23.5415C18.579 23.5415 18.2999 23.2624 18.2999 22.9181C18.2999 22.5738 18.579 22.2947 18.9233 22.2947C19.2676 22.2947 19.5467 22.5738 19.5467 22.9181Z" fill="url(#paint2_linear_501_92078)"/>
<path d="M29.3118 28.7194L30.4062 29.5402C30.4902 29.6032 30.5922 29.6372 30.6972 29.6372H31.3898C31.6576 29.6372 31.8747 29.4201 31.8747 29.1523V22.2259C31.8747 21.9581 31.6576 21.7411 31.3898 21.7411H30.6972C30.5922 21.7411 30.4902 21.7751 30.4062 21.838L29.3118 22.6589V28.7194Z" fill="url(#paint3_linear_501_92078)"/>
</g>
<defs>
<filter id="filter0_f_501_92078" x="24.2435" y="1.38314" width="17.1068" height="17.1068" filterUnits="userSpaceOnUse" color-interpolation-filters="sRGB">
<feFlood flood-opacity="0" result="BackgroundImageFix"/>
<feBlend mode="normal" in="SourceGraphic" in2="BackgroundImageFix" result="shape"/>
<feGaussianBlur stdDeviation="1.33333" result="effect1_foregroundBlur_501_92078"/>
</filter>
<linearGradient id="paint0_linear_501_92078" x1="35.5365" y1="9.00032" x2="20.2031" y2="30.3337" gradientUnits="userSpaceOnUse">
<stop/>
<stop offset="1" stop-opacity="0"/>
</linearGradient>
<linearGradient id="paint1_linear_501_92078" x1="28.8698" y1="14.667" x2="35.2031" y2="9.33366" gradientUnits="userSpaceOnUse">
<stop stop-color="#FDFDFD"/>
<stop offset="1" stop-color="#E4E4E4"/>
</linearGradient>
<linearGradient id="paint2_linear_501_92078" x1="22.877" y1="30.5683" x2="28.4694" y2="13.7925" gradientUnits="userSpaceOnUse">
<stop stop-color="white"/>
<stop offset="1" stop-color="white" stop-opacity="0.8"/>
</linearGradient>
<linearGradient id="paint3_linear_501_92078" x1="22.877" y1="30.5683" x2="28.4694" y2="13.7925" gradientUnits="userSpaceOnUse">
<stop stop-color="white"/>
<stop offset="1" stop-color="white" stop-opacity="0.8"/>
</linearGradient>
</defs>
</svg>
