<svg width="49" height="48" viewBox="0 0 49 48" fill="none" xmlns="http://www.w3.org/2000/svg">
<path d="M8.80469 4.00033C8.80469 3.26395 9.40164 2.66699 10.138 2.66699H28.2524C28.606 2.66699 28.9452 2.80747 29.1952 3.05752L40.4142 14.2765C40.6642 14.5265 40.8047 14.8657 40.8047 15.2193V44.0003C40.8047 44.7367 40.2077 45.3337 39.4714 45.3337H10.138C9.40164 45.3337 8.80469 44.7367 8.80469 44.0003V4.00033Z" fill="#0E90F1"/>
<path d="M8.80469 4.00033C8.80469 3.26395 9.40164 2.66699 10.138 2.66699H28.2524C28.606 2.66699 28.9452 2.80747 29.1952 3.05752L40.4142 14.2765C40.6642 14.5265 40.8047 14.8657 40.8047 15.2193V44.0003C40.8047 44.7367 40.2077 45.3337 39.4714 45.3337H10.138C9.40164 45.3337 8.80469 44.7367 8.80469 44.0003V4.00033Z" fill="url(#paint0_linear_501_91720)" fill-opacity="0.3" style="mix-blend-mode:overlay"/>
<g opacity="0.3" filter="url(#filter0_f_501_91720)">
<path d="M27.6451 14.3626L28.806 3.33398L40.1393 14.6673L29.1107 15.8282C28.2672 15.917 27.5563 15.2061 27.6451 14.3626Z" fill="black"/>
</g>
<path d="M28.8047 13.3337V2.66699L40.8047 14.667H30.138C29.4016 14.667 28.8047 14.07 28.8047 13.3337Z" fill="url(#paint1_linear_501_91720)"/>
<path d="M32.1328 30.4229C32.1328 30.6659 32.1333 30.8781 32.1191 31.0518C32.1045 31.2308 32.0724 31.412 31.9834 31.5869C31.8512 31.8464 31.6394 32.0582 31.3799 32.1904C31.2047 32.2796 31.023 32.3125 30.8438 32.3272C30.6701 32.3413 30.4587 32.3408 30.2158 32.3408H19.292C19.0491 32.3408 18.8377 32.3413 18.6641 32.3272C18.4848 32.3125 18.3031 32.2797 18.1279 32.1904C17.8684 32.0582 17.6576 31.8464 17.5254 31.5869C17.4363 31.4118 17.4033 31.2309 17.3887 31.0518C17.3745 30.8781 17.375 30.6659 17.375 30.4229V23.1436L22.5781 26.7861C23.0283 27.1013 23.3986 27.3615 23.7227 27.5381C24.0573 27.7204 24.3842 27.838 24.7549 27.8379C25.1255 27.8377 25.4517 27.7196 25.7861 27.5371C26.1101 27.3604 26.4806 27.1005 26.9307 26.7852L32.1328 23.1397V30.4229ZM30.2158 20.3408C30.4587 20.3408 30.6701 20.3403 30.8438 20.3545C31.0231 20.3691 31.2046 20.4019 31.3799 20.4912C31.6394 20.6234 31.8512 20.8343 31.9834 21.0938C32.0726 21.2689 32.1045 21.4507 32.1191 21.6299C32.1272 21.7287 32.1295 21.8399 32.1309 21.9619L26.376 25.9941C25.9082 26.3219 25.5897 26.5446 25.3242 26.6895C25.0694 26.8285 24.905 26.872 24.7539 26.8721C24.6029 26.872 24.4392 26.8282 24.1846 26.6895C23.919 26.5447 23.5998 26.3227 23.1318 25.9951L17.375 21.9648C17.3763 21.8416 17.3805 21.7295 17.3887 21.6299C17.4033 21.4506 17.4361 21.269 17.5254 21.0938C17.6576 20.8343 17.8685 20.6234 18.1279 20.4912C18.3032 20.4019 18.4848 20.3691 18.6641 20.3545C18.8377 20.3403 19.0491 20.3408 19.292 20.3408H30.2158Z" fill="url(#paint2_linear_501_91720)"/>
<defs>
<filter id="filter0_f_501_91720" x="24.9701" y="0.667317" width="17.8372" height="17.8353" filterUnits="userSpaceOnUse" color-interpolation-filters="sRGB">
<feFlood flood-opacity="0" result="BackgroundImageFix"/>
<feBlend mode="normal" in="SourceGraphic" in2="BackgroundImageFix" result="shape"/>
<feGaussianBlur stdDeviation="1.33333" result="effect1_foregroundBlur_501_91720"/>
</filter>
<linearGradient id="paint0_linear_501_91720" x1="36.138" y1="9.00033" x2="20.8047" y2="30.3337" gradientUnits="userSpaceOnUse">
<stop/>
<stop offset="1" stop-opacity="0"/>
</linearGradient>
<linearGradient id="paint1_linear_501_91720" x1="29.4714" y1="14.667" x2="35.8047" y2="9.33366" gradientUnits="userSpaceOnUse">
<stop stop-color="#FDFDFD"/>
<stop offset="1" stop-color="#E4E4E4"/>
</linearGradient>
<linearGradient id="paint2_linear_501_91720" x1="23.5744" y1="31.3332" x2="30.1998" y2="13.7695" gradientUnits="userSpaceOnUse">
<stop stop-color="white"/>
<stop offset="1" stop-color="white" stop-opacity="0.8"/>
</linearGradient>
</defs>
</svg>
