<svg width="49" height="48" viewBox="0 0 49 48" fill="none" xmlns="http://www.w3.org/2000/svg">
<path d="M8.40625 4.00033C8.40625 3.26395 9.0032 2.66699 9.73958 2.66699H27.854C28.2076 2.66699 28.5467 2.80747 28.7968 3.05752L40.0157 14.2765C40.2658 14.5265 40.4062 14.8657 40.4062 15.2193V44.0003C40.4062 44.7367 39.8093 45.3337 39.0729 45.3337H9.73958C9.0032 45.3337 8.40625 44.7367 8.40625 44.0003V4.00033Z" fill="#0E90F1"/>
<path d="M8.40625 4.00033C8.40625 3.26395 9.0032 2.66699 9.73958 2.66699H27.854C28.2076 2.66699 28.5467 2.80747 28.7968 3.05752L40.0157 14.2765C40.2658 14.5265 40.4062 14.8657 40.4062 15.2193V44.0003C40.4062 44.7367 39.8093 45.3337 39.0729 45.3337H9.73958C9.0032 45.3337 8.40625 44.7367 8.40625 44.0003V4.00033Z" fill="url(#paint0_linear_501_92033)" fill-opacity="0.3" style="mix-blend-mode:overlay"/>
<g opacity="0.3" filter="url(#filter0_f_501_92033)">
<path d="M27.2397 14.3421L28.388 4.0498L31.332 10.0221C31.4495 10.2607 31.6358 10.4586 31.8667 10.5905L39.0049 14.6667L28.7126 15.8151C27.863 15.9099 27.1449 15.1918 27.2397 14.3421Z" fill="black"/>
</g>
<path d="M28.4062 13.3337V2.66699L40.4062 14.667H29.7396C29.0032 14.667 28.4062 14.07 28.4062 13.3337Z" fill="url(#paint1_linear_501_92033)"/>
<path d="M15.8052 36.0942L15.8046 31.2609L17.6113 31.2607C18.1135 31.2606 18.5469 31.3517 18.9113 31.5339C19.2802 31.7161 19.5625 31.9827 19.7581 32.3338C19.9537 32.6849 20.0515 33.1093 20.0516 33.6071C20.0517 34.4471 19.8251 35.0716 19.3718 35.4805C18.9229 35.8894 18.3052 36.0939 17.5185 36.094L15.8052 36.0942ZM17.4117 35.2007C17.9362 35.2007 18.3251 35.0784 18.5784 34.8339C18.8361 34.5894 18.965 34.1872 18.9649 33.6272C18.9649 33.1828 18.8381 32.825 18.5848 32.5539C18.3359 32.2828 17.9759 32.1473 17.5047 32.1474L16.8447 32.1474L16.8451 35.2008L17.4117 35.2007ZM21.1776 36.0936L21.177 31.2603L22.9104 31.2601L23.9441 34.9067L23.9774 34.9067L25.0437 31.2599L26.7504 31.2597L26.7509 36.093L25.7109 36.0931L25.7105 32.2665L25.6705 32.2665L24.5042 36.0933L23.3909 36.0934L22.2571 32.2669L22.2171 32.2669L22.2176 36.0935L21.1776 36.0936ZM30.0588 36.186C29.6055 36.186 29.2144 36.0816 28.8855 35.8728C28.561 35.6639 28.3121 35.3684 28.1387 34.9862C27.9653 34.604 27.8786 34.1596 27.8785 33.6529C27.8785 33.1373 27.9784 32.6929 28.1784 32.3195C28.3828 31.9417 28.6583 31.655 29.005 31.4594C29.3561 31.2639 29.7516 31.166 30.1916 31.166C30.7027 31.1659 31.1294 31.2837 31.4716 31.5192C31.8139 31.7503 32.0562 32.088 32.1984 32.5324L31.1718 32.9125C31.0918 32.6681 30.9651 32.4726 30.7917 32.3259C30.6184 32.1793 30.4162 32.106 30.185 32.106C29.9406 32.106 29.7251 32.1727 29.5384 32.3061C29.3562 32.4394 29.214 32.6239 29.1118 32.8594C29.014 33.095 28.9652 33.3595 28.9652 33.6528C28.9652 33.955 29.0075 34.2239 29.092 34.4594C29.1809 34.695 29.3187 34.8816 29.5054 35.0194C29.6965 35.1572 29.9387 35.226 30.2321 35.226C30.4498 35.226 30.6343 35.1904 30.7854 35.1193C30.9409 35.0481 31.0565 34.9503 31.132 34.8259C31.2076 34.697 31.2453 34.5525 31.2453 34.3925L31.2453 34.2725L30.0653 34.2727L30.0652 33.5193L32.2785 33.5191L32.2788 36.0924L31.4188 36.0925L31.3787 35.3659L31.3387 35.3659C31.2277 35.6503 31.0632 35.8592 30.8455 35.9926C30.6277 36.1215 30.3655 36.186 30.0588 36.186Z" fill="white"/>
<circle opacity="0.5" cx="13.737" cy="35.3346" r="0.666667" fill="white"/>
<path d="M27.627 15.334C27.9838 15.3339 28.1625 15.3339 28.3262 15.3809C28.4712 15.4226 28.6077 15.4913 28.7275 15.583C28.8627 15.6865 28.9694 15.8296 29.1816 16.1162L32.2861 20.3096C32.4269 20.4997 32.4978 20.5947 32.5479 20.6992C32.5922 20.7919 32.624 20.8903 32.6436 20.9912C32.6656 21.105 32.666 21.2242 32.666 21.4609V22.0742C32.6661 22.7512 32.6659 23.09 32.5342 23.3486C32.4183 23.5761 32.2333 23.761 32.0059 23.877C31.7472 24.0088 31.4085 24.0087 30.7314 24.0088L17.6689 24.0107C16.9919 24.0108 16.6532 24.0106 16.3945 23.8789C16.1671 23.763 15.9822 23.578 15.8662 23.3506C15.7344 23.092 15.7344 22.7533 15.7344 22.0762V21.4629C15.7343 21.2261 15.7348 21.107 15.7568 20.9932C15.7764 20.8923 15.8082 20.7939 15.8525 20.7012C15.9025 20.5967 15.9735 20.5017 16.1143 20.3115L19.2168 16.1182C19.4291 15.8313 19.5358 15.6876 19.6709 15.584C19.7907 15.4922 19.9272 15.4236 20.0723 15.3818C20.2359 15.3348 20.4146 15.334 20.7715 15.334H27.627ZM17.8545 21.6836C17.5209 21.6839 17.2501 21.9544 17.25 22.2881C17.2501 22.6218 17.5208 22.8924 17.8545 22.8926L30.5527 22.8906C30.8866 22.8905 31.1582 22.62 31.1582 22.2861C31.1579 21.9526 30.8863 21.6818 30.5527 21.6816L17.8545 21.6836Z" fill="url(#paint2_linear_501_92033)"/>
<defs>
<filter id="filter0_f_501_92033" x="24.5638" y="1.38314" width="17.1068" height="17.1068" filterUnits="userSpaceOnUse" color-interpolation-filters="sRGB">
<feFlood flood-opacity="0" result="BackgroundImageFix"/>
<feBlend mode="normal" in="SourceGraphic" in2="BackgroundImageFix" result="shape"/>
<feGaussianBlur stdDeviation="1.33333" result="effect1_foregroundBlur_501_92033"/>
</filter>
<linearGradient id="paint0_linear_501_92033" x1="35.7396" y1="9.00032" x2="20.4062" y2="30.3337" gradientUnits="userSpaceOnUse">
<stop/>
<stop offset="1" stop-opacity="0"/>
</linearGradient>
<linearGradient id="paint1_linear_501_92033" x1="29.0729" y1="14.667" x2="35.4062" y2="9.33366" gradientUnits="userSpaceOnUse">
<stop stop-color="#FDFDFD"/>
<stop offset="1" stop-color="#E4E4E4"/>
</linearGradient>
<linearGradient id="paint2_linear_501_92033" x1="22.9654" y1="23.3627" x2="26.7534" y2="9.76424" gradientUnits="userSpaceOnUse">
<stop stop-color="white"/>
<stop offset="1" stop-color="white" stop-opacity="0.8"/>
</linearGradient>
</defs>
</svg>
