<svg width="49" height="48" viewBox="0 0 49 48" fill="none" xmlns="http://www.w3.org/2000/svg">
<path d="M8.80469 4.00033C8.80469 3.26395 9.40164 2.66699 10.138 2.66699H28.2524C28.606 2.66699 28.9452 2.80747 29.1952 3.05752L40.4142 14.2765C40.6642 14.5265 40.8047 14.8657 40.8047 15.2193V44.0003C40.8047 44.7367 40.2077 45.3337 39.4714 45.3337H10.138C9.40164 45.3337 8.80469 44.7367 8.80469 44.0003V4.00033Z" fill="#2085ED"/>
<path d="M8.80469 4.00033C8.80469 3.26395 9.40164 2.66699 10.138 2.66699H28.2524C28.606 2.66699 28.9452 2.80747 29.1952 3.05752L40.4142 14.2765C40.6642 14.5265 40.8047 14.8657 40.8047 15.2193V44.0003C40.8047 44.7367 40.2077 45.3337 39.4714 45.3337H10.138C9.40164 45.3337 8.80469 44.7367 8.80469 44.0003V4.00033Z" fill="url(#paint0_linear_501_92223)" fill-opacity="0.3" style="mix-blend-mode:overlay"/>
<g opacity="0.3" filter="url(#filter0_f_501_92223)">
<path d="M27.7944 14.3421L28.9427 4.0498L31.8866 10.0221C32.0042 10.2607 32.1904 10.4586 32.4214 10.5905L39.5596 14.6667L29.2673 15.8151C28.4176 15.9099 27.6996 15.1918 27.7944 14.3421Z" fill="black"/>
</g>
<path d="M28.8047 13.3337V2.66699L40.8047 14.667H30.138C29.4016 14.667 28.8047 14.07 28.8047 13.3337Z" fill="url(#paint1_linear_501_92223)"/>
<path opacity="0.95" d="M24.8437 27.0693C24.981 27.0693 25.0501 27.069 25.1044 27.0947C25.1523 27.1175 25.1926 27.1546 25.2197 27.2002C25.2502 27.2519 25.256 27.3204 25.2685 27.457L25.5976 31.0684H28.2626C28.7042 31.0684 29.0623 31.4265 29.0624 31.8682C29.0625 32.3099 28.7044 32.6679 28.2626 32.668L21.33 32.6689C20.8882 32.669 20.5293 32.3109 20.5292 31.8691C20.5293 31.4276 20.8875 31.0696 21.329 31.0693L23.999 31.0684L24.3281 27.457C24.3405 27.3204 24.3463 27.2519 24.3769 27.2002C24.4039 27.1546 24.4443 27.1175 24.4921 27.0947C24.5464 27.069 24.6156 27.0694 24.7529 27.0693H24.8437ZM29.4872 19.335C29.8883 19.3349 30.0887 19.3357 30.249 19.4102C30.3901 19.4757 30.5095 19.5807 30.5917 19.7129C30.685 19.863 30.7093 20.0626 30.7577 20.4609L31.289 24.834C31.3492 25.3295 31.3797 25.5774 31.3017 25.7695C31.233 25.9383 31.1083 26.0784 30.9491 26.167C30.7678 26.2678 30.518 26.2685 30.0185 26.2686L19.5761 26.2695C19.0768 26.2696 18.8267 26.2696 18.6454 26.1689C18.4863 26.0805 18.3616 25.9401 18.2929 25.7715C18.2146 25.5793 18.2454 25.3308 18.3056 24.835L18.8359 20.4619C18.8842 20.0639 18.9087 19.865 19.0019 19.7148C19.084 19.5826 19.2026 19.4768 19.3437 19.4111C19.504 19.3366 19.7051 19.336 20.1064 19.3359L29.4872 19.335Z" fill="url(#paint2_linear_501_92223)"/>
<defs>
<filter id="filter0_f_501_92223" x="25.1185" y="1.38314" width="17.1068" height="17.1068" filterUnits="userSpaceOnUse" color-interpolation-filters="sRGB">
<feFlood flood-opacity="0" result="BackgroundImageFix"/>
<feBlend mode="normal" in="SourceGraphic" in2="BackgroundImageFix" result="shape"/>
<feGaussianBlur stdDeviation="1.33333" result="effect1_foregroundBlur_501_92223"/>
</filter>
<linearGradient id="paint0_linear_501_92223" x1="36.138" y1="9.00033" x2="20.8047" y2="30.3337" gradientUnits="userSpaceOnUse">
<stop/>
<stop offset="1" stop-opacity="0"/>
</linearGradient>
<linearGradient id="paint1_linear_501_92223" x1="29.4714" y1="14.667" x2="35.8047" y2="9.33366" gradientUnits="userSpaceOnUse">
<stop stop-color="#FDFDFD"/>
<stop offset="1" stop-color="#E4E4E4"/>
</linearGradient>
<linearGradient id="paint2_linear_501_92223" x1="23.7501" y1="32.1016" x2="32.9967" y2="13.3634" gradientUnits="userSpaceOnUse">
<stop stop-color="white"/>
<stop offset="1" stop-color="white" stop-opacity="0.9"/>
</linearGradient>
</defs>
</svg>
