<svg width="49" height="48" viewBox="0 0 49 48" fill="none" xmlns="http://www.w3.org/2000/svg">
<path d="M8.60156 4.00033C8.60156 3.26395 9.19852 2.66699 9.9349 2.66699H28.0493C28.4029 2.66699 28.742 2.80747 28.9921 3.05752L40.211 14.2765C40.4611 14.5265 40.6016 14.8657 40.6016 15.2193V44.0003C40.6016 44.7367 40.0046 45.3337 39.2682 45.3337H9.93489C9.19851 45.3337 8.60156 44.7367 8.60156 44.0003V4.00033Z" fill="#0E90F1"/>
<path d="M8.60156 4.00033C8.60156 3.26395 9.19852 2.66699 9.9349 2.66699H28.0493C28.4029 2.66699 28.742 2.80747 28.9921 3.05752L40.211 14.2765C40.4611 14.5265 40.6016 14.8657 40.6016 15.2193V44.0003C40.6016 44.7367 40.0046 45.3337 39.2682 45.3337H9.93489C9.19851 45.3337 8.60156 44.7367 8.60156 44.0003V4.00033Z" fill="url(#paint0_linear_501_91675)" fill-opacity="0.3" style="mix-blend-mode:overlay"/>
<g opacity="0.3" filter="url(#filter0_f_501_91675)">
<path d="M27.442 14.3626L28.6029 3.33398L39.9362 14.6673L28.9075 15.8282C28.0641 15.917 27.3532 15.2061 27.442 14.3626Z" fill="black"/>
</g>
<path d="M28.6016 13.3337V2.66699L40.6016 14.667H29.9349C29.1985 14.667 28.6016 14.07 28.6016 13.3337Z" fill="url(#paint1_linear_501_91675)"/>
<path d="M31.1006 31.9766C31.1005 32.7258 30.4923 33.3328 29.7432 33.333H19.2939C18.5448 33.3328 17.9376 32.7258 17.9375 31.9766V24.4053H31.1006V31.9766ZM28.5879 30.2197C28.2548 30.2197 27.9844 30.4901 27.9844 30.8232C27.9846 31.1562 28.2549 31.4258 28.5879 31.4258C28.9207 31.4256 29.1902 31.156 29.1904 30.8232C29.1904 30.4903 28.9208 30.2199 28.5879 30.2197ZM28.5938 20C28.856 20.0001 29.0684 20.2123 29.0684 20.4746V20.8486H29.7432C30.4924 20.8489 31.1005 21.4568 31.1006 22.2061V23.4561H17.9375V22.2061C17.9376 21.4568 18.5447 20.8489 19.2939 20.8486H19.9785V20.4746C19.9785 20.2123 20.1908 20 20.4531 20C20.7154 20.0001 20.9277 20.2123 20.9277 20.4746V20.8486H28.1191V20.4746C28.1191 20.2123 28.3314 20 28.5938 20Z" fill="url(#paint2_linear_501_91675)"/>
<defs>
<filter id="filter0_f_501_91675" x="24.7669" y="0.667317" width="17.8372" height="17.8353" filterUnits="userSpaceOnUse" color-interpolation-filters="sRGB">
<feFlood flood-opacity="0" result="BackgroundImageFix"/>
<feBlend mode="normal" in="SourceGraphic" in2="BackgroundImageFix" result="shape"/>
<feGaussianBlur stdDeviation="1.33333" result="effect1_foregroundBlur_501_91675"/>
</filter>
<linearGradient id="paint0_linear_501_91675" x1="35.9349" y1="9.00033" x2="20.6016" y2="30.3337" gradientUnits="userSpaceOnUse">
<stop/>
<stop offset="1" stop-opacity="0"/>
</linearGradient>
<linearGradient id="paint1_linear_501_91675" x1="29.2682" y1="14.667" x2="35.6016" y2="9.33366" gradientUnits="userSpaceOnUse">
<stop stop-color="#FDFDFD"/>
<stop offset="1" stop-color="#E4E4E4"/>
</linearGradient>
<linearGradient id="paint2_linear_501_91675" x1="23.467" y1="32.2136" x2="32.0474" y2="13.9538" gradientUnits="userSpaceOnUse">
<stop stop-color="white"/>
<stop offset="1" stop-color="white" stop-opacity="0.8"/>
</linearGradient>
</defs>
</svg>
