<svg width="48" height="48" viewBox="0 0 48 48" fill="none" xmlns="http://www.w3.org/2000/svg">
<path d="M8 4.00033C8 3.26395 8.59695 2.66699 9.33333 2.66699H27.4477C27.8013 2.66699 28.1405 2.80747 28.3905 3.05752L39.6095 14.2765C39.8595 14.5265 40 14.8657 40 15.2193V44.0003C40 44.7367 39.403 45.3337 38.6667 45.3337H9.33333C8.59695 45.3337 8 44.7367 8 44.0003V4.00033Z" fill="#2D5BB7"/>
<path d="M8 4.00033C8 3.26395 8.59695 2.66699 9.33333 2.66699H27.4477C27.8013 2.66699 28.1405 2.80747 28.3905 3.05752L39.6095 14.2765C39.8595 14.5265 40 14.8657 40 15.2193V44.0003C40 44.7367 39.403 45.3337 38.6667 45.3337H9.33333C8.59695 45.3337 8 44.7367 8 44.0003V4.00033Z" fill="url(#paint0_linear_501_91406)" fill-opacity="0.3" style="mix-blend-mode:overlay"/>
<g opacity="0.3" filter="url(#filter0_f_501_91406)">
<path d="M26.8404 14.3626L28.0013 3.33398L39.3346 14.6673L28.306 15.8282C27.4625 15.917 26.7516 15.2061 26.8404 14.3626Z" fill="black"/>
</g>
<path d="M28 13.3337V2.66699L40 14.667H29.3333C28.597 14.667 28 14.07 28 13.3337Z" fill="url(#paint1_linear_501_91406)"/>
<path d="M30.2715 23.3215C31.2279 23.3214 32.0037 24.0965 32.0039 25.0529C32.004 26.0093 31.2289 26.7851 30.2725 26.7853C29.3161 26.7854 28.5403 26.0102 28.54 25.0539C28.5399 24.0975 29.3152 23.3218 30.2715 23.3215ZM27.2617 17.3674C27.3544 17.3673 27.401 17.367 27.4365 17.3849C27.4679 17.4009 27.4938 17.4268 27.5098 17.4582C27.5279 17.4938 27.5283 17.5407 27.5283 17.634V18.1008C27.5283 18.1936 27.5278 18.24 27.5098 18.2756C27.4938 18.3068 27.4687 18.3328 27.4375 18.3488C27.4019 18.367 27.3549 18.3673 27.2617 18.3674H24.208C24.0135 18.3674 23.8975 18.3682 23.8115 18.3752C23.7862 18.3772 23.7677 18.3789 23.7549 18.381C23.7538 18.3812 23.7563 18.3814 23.7451 18.3849C23.7409 18.3863 23.721 18.3945 23.7168 18.3967C23.7067 18.4021 23.712 18.3981 23.71 18.3996C23.6962 18.4096 23.6839 18.422 23.6738 18.4357C23.6724 18.4376 23.6763 18.4325 23.6709 18.4426C23.6687 18.4468 23.6605 18.4668 23.6592 18.4709C23.6557 18.482 23.6555 18.4795 23.6553 18.4806C23.6532 18.4934 23.6515 18.512 23.6494 18.5373C23.6424 18.6233 23.6416 18.7393 23.6416 18.9338L23.6426 23.9865C23.6426 24.1814 23.6424 24.2979 23.6494 24.384C23.6515 24.4094 23.6541 24.4278 23.6563 24.4406C23.6564 24.4412 23.6559 24.4399 23.6592 24.4504C23.6607 24.4549 23.67 24.4752 23.6719 24.4787C23.6773 24.4888 23.6731 24.4831 23.6748 24.4855C23.6848 24.4991 23.6973 24.5107 23.7109 24.5207C23.7113 24.5206 23.7127 24.5214 23.7168 24.5236C23.7204 24.5255 23.7422 24.5351 23.7461 24.5363C23.757 24.5397 23.7548 24.539 23.7559 24.5392C23.7686 24.5413 23.7866 24.544 23.8115 24.5461C23.8976 24.5531 24.0141 24.5529 24.209 24.5529H27.2617C27.355 24.5529 27.4019 24.5533 27.4375 24.5715C27.4688 24.5874 27.4948 24.6124 27.5107 24.6437C27.5289 24.6794 27.5293 24.7262 27.5293 24.8195V25.2863C27.5293 25.3796 27.5289 25.4264 27.5107 25.4621C27.4948 25.4934 27.4688 25.5184 27.4375 25.5343C27.4019 25.5524 27.3556 25.5529 27.2627 25.5529H24.1914C24.0199 25.5529 23.8622 25.5529 23.7305 25.5422C23.5884 25.5306 23.4328 25.5041 23.2793 25.426C23.0599 25.3141 22.8814 25.1356 22.7695 24.9162C22.6914 24.7627 22.6649 24.607 22.6533 24.465C22.6426 24.3333 22.6426 24.1756 22.6426 24.0041V21.8693H20.7598C20.6665 21.8693 20.6196 21.8699 20.584 21.8517C20.5527 21.8358 20.5277 21.8098 20.5117 21.7785C20.4936 21.7428 20.4932 21.6961 20.4932 21.6027V21.1359C20.4932 21.0427 20.4936 20.9958 20.5117 20.9601C20.5277 20.929 20.5529 20.9038 20.584 20.8879C20.6196 20.8697 20.6665 20.8693 20.7598 20.8693H22.6416V18.9172C22.6416 18.7455 22.6416 18.587 22.6523 18.4552C22.664 18.3133 22.6904 18.1575 22.7686 18.0041C22.8804 17.7847 23.0589 17.6061 23.2783 17.4943C23.4318 17.4161 23.5875 17.3897 23.7295 17.3781C23.8612 17.3673 24.0189 17.3674 24.1904 17.3674H27.2617ZM18.9658 19.6554C19.1966 19.6554 19.3122 19.6556 19.4004 19.7004C19.4781 19.7399 19.5415 19.8034 19.5811 19.881C19.626 19.9693 19.626 20.0848 19.626 20.3156V22.6095C19.626 22.8407 19.626 22.9568 19.5811 23.0451C19.5416 23.1225 19.4787 23.1852 19.4014 23.2248C19.3131 23.2698 19.197 23.2707 18.9658 23.2707H16.6719C16.4411 23.2707 16.3255 23.2706 16.2373 23.2258C16.1596 23.1862 16.0962 23.1227 16.0566 23.0451C16.0118 22.9569 16.0117 22.8413 16.0117 22.6105V20.3166C16.0117 20.0854 16.0117 19.9693 16.0566 19.881C16.0961 19.8037 16.159 19.7409 16.2363 19.7013C16.3246 19.6563 16.4407 19.6564 16.6719 19.6564L18.9658 19.6554ZM30.1602 16.0168C30.2293 15.9944 30.3039 15.9944 30.373 16.0168C30.452 16.0424 30.5212 16.1112 30.6582 16.2482L31.8857 17.4758C32.0227 17.6127 32.0915 17.681 32.1172 17.7599C32.1398 17.8294 32.1397 17.9044 32.1172 17.9738C32.0915 18.0528 32.0226 18.1211 31.8857 18.258L30.6582 19.4865C30.5215 19.6232 30.4529 19.6913 30.374 19.717C30.3045 19.7396 30.2296 19.7395 30.1602 19.717C30.0813 19.6913 30.0127 19.6232 29.876 19.4865L28.6475 18.259C28.5108 18.1223 28.4428 18.0535 28.417 17.9748C28.3944 17.9054 28.3945 17.8303 28.417 17.7609C28.4426 17.6819 28.5105 17.6127 28.6475 17.4758L29.875 16.2482C30.012 16.1112 30.0812 16.0424 30.1602 16.0168Z" fill="url(#paint2_linear_501_91406)"/>
<path d="M16.0885 36.096L14.4346 31.2629L15.5279 31.2628L16.755 35.096L16.7883 35.096L18.0546 31.2625L19.1346 31.2624L17.4551 36.0959L16.0885 36.096ZM20.1099 36.0956L20.1093 31.2623L21.1427 31.2621L21.1432 36.0955L20.1099 36.0956ZM24.2868 36.1885C23.7891 36.1885 23.3557 36.073 22.9868 35.8419C22.6179 35.6109 22.3845 35.2842 22.2867 34.862L23.3067 34.5352C23.3645 34.7752 23.4778 34.9686 23.6467 35.1152C23.8156 35.2574 24.0356 35.3285 24.3068 35.3285C24.4712 35.3285 24.6156 35.3062 24.7401 35.2618C24.8645 35.2129 24.9601 35.1484 25.0267 35.0684C25.0934 34.9839 25.1267 34.8906 25.1267 34.7884C25.1267 34.6639 25.1 34.5684 25.0467 34.5017C24.9933 34.4306 24.9089 34.3706 24.7933 34.3218C24.6822 34.2729 24.5 34.2085 24.2466 34.1285L23.4066 33.8686C23.0244 33.7531 22.7621 33.5864 22.6199 33.3687C22.4776 33.1509 22.4087 32.8865 22.4131 32.5753C22.4175 32.3398 22.4842 32.1153 22.613 31.902C22.7464 31.6886 22.9486 31.5131 23.2197 31.3753C23.4952 31.2374 23.8374 31.1685 24.2463 31.1685C24.5396 31.1684 24.813 31.2173 25.0663 31.3151C25.3241 31.4128 25.5397 31.5617 25.713 31.7617C25.8908 31.9616 26.0086 32.2038 26.0664 32.4883L25.0131 32.7284C24.9642 32.5151 24.8686 32.3462 24.7264 32.2218C24.5842 32.0929 24.4064 32.0285 24.1931 32.0285C24.0419 32.0285 23.9131 32.053 23.8064 32.1019C23.6997 32.1508 23.6175 32.2174 23.5598 32.3019C23.5064 32.3819 23.4798 32.4686 23.4798 32.5619C23.4798 32.6997 23.542 32.8152 23.6665 32.9085C23.7909 33.0019 23.9998 33.0907 24.2932 33.1751L25.1265 33.415C25.3754 33.4861 25.5755 33.5728 25.7266 33.675C25.8777 33.7727 25.9933 33.9083 26.0733 34.0816C26.1533 34.2505 26.1933 34.4727 26.1934 34.7483C26.1934 35.0149 26.1112 35.2594 25.9468 35.4816C25.7868 35.6994 25.5624 35.8728 25.2735 36.0017C24.9846 36.1262 24.6557 36.1884 24.2868 36.1885ZM27.339 36.0948L27.3385 31.2615L28.3718 31.2614L28.3724 36.0947L27.339 36.0948ZM31.7827 36.1943C31.3027 36.1944 30.8893 36.0855 30.5426 35.8678C30.2004 35.6456 29.9404 35.3412 29.7625 34.9545C29.5847 34.5679 29.4958 34.1323 29.4957 33.6479C29.4957 33.1857 29.589 32.7657 29.7756 32.3879C29.9667 32.0101 30.2355 31.7123 30.5822 31.4945C30.9288 31.2766 31.3288 31.1677 31.7821 31.1677C32.2399 31.1676 32.6421 31.2765 32.9888 31.4942C33.34 31.7119 33.6089 32.0097 33.7956 32.3874C33.9868 32.7652 34.0824 33.1852 34.0824 33.6474C34.0825 34.1318 33.9914 34.5674 33.8092 34.9541C33.6315 35.3408 33.3693 35.6453 33.0226 35.8675C32.676 36.0853 32.2627 36.1943 31.7827 36.1943ZM31.7826 35.241C32.0315 35.241 32.247 35.1743 32.4292 35.0409C32.6114 34.9031 32.7492 34.7142 32.8425 34.4742C32.9402 34.2342 32.9891 33.9609 32.9891 33.6542C32.989 33.3609 32.9401 33.0986 32.8423 32.8675C32.749 32.6364 32.6112 32.4542 32.4289 32.3209C32.2467 32.1876 32.0311 32.121 31.7822 32.121C31.5378 32.121 31.3245 32.1877 31.1423 32.3211C30.9645 32.4544 30.8267 32.6366 30.729 32.8678C30.6312 33.0989 30.5824 33.3611 30.5824 33.6545C30.5824 33.9611 30.6314 34.2344 30.7292 34.4744C30.827 34.7144 30.9648 34.9033 31.1426 35.0411C31.3248 35.1744 31.5381 35.241 31.7826 35.241Z" fill="white"/>
<circle opacity="0.5" cx="12.6667" cy="35.3356" r="0.666667" fill="white"/>
<defs>
<filter id="filter0_f_501_91406" x="24.1654" y="0.667317" width="17.8372" height="17.8353" filterUnits="userSpaceOnUse" color-interpolation-filters="sRGB">
<feFlood flood-opacity="0" result="BackgroundImageFix"/>
<feBlend mode="normal" in="SourceGraphic" in2="BackgroundImageFix" result="shape"/>
<feGaussianBlur stdDeviation="1.33333" result="effect1_foregroundBlur_501_91406"/>
</filter>
<linearGradient id="paint0_linear_501_91406" x1="35.3333" y1="9.00033" x2="20" y2="30.3337" gradientUnits="userSpaceOnUse">
<stop/>
<stop offset="1" stop-opacity="0"/>
</linearGradient>
<linearGradient id="paint1_linear_501_91406" x1="28.6667" y1="14.667" x2="35" y2="9.33366" gradientUnits="userSpaceOnUse">
<stop stop-color="#FDFDFD"/>
<stop offset="1" stop-color="#E4E4E4"/>
</linearGradient>
<linearGradient id="paint2_linear_501_91406" x1="22.7843" y1="25.8797" x2="27.8888" y2="9.43176" gradientUnits="userSpaceOnUse">
<stop stop-color="white"/>
<stop offset="1" stop-color="white" stop-opacity="0.8"/>
</linearGradient>
</defs>
</svg>
