<svg width="49" height="48" viewBox="0 0 49 48" fill="none" xmlns="http://www.w3.org/2000/svg">
<path d="M8.39844 4.00033C8.39844 3.26395 8.99539 2.66699 9.73177 2.66699H27.8462C28.1998 2.66699 28.5389 2.80747 28.789 3.05752L40.0079 14.2765C40.258 14.5265 40.3984 14.8657 40.3984 15.2193V44.0003C40.3984 44.7367 39.8015 45.3337 39.0651 45.3337H9.73177C8.99539 45.3337 8.39844 44.7367 8.39844 44.0003V4.00033Z" fill="#1FB03F"/>
<path d="M8.39844 4.00033C8.39844 3.26395 8.99539 2.66699 9.73177 2.66699H27.8462C28.1998 2.66699 28.5389 2.80747 28.789 3.05752L40.0079 14.2765C40.258 14.5265 40.3984 14.8657 40.3984 15.2193V44.0003C40.3984 44.7367 39.8015 45.3337 39.0651 45.3337H9.73177C8.99539 45.3337 8.39844 44.7367 8.39844 44.0003V4.00033Z" fill="url(#paint0_linear_501_92292)" fill-opacity="0.3" style="mix-blend-mode:overlay"/>
<g opacity="0.3" filter="url(#filter0_f_501_92292)">
<path d="M27.31 14.3421L28.4583 4.0498L31.4023 10.0221C31.5198 10.2607 31.7061 10.4586 31.937 10.5905L39.0752 14.6667L28.7829 15.8151C27.9333 15.9099 27.2152 15.1918 27.31 14.3421Z" fill="black"/>
</g>
<path d="M28.3984 13.3337V2.66699L40.3984 14.667H29.7318C28.9954 14.667 28.3984 14.07 28.3984 13.3337Z" fill="url(#paint1_linear_501_92292)"/>
<path d="M18.6689 29.333C19.0423 29.333 19.2295 29.3326 19.3721 29.4053C19.4973 29.4691 19.5992 29.5711 19.6631 29.6963C19.7358 29.8389 19.7363 30.026 19.7363 30.3994V32.2656C19.7364 32.6389 19.7366 32.8262 19.6641 32.9688C19.6002 33.0942 19.4975 33.1958 19.3721 33.2598C19.2295 33.3324 19.0431 33.333 18.6699 33.333H18.1367C17.7639 33.3331 17.5771 33.3332 17.4346 33.2607C17.3091 33.1968 17.2065 33.0942 17.1426 32.9688C17.0701 32.8262 17.0704 32.6395 17.0703 32.2666V30.3994C17.0703 30.0264 17.0701 29.8398 17.1426 29.6973C17.2065 29.5719 17.3082 29.4692 17.4336 29.4053C17.5762 29.3326 17.7634 29.3331 18.1367 29.333H18.6689ZM22.6689 25.333C23.0419 25.333 23.2285 25.3328 23.3711 25.4053C23.4965 25.4691 23.5992 25.571 23.6631 25.6963C23.7358 25.8389 23.7353 26.026 23.7354 26.3994L23.7363 32.2656C23.7364 32.6389 23.7366 32.8262 23.6641 32.9688C23.6002 33.0942 23.4975 33.1958 23.3721 33.2598C23.2295 33.3324 23.0431 33.333 22.6699 33.333H22.1367C21.7639 33.3331 21.5771 33.3332 21.4346 33.2607C21.3091 33.1968 21.2065 33.0942 21.1426 32.9688C21.0701 32.8262 21.0704 32.6395 21.0703 32.2666L21.0693 26.3994C21.0693 26.0263 21.07 25.8398 21.1426 25.6973C21.2065 25.5718 21.3082 25.4692 21.4336 25.4053C21.5761 25.3327 21.7628 25.3331 22.1357 25.333H22.6689ZM26.668 20.001C27.0413 20.0009 27.2285 20.0006 27.3711 20.0732C27.4964 20.1371 27.5982 20.239 27.6621 20.3643C27.7348 20.5069 27.7353 20.694 27.7354 21.0674L27.7363 32.2656C27.7364 32.6389 27.7366 32.8262 27.6641 32.9688C27.6002 33.0942 27.4975 33.1958 27.3721 33.2598C27.2295 33.3324 27.0431 33.333 26.6699 33.333H26.1367C25.7639 33.3331 25.5771 33.3332 25.4346 33.2607C25.3091 33.1968 25.2065 33.0942 25.1426 32.9688C25.0701 32.8262 25.0704 32.6395 25.0703 32.2666L25.0693 21.0674C25.0693 20.6944 25.0691 20.5078 25.1416 20.3652C25.2055 20.2398 25.3072 20.1372 25.4326 20.0732C25.5752 20.0006 25.7624 20.001 26.1357 20.001H26.668ZM30.6689 22.666C31.0418 22.666 31.2286 22.6658 31.3711 22.7383C31.4965 22.8022 31.5982 22.9048 31.6621 23.0303C31.7348 23.1728 31.7353 23.3592 31.7354 23.7324L31.7363 32.2656C31.7364 32.6389 31.7366 32.8262 31.6641 32.9688C31.6002 33.0942 31.4975 33.1958 31.3721 33.2598C31.2295 33.3324 31.0431 33.333 30.6699 33.333H30.1367C29.7639 33.3331 29.5771 33.3332 29.4346 33.2607C29.3091 33.1968 29.2065 33.0942 29.1426 32.9688C29.0701 32.8262 29.0704 32.6395 29.0703 32.2666L29.0693 23.7334C29.0693 23.3601 29.069 23.1729 29.1416 23.0303C29.2055 22.9048 29.3082 22.8032 29.4336 22.7393C29.5762 22.6667 29.7626 22.6661 30.1357 22.666H30.6689Z" fill="url(#paint2_linear_501_92292)"/>
<defs>
<filter id="filter0_f_501_92292" x="24.6341" y="1.38314" width="17.1068" height="17.1068" filterUnits="userSpaceOnUse" color-interpolation-filters="sRGB">
<feFlood flood-opacity="0" result="BackgroundImageFix"/>
<feBlend mode="normal" in="SourceGraphic" in2="BackgroundImageFix" result="shape"/>
<feGaussianBlur stdDeviation="1.33333" result="effect1_foregroundBlur_501_92292"/>
</filter>
<linearGradient id="paint0_linear_501_92292" x1="35.7318" y1="9.00033" x2="20.3984" y2="30.3337" gradientUnits="userSpaceOnUse">
<stop/>
<stop offset="1" stop-opacity="0"/>
</linearGradient>
<linearGradient id="paint1_linear_501_92292" x1="29.0651" y1="14.667" x2="35.3984" y2="9.33366" gradientUnits="userSpaceOnUse">
<stop stop-color="#FDFDFD"/>
<stop offset="1" stop-color="#E4E4E4"/>
</linearGradient>
<linearGradient id="paint2_linear_501_92292" x1="23.2311" y1="32.2135" x2="31.2119" y2="13.2892" gradientUnits="userSpaceOnUse">
<stop stop-color="white"/>
<stop offset="1" stop-color="white" stop-opacity="0.8"/>
</linearGradient>
</defs>
</svg>
