<svg width="49" height="48" viewBox="0 0 49 48" fill="none" xmlns="http://www.w3.org/2000/svg">
<path d="M8.80469 4.00033C8.80469 3.26395 9.40164 2.66699 10.138 2.66699H28.2524C28.606 2.66699 28.9452 2.80747 29.1952 3.05752L40.4142 14.2765C40.6642 14.5265 40.8047 14.8657 40.8047 15.2193V44.0003C40.8047 44.7367 40.2077 45.3337 39.4714 45.3337H10.138C9.40164 45.3337 8.80469 44.7367 8.80469 44.0003V4.00033Z" fill="#22B52F"/>
<path d="M8.80469 4.00033C8.80469 3.26395 9.40164 2.66699 10.138 2.66699H28.2524C28.606 2.66699 28.9452 2.80747 29.1952 3.05752L40.4142 14.2765C40.6642 14.5265 40.8047 14.8657 40.8047 15.2193V44.0003C40.8047 44.7367 40.2077 45.3337 39.4714 45.3337H10.138C9.40164 45.3337 8.80469 44.7367 8.80469 44.0003V4.00033Z" fill="url(#paint0_linear_501_91564)" fill-opacity="0.3" style="mix-blend-mode:overlay"/>
<g opacity="0.3" filter="url(#filter0_f_501_91564)">
<path d="M27.6451 14.3626L28.806 3.33398L40.1393 14.6673L29.1107 15.8282C28.2672 15.917 27.5563 15.2061 27.6451 14.3626Z" fill="black"/>
</g>
<path d="M28.8047 13.3337V2.66699L40.8047 14.667H30.138C29.4016 14.667 28.8047 14.07 28.8047 13.3337Z" fill="url(#paint1_linear_501_91564)"/>
<path d="M18.6855 18.0926C18.9447 17.9332 19.2742 17.9836 19.4746 18.1971L19.5518 18.2986L20.9004 20.493C22.1001 19.9452 23.4136 19.6522 24.7578 19.6521C26.1015 19.6521 27.4147 19.9447 28.6143 20.492L29.9541 18.3143C30.1363 18.018 30.5241 17.926 30.8203 18.1082C31.1166 18.2904 31.2095 18.6781 31.0273 18.9744L29.7236 21.0935C30.2989 21.4574 30.8382 21.8839 31.3271 22.3728C33.0691 24.1149 34.0478 26.4777 34.0479 28.9412C34.0479 29.289 33.7657 29.571 33.418 29.5711H16.0986C15.9316 29.5711 15.7714 29.5046 15.6533 29.3865C15.5353 29.2684 15.4688 29.1082 15.4688 28.9412C15.4688 26.4776 16.4474 24.1149 18.1895 22.3728C18.678 21.8843 19.2163 21.4573 19.791 21.0935L18.4795 18.9588L18.4238 18.8435C18.3236 18.5684 18.4265 18.252 18.6855 18.0926ZM21.2188 24.4139C20.6753 24.4139 20.2344 24.8548 20.2344 25.3982C20.2346 25.9416 20.6754 26.3816 21.2188 26.3816C21.762 26.3815 22.202 25.9415 22.2021 25.3982C22.2021 24.8549 21.7621 24.414 21.2188 24.4139ZM28.3047 24.4139C27.7612 24.4139 27.3203 24.8548 27.3203 25.3982C27.3205 25.9416 27.7613 26.3816 28.3047 26.3816C28.8479 26.3815 29.2879 25.9415 29.2881 25.3982C29.2881 24.8549 28.848 24.414 28.3047 24.4139Z" fill="url(#paint2_linear_501_91564)"/>
<defs>
<filter id="filter0_f_501_91564" x="24.9701" y="0.667318" width="17.8372" height="17.8353" filterUnits="userSpaceOnUse" color-interpolation-filters="sRGB">
<feFlood flood-opacity="0" result="BackgroundImageFix"/>
<feBlend mode="normal" in="SourceGraphic" in2="BackgroundImageFix" result="shape"/>
<feGaussianBlur stdDeviation="1.33333" result="effect1_foregroundBlur_501_91564"/>
</filter>
<linearGradient id="paint0_linear_501_91564" x1="36.138" y1="9.00032" x2="20.8047" y2="30.3337" gradientUnits="userSpaceOnUse">
<stop/>
<stop offset="1" stop-opacity="0"/>
</linearGradient>
<linearGradient id="paint1_linear_501_91564" x1="29.4714" y1="14.667" x2="35.8047" y2="9.33366" gradientUnits="userSpaceOnUse">
<stop stop-color="#FDFDFD"/>
<stop offset="1" stop-color="#E4E4E4"/>
</linearGradient>
<linearGradient id="paint2_linear_501_91564" x1="23.2734" y1="28.5994" x2="28.433" y2="10.7429" gradientUnits="userSpaceOnUse">
<stop stop-color="white"/>
<stop offset="1" stop-color="white" stop-opacity="0.5"/>
</linearGradient>
</defs>
</svg>
