<svg width="35" height="46" viewBox="0 0 35 46" fill="none" xmlns="http://www.w3.org/2000/svg">
<path d="M0.203125 4.00033C0.203125 3.26395 0.800079 2.66699 1.53646 2.66699H19.6508C20.0045 2.66699 20.3436 2.80747 20.5937 3.05752L31.8126 14.2765C32.0627 14.5265 32.2031 14.8657 32.2031 15.2193V44.0003C32.2031 44.7367 31.6062 45.3337 30.8698 45.3337H1.53646C0.800077 45.3337 0.203125 44.7367 0.203125 44.0003V4.00033Z" fill="#8D93A3"/>
<path d="M0.203125 4.00033C0.203125 3.26395 0.800079 2.66699 1.53646 2.66699H19.6508C20.0045 2.66699 20.3436 2.80747 20.5937 3.05752L31.8126 14.2765C32.0627 14.5265 32.2031 14.8657 32.2031 15.2193V44.0003C32.2031 44.7367 31.6062 45.3337 30.8698 45.3337H1.53646C0.800077 45.3337 0.203125 44.7367 0.203125 44.0003V4.00033Z" fill="url(#paint0_linear_501_92522)" fill-opacity="0.3" style="mix-blend-mode:overlay"/>
<path opacity="0.95" d="M14.6885 30.4599V22.1233H11.5746V20.1983H20.0103V22.1233H16.8823V30.4599H14.6885Z" fill="url(#paint1_linear_501_92522)"/>
<g style="mix-blend-mode:multiply" opacity="0.3" filter="url(#filter0_f_501_92522)">
<path d="M19.0318 14.3617L20.1927 3.33301L31.526 14.6663L20.4974 15.8273C19.6539 15.916 18.943 15.2051 19.0318 14.3617Z" fill="black"/>
</g>
<path d="M20.2031 13.3337V2.66699L32.2031 14.667H21.5365C20.8001 14.667 20.2031 14.07 20.2031 13.3337Z" fill="url(#paint2_linear_501_92522)"/>
<defs>
<filter id="filter0_f_501_92522" x="16.3568" y="0.666341" width="17.8372" height="17.8353" filterUnits="userSpaceOnUse" color-interpolation-filters="sRGB">
<feFlood flood-opacity="0" result="BackgroundImageFix"/>
<feBlend mode="normal" in="SourceGraphic" in2="BackgroundImageFix" result="shape"/>
<feGaussianBlur stdDeviation="1.33333" result="effect1_foregroundBlur_501_92522"/>
</filter>
<linearGradient id="paint0_linear_501_92522" x1="27.5365" y1="9.00033" x2="12.2031" y2="30.3337" gradientUnits="userSpaceOnUse">
<stop/>
<stop offset="1" stop-opacity="0"/>
</linearGradient>
<linearGradient id="paint1_linear_501_92522" x1="15.0457" y1="33.2192" x2="29.4585" y2="16.5739" gradientUnits="userSpaceOnUse">
<stop stop-color="white"/>
<stop offset="1" stop-color="white" stop-opacity="0.9"/>
</linearGradient>
<linearGradient id="paint2_linear_501_92522" x1="20.8698" y1="14.667" x2="27.2031" y2="9.33366" gradientUnits="userSpaceOnUse">
<stop stop-color="#FDFDFD"/>
<stop offset="1" stop-color="#E4E4E4"/>
</linearGradient>
</defs>
</svg>
