<svg width="48" height="48" viewBox="0 0 48 48" fill="none" xmlns="http://www.w3.org/2000/svg">
<path d="M8 4.00033C8 3.26395 8.59695 2.66699 9.33333 2.66699H27.4477C27.8013 2.66699 28.1405 2.80747 28.3905 3.05752L39.6095 14.2765C39.8595 14.5265 40 14.8657 40 15.2193V44.0003C40 44.7367 39.403 45.3337 38.6667 45.3337H9.33333C8.59695 45.3337 8 44.7367 8 44.0003V4.00033Z" fill="#A0A3AB"/>
<path d="M8 4.00033C8 3.26395 8.59695 2.66699 9.33333 2.66699H27.4477C27.8013 2.66699 28.1405 2.80747 28.3905 3.05752L39.6095 14.2765C39.8595 14.5265 40 14.8657 40 15.2193V44.0003C40 44.7367 39.403 45.3337 38.6667 45.3337H9.33333C8.59695 45.3337 8 44.7367 8 44.0003V4.00033Z" fill="url(#paint0_linear_501_91761)" fill-opacity="0.3" style="mix-blend-mode:overlay"/>
<g opacity="0.3" filter="url(#filter0_f_501_91761)">
<path d="M26.8404 14.3626L28.0013 3.33398L39.3346 14.6673L28.306 15.8282C27.4625 15.917 26.7516 15.2061 26.8404 14.3626Z" fill="black"/>
</g>
<path d="M28 13.3337V2.66699L40 14.667H29.3333C28.597 14.667 28 14.07 28 13.3337Z" fill="url(#paint1_linear_501_91761)"/>
<path d="M32.6729 19.334C33.7774 19.334 34.6729 20.2294 34.6729 21.334V30.667C34.6729 31.7716 33.7774 32.667 32.6729 32.667H15.3398C14.2353 32.667 13.3398 31.7716 13.3398 30.667V21.334C13.3398 20.2294 14.2353 19.334 15.3398 19.334H32.6729ZM15.2051 20.6807C14.9013 20.7429 14.6729 21.0119 14.6729 21.334V30.667C14.6729 30.9891 14.9013 31.2581 15.2051 31.3203L15.3398 31.334H32.6729L32.8076 31.3203C33.0677 31.2669 33.2728 31.0619 33.3262 30.8018L33.3398 30.667V21.334C33.3398 21.012 33.1112 20.743 32.8076 20.6807L32.6729 20.667H15.3398L15.2051 20.6807ZM20.5283 25.1416L22.2871 23H24.0469V29.0439H22.2871V25.6016L20.5283 27.8193L18.7686 25.6016V29.0439H17.0088V23H18.7686L20.5283 25.1416ZM29.252 23.1064C29.3862 23.1065 29.4951 23.2154 29.4951 23.3496V26.0098H31.0986C31.3151 26.0099 31.4233 26.2717 31.2705 26.4248L28.8477 28.8486C28.7528 28.9434 28.5989 28.9431 28.5039 28.8486L26.0801 26.4248C25.9276 26.2717 26.0358 26.0101 26.252 26.0098H27.8555V23.3496C27.8555 23.2155 27.9645 23.1066 28.0986 23.1064H29.252Z" fill="url(#paint2_linear_501_91761)"/>
<defs>
<filter id="filter0_f_501_91761" x="24.1654" y="0.667318" width="17.8372" height="17.8353" filterUnits="userSpaceOnUse" color-interpolation-filters="sRGB">
<feFlood flood-opacity="0" result="BackgroundImageFix"/>
<feBlend mode="normal" in="SourceGraphic" in2="BackgroundImageFix" result="shape"/>
<feGaussianBlur stdDeviation="1.33333" result="effect1_foregroundBlur_501_91761"/>
</filter>
<linearGradient id="paint0_linear_501_91761" x1="35.3333" y1="9.00032" x2="20" y2="30.3337" gradientUnits="userSpaceOnUse">
<stop/>
<stop offset="1" stop-opacity="0"/>
</linearGradient>
<linearGradient id="paint1_linear_501_91761" x1="28.6667" y1="14.667" x2="35" y2="9.33366" gradientUnits="userSpaceOnUse">
<stop stop-color="#FDFDFD"/>
<stop offset="1" stop-color="#E4E4E4"/>
</linearGradient>
<linearGradient id="paint2_linear_501_91761" x1="22.3013" y1="31.5474" x2="28.2634" y2="10.9845" gradientUnits="userSpaceOnUse">
<stop stop-color="white"/>
<stop offset="1" stop-color="white" stop-opacity="0.8"/>
</linearGradient>
</defs>
</svg>
