<svg width="49" height="48" viewBox="0 0 49 48" fill="none" xmlns="http://www.w3.org/2000/svg">
<path d="M8.80469 4.00033C8.80469 3.26395 9.40164 2.66699 10.138 2.66699H28.2524C28.606 2.66699 28.9452 2.80747 29.1952 3.05752L40.4142 14.2765C40.6642 14.5265 40.8047 14.8657 40.8047 15.2193V44.0003C40.8047 44.7367 40.2077 45.3337 39.4714 45.3337H10.138C9.40164 45.3337 8.80469 44.7367 8.80469 44.0003V4.00033Z" fill="#2894E3"/>
<path d="M8.80469 4.00033C8.80469 3.26395 9.40164 2.66699 10.138 2.66699H28.2524C28.606 2.66699 28.9452 2.80747 29.1952 3.05752L40.4142 14.2765C40.6642 14.5265 40.8047 14.8657 40.8047 15.2193V44.0003C40.8047 44.7367 40.2077 45.3337 39.4714 45.3337H10.138C9.40164 45.3337 8.80469 44.7367 8.80469 44.0003V4.00033Z" fill="url(#paint0_linear_501_91852)" fill-opacity="0.2" style="mix-blend-mode:overlay"/>
<g opacity="0.3" filter="url(#filter0_f_501_91852)">
<path d="M27.6451 14.3626L28.806 3.33398L40.1393 14.6673L29.1107 15.8282C28.2672 15.917 27.5563 15.2061 27.6451 14.3626Z" fill="black"/>
</g>
<path d="M28.8047 13.3337V2.66699L40.8047 14.667H30.138C29.4016 14.667 28.8047 14.07 28.8047 13.3337Z" fill="url(#paint1_linear_501_91852)"/>
<path d="M17.2969 31.8281V21.333H21.4434C22.2441 21.333 22.94 21.476 23.531 21.762C24.1315 22.0479 24.5939 22.4531 24.918 22.9773C25.2421 23.4921 25.4041 24.0926 25.4041 24.7789C25.4041 25.4653 25.2421 26.0706 24.918 26.5948C24.5939 27.1191 24.1315 27.5243 23.531 27.8102C22.94 28.0962 22.2441 28.2392 21.4434 28.2392H19.5131V31.8281H17.2969ZM21.086 26.5663C21.7246 26.5663 22.2156 26.4137 22.5587 26.1087C22.9114 25.8037 23.0878 25.3604 23.0878 24.7789C23.0878 24.207 22.9114 23.7733 22.5587 23.4778C22.2156 23.1727 21.7246 23.0202 21.086 23.0202H19.5131V26.5663H21.086Z" fill="url(#paint2_linear_501_91852)"/>
<path d="M26.0827 26.3518C26.0827 25.5511 26.3973 24.9315 27.0264 24.493C27.6651 24.0545 28.461 23.8352 29.4143 23.8352C30.2531 23.8352 30.9442 23.9878 31.4876 24.2928C32.0309 24.5978 32.4122 25.022 32.6314 25.5654L31.0872 26.3661C30.9061 26.0896 30.6821 25.8704 30.4152 25.7083C30.1483 25.5463 29.7908 25.4653 29.3428 25.4653C28.9806 25.4653 28.6898 25.532 28.4706 25.6654C28.2513 25.7894 28.1417 25.9657 28.1417 26.1945C28.1417 26.4519 28.2752 26.633 28.5421 26.7378C28.809 26.8427 29.2332 26.9475 29.8146 27.0524C30.4342 27.1573 30.9394 27.2764 31.3303 27.4099C31.7306 27.5338 32.0738 27.753 32.3598 28.0676C32.6457 28.3726 32.7887 28.8063 32.7887 29.3688C32.7887 30.2362 32.4694 30.8939 31.8307 31.3419C31.2016 31.7804 30.3627 31.9997 29.3142 31.9997C28.3991 31.9997 27.646 31.8329 27.055 31.4992C26.464 31.1656 26.0446 30.6985 25.7968 30.098L27.3267 29.2973C27.708 30.0122 28.3705 30.3696 29.3142 30.3696C29.7622 30.3696 30.1101 30.3029 30.358 30.1695C30.6154 30.036 30.744 29.8406 30.744 29.5832C30.744 29.2973 30.6011 29.0971 30.3151 28.9827C30.0386 28.8588 29.5954 28.7396 28.9853 28.6252C28.3753 28.5108 27.8748 28.3917 27.484 28.2678C27.1027 28.1343 26.7738 27.9198 26.4974 27.6243C26.221 27.3193 26.0827 26.8951 26.0827 26.3518Z" fill="url(#paint3_linear_501_91852)"/>
<defs>
<filter id="filter0_f_501_91852" x="24.9701" y="0.667317" width="17.8372" height="17.8353" filterUnits="userSpaceOnUse" color-interpolation-filters="sRGB">
<feFlood flood-opacity="0" result="BackgroundImageFix"/>
<feBlend mode="normal" in="SourceGraphic" in2="BackgroundImageFix" result="shape"/>
<feGaussianBlur stdDeviation="1.33333" result="effect1_foregroundBlur_501_91852"/>
</filter>
<linearGradient id="paint0_linear_501_91852" x1="36.138" y1="9.00033" x2="20.8047" y2="30.3337" gradientUnits="userSpaceOnUse">
<stop/>
<stop offset="1" stop-opacity="0"/>
</linearGradient>
<linearGradient id="paint1_linear_501_91852" x1="29.4714" y1="14.667" x2="35.8047" y2="9.33366" gradientUnits="userSpaceOnUse">
<stop stop-color="#FDFDFD"/>
<stop offset="1" stop-color="#E4E4E4"/>
</linearGradient>
<linearGradient id="paint2_linear_501_91852" x1="23.8046" y1="31.104" x2="28.9737" y2="14.9214" gradientUnits="userSpaceOnUse">
<stop stop-color="white"/>
<stop offset="1" stop-color="white" stop-opacity="0.8"/>
</linearGradient>
<linearGradient id="paint3_linear_501_91852" x1="23.8046" y1="31.104" x2="28.9737" y2="14.9214" gradientUnits="userSpaceOnUse">
<stop stop-color="white"/>
<stop offset="1" stop-color="white" stop-opacity="0.8"/>
</linearGradient>
</defs>
</svg>
