<svg width="48" height="48" viewBox="0 0 48 48" fill="none" xmlns="http://www.w3.org/2000/svg">
<path d="M8 4.00033C8 3.26395 8.59695 2.66699 9.33333 2.66699H27.4477C27.8013 2.66699 28.1405 2.80747 28.3905 3.05752L39.6095 14.2765C39.8595 14.5265 40 14.8657 40 15.2193V44.0003C40 44.7367 39.403 45.3337 38.6667 45.3337H9.33333C8.59695 45.3337 8 44.7367 8 44.0003V4.00033Z" fill="#0E90F1"/>
<path d="M8 4.00033C8 3.26395 8.59695 2.66699 9.33333 2.66699H27.4477C27.8013 2.66699 28.1405 2.80747 28.3905 3.05752L39.6095 14.2765C39.8595 14.5265 40 14.8657 40 15.2193V44.0003C40 44.7367 39.403 45.3337 38.6667 45.3337H9.33333C8.59695 45.3337 8 44.7367 8 44.0003V4.00033Z" fill="url(#paint0_linear_501_91870)" fill-opacity="0.3" style="mix-blend-mode:overlay"/>
<g opacity="0.3" filter="url(#filter0_f_501_91870)">
<path d="M26.7162 14.3421L27.8646 4.0498L30.8085 10.0221C30.9261 10.2607 31.1123 10.4586 31.3433 10.5905L38.4815 14.6667L28.1892 15.8151C27.3395 15.9099 26.6214 15.1918 26.7162 14.3421Z" fill="black"/>
</g>
<path d="M28 13.3337V2.66699L40 14.667H29.3333C28.597 14.667 28 14.07 28 13.3337Z" fill="url(#paint1_linear_501_91870)"/>
<path fill-rule="evenodd" clip-rule="evenodd" d="M24.1042 27.22C27.7861 27.22 30.7708 24.2353 30.7708 20.5534C30.7708 16.8715 27.7861 13.8867 24.1042 13.8867C20.4223 13.8867 17.4375 16.8715 17.4375 20.5534C17.4375 24.2353 20.4223 27.22 24.1042 27.22ZM24.1042 15.0988C23.9898 15.0988 23.8195 15.1543 23.6009 15.3855C23.381 15.6179 23.1551 15.9869 22.9527 16.493C22.7673 16.9563 22.6116 17.5097 22.4974 18.1291H25.7109C25.5967 17.5097 25.441 16.9563 25.2557 16.493C25.0532 15.9869 24.8273 15.6179 24.6075 15.3855C24.3888 15.1543 24.2185 15.0988 24.1042 15.0988ZM21.8273 16.0428C21.5866 16.6444 21.3961 17.3518 21.2668 18.1291H19.2166C19.811 16.9331 20.8314 15.9862 22.0794 15.487C21.9888 15.663 21.9048 15.849 21.8273 16.0428ZM21.1205 19.3413H18.7848C18.6963 19.7311 18.6496 20.1368 18.6496 20.5534C18.6496 20.97 18.6963 21.3757 18.7848 21.7655H21.1205C21.0898 21.3717 21.0739 20.9664 21.0739 20.5534C21.0739 20.1404 21.0898 19.7351 21.1205 19.3413ZM21.2668 22.9776H19.2166C19.811 24.1736 20.8314 25.1206 22.0794 25.6198C21.9888 25.4438 21.9048 25.2578 21.8273 25.064C21.5866 24.4624 21.3961 23.7549 21.2668 22.9776ZM22.4974 22.9776H25.7109C25.5967 23.5971 25.441 24.1504 25.2557 24.6138C25.0532 25.1199 24.8273 25.4888 24.6075 25.7213C24.3888 25.9525 24.2185 26.0079 24.1042 26.0079C23.9898 26.0079 23.8195 25.9525 23.6009 25.7213C23.381 25.4888 23.1551 25.1199 22.9527 24.6138C22.7673 24.1504 22.6116 23.5971 22.4974 22.9776ZM25.8718 21.7655H22.3366C22.3035 21.3764 22.286 20.9709 22.286 20.5534C22.286 20.1359 22.3035 19.7304 22.3366 19.3413H25.8718C25.9048 19.7304 25.9223 20.1359 25.9223 20.5534C25.9223 20.9709 25.9048 21.3764 25.8718 21.7655ZM26.9415 22.9776C26.8122 23.7549 26.6217 24.4624 26.3811 25.064C26.3036 25.2578 26.2196 25.4438 26.129 25.6198C27.3769 25.1206 28.3974 24.1737 28.9917 22.9776H26.9415ZM29.4235 21.7655H27.0879C27.1186 21.3717 27.1345 20.9664 27.1345 20.5534C27.1345 20.1404 27.1186 19.7351 27.0879 19.3413H29.4235C29.512 19.7311 29.5587 20.1368 29.5587 20.5534C29.5587 20.97 29.512 21.3757 29.4235 21.7655ZM26.129 15.487C27.3769 15.9862 28.3974 16.9331 28.9917 18.1291H26.9415C26.8122 17.3518 26.6217 16.6444 26.3811 16.0428C26.3036 15.849 26.2196 15.663 26.129 15.487Z" fill="url(#paint2_linear_501_91870)"/>
<path d="M13.9386 36.0962L13.9381 31.2629L14.9781 31.2628L14.9783 33.1294L16.9783 33.1292L16.9781 31.2625L18.0181 31.2624L18.0186 36.0958L16.9786 36.0959L16.9784 34.0225L14.9784 34.0228L14.9786 36.0961L13.9386 36.0962ZM20.5092 36.0955L20.5087 32.1688L19.0421 32.169L19.042 31.2623L23.0153 31.2619L23.0154 32.1685L21.5421 32.1687L21.5425 36.0954L20.5092 36.0955ZM24.0454 36.0951L24.0449 31.2618L25.7782 31.2616L26.8119 34.9081L26.8453 34.9081L27.9115 31.2613L29.6182 31.2612L29.6187 36.0945L28.5787 36.0946L28.5783 32.2679L28.5383 32.2679L27.3721 36.0947L26.2587 36.0949L25.125 32.2683L25.085 32.2683L25.0854 36.095L24.0454 36.0951ZM30.9933 36.0943L30.9928 31.261L32.0328 31.2609L32.0332 35.2009L34.3932 35.2006L34.3933 36.094L30.9933 36.0943Z" fill="white"/>
<circle opacity="0.5" cx="12.0026" cy="35.3346" r="0.666667" fill="white"/>
<defs>
<filter id="filter0_f_501_91870" x="24.0404" y="1.38314" width="17.1068" height="17.1068" filterUnits="userSpaceOnUse" color-interpolation-filters="sRGB">
<feFlood flood-opacity="0" result="BackgroundImageFix"/>
<feBlend mode="normal" in="SourceGraphic" in2="BackgroundImageFix" result="shape"/>
<feGaussianBlur stdDeviation="1.33333" result="effect1_foregroundBlur_501_91870"/>
</filter>
<linearGradient id="paint0_linear_501_91870" x1="35.3333" y1="9.00033" x2="20" y2="30.3337" gradientUnits="userSpaceOnUse">
<stop/>
<stop offset="1" stop-opacity="0"/>
</linearGradient>
<linearGradient id="paint1_linear_501_91870" x1="28.6667" y1="14.667" x2="35" y2="9.33366" gradientUnits="userSpaceOnUse">
<stop stop-color="#FDFDFD"/>
<stop offset="1" stop-color="#E4E4E4"/>
</linearGradient>
<linearGradient id="paint2_linear_501_91870" x1="23.0385" y1="26.1005" x2="31.5486" y2="7.75633" gradientUnits="userSpaceOnUse">
<stop stop-color="white"/>
<stop offset="1" stop-color="white" stop-opacity="0.5"/>
</linearGradient>
</defs>
</svg>
