<svg width="49" height="48" viewBox="0 0 49 48" fill="none" xmlns="http://www.w3.org/2000/svg">
<path d="M8.60156 4.00033C8.60156 3.26395 9.19852 2.66699 9.9349 2.66699H28.0493C28.4029 2.66699 28.742 2.80747 28.9921 3.05752L40.211 14.2765C40.4611 14.5265 40.6016 14.8657 40.6016 15.2193V44.0003C40.6016 44.7367 40.0046 45.3337 39.2682 45.3337H9.93489C9.19851 45.3337 8.60156 44.7367 8.60156 44.0003V4.00033Z" fill="#E86F1F"/>
<path d="M8.60156 4.00033C8.60156 3.26395 9.19852 2.66699 9.9349 2.66699H28.0493C28.4029 2.66699 28.742 2.80747 28.9921 3.05752L40.211 14.2765C40.4611 14.5265 40.6016 14.8657 40.6016 15.2193V44.0003C40.6016 44.7367 40.0046 45.3337 39.2682 45.3337H9.93489C9.19851 45.3337 8.60156 44.7367 8.60156 44.0003V4.00033Z" fill="url(#paint0_linear_501_91834)" fill-opacity="0.2" style="mix-blend-mode:overlay"/>
<g opacity="0.3" filter="url(#filter0_f_501_91834)">
<path d="M27.442 14.3626L28.6029 3.33398L39.9362 14.6673L28.9075 15.8282C28.0641 15.917 27.3532 15.2061 27.442 14.3626Z" fill="black"/>
</g>
<path d="M28.6016 13.3337V2.66699L40.6016 14.667H29.9349C29.1985 14.667 28.6016 14.07 28.6016 13.3337Z" fill="url(#paint1_linear_501_91834)"/>
<path d="M20.0485 31.9997H17.8984L21.7658 21.7519H24.4604L28.2998 31.9997H26.0241L25.1585 29.5005H20.9141L20.0485 31.9997ZM23.0503 23.3574L21.5145 27.7553H24.5581L23.0503 23.3574Z" fill="url(#paint2_linear_501_91834)"/>
<path d="M29.4876 22.4918C29.4876 22.1474 29.5992 21.8682 29.8226 21.6541C30.046 21.44 30.3392 21.333 30.7022 21.333C31.0745 21.333 31.3724 21.44 31.5958 21.6541C31.8191 21.8682 31.9308 22.1474 31.9308 22.4918C31.9308 22.8455 31.8191 23.1294 31.5958 23.3435C31.3724 23.5576 31.0745 23.6646 30.7022 23.6646C30.3392 23.6646 30.046 23.5576 29.8226 23.3435C29.5992 23.1294 29.4876 22.8455 29.4876 22.4918ZM29.683 31.9997V24.3627H31.7074V31.9997H29.683Z" fill="url(#paint3_linear_501_91834)"/>
<defs>
<filter id="filter0_f_501_91834" x="24.7669" y="0.667317" width="17.8372" height="17.8353" filterUnits="userSpaceOnUse" color-interpolation-filters="sRGB">
<feFlood flood-opacity="0" result="BackgroundImageFix"/>
<feBlend mode="normal" in="SourceGraphic" in2="BackgroundImageFix" result="shape"/>
<feGaussianBlur stdDeviation="1.33333" result="effect1_foregroundBlur_501_91834"/>
</filter>
<linearGradient id="paint0_linear_501_91834" x1="35.9349" y1="9.00033" x2="20.6016" y2="30.3337" gradientUnits="userSpaceOnUse">
<stop/>
<stop offset="1" stop-opacity="0"/>
</linearGradient>
<linearGradient id="paint1_linear_501_91834" x1="29.2682" y1="14.667" x2="35.6016" y2="9.33366" gradientUnits="userSpaceOnUse">
<stop stop-color="#FDFDFD"/>
<stop offset="1" stop-color="#E4E4E4"/>
</linearGradient>
<linearGradient id="paint2_linear_501_91834" x1="23.7931" y1="31.104" x2="29.3864" y2="15.2428" gradientUnits="userSpaceOnUse">
<stop stop-color="white"/>
<stop offset="1" stop-color="white" stop-opacity="0.8"/>
</linearGradient>
<linearGradient id="paint3_linear_501_91834" x1="23.7931" y1="31.104" x2="29.3864" y2="15.2428" gradientUnits="userSpaceOnUse">
<stop stop-color="white"/>
<stop offset="1" stop-color="white" stop-opacity="0.8"/>
</linearGradient>
</defs>
</svg>
