<svg width="49" height="48" viewBox="0 0 49 48" fill="none" xmlns="http://www.w3.org/2000/svg">
<path d="M8.39844 4.00033C8.39844 3.26395 8.99539 2.66699 9.73177 2.66699H27.8462C28.1998 2.66699 28.5389 2.80747 28.789 3.05752L40.0079 14.2765C40.258 14.5265 40.3984 14.8657 40.3984 15.2193V44.0003C40.3984 44.7367 39.8015 45.3337 39.0651 45.3337H9.73177C8.99539 45.3337 8.39844 44.7367 8.39844 44.0003V4.00033Z" fill="#E44E43"/>
<path d="M8.39844 4.00033C8.39844 3.26395 8.99539 2.66699 9.73177 2.66699H27.8462C28.1998 2.66699 28.5389 2.80747 28.789 3.05752L40.0079 14.2765C40.258 14.5265 40.3984 14.8657 40.3984 15.2193V44.0003C40.3984 44.7367 39.8015 45.3337 39.0651 45.3337H9.73177C8.99539 45.3337 8.39844 44.7367 8.39844 44.0003V4.00033Z" fill="url(#paint0_linear_501_91493)" fill-opacity="0.6" style="mix-blend-mode:overlay"/>
<g opacity="0.3" filter="url(#filter0_f_501_91493)">
<path d="M27.2388 14.3626L28.3997 3.33398L39.7331 14.6673L28.7044 15.8282C27.8609 15.917 27.15 15.2061 27.2388 14.3626Z" fill="black"/>
</g>
<path d="M28.3984 13.3337V2.66699L40.3984 14.667H29.7318C28.9954 14.667 28.3984 14.07 28.3984 13.3337Z" fill="url(#paint1_linear_501_91493)"/>
<path d="M24.6064 18C24.8861 18 25.0259 18.0003 25.1328 18.0547C25.2269 18.1026 25.3036 18.1794 25.3516 18.2734C25.4059 18.3803 25.4062 18.5201 25.4062 18.7998V23H26.6064C26.8861 23 27.0259 23.0003 27.1328 23.0547C27.2269 23.1026 27.3036 23.1794 27.3516 23.2734C27.4059 23.3803 27.4062 23.5201 27.4062 23.7998V25H31.6064C31.8861 25 32.0259 25.0003 32.1328 25.0547C32.2269 25.1026 32.3036 25.1794 32.3516 25.2734C32.4059 25.3803 32.4062 25.5201 32.4062 25.7998V26.2002C32.4062 26.4799 32.4059 26.6197 32.3516 26.7266C32.3036 26.8206 32.2269 26.8974 32.1328 26.9453C32.0259 26.9997 31.8861 27 31.6064 27H27.4062V28.2002C27.4062 28.4799 27.4059 28.6197 27.3516 28.7266C27.3036 28.8206 27.2269 28.8974 27.1328 28.9453C27.0259 28.9997 26.8861 29 26.6064 29H25.4062V33.2002C25.4062 33.4799 25.4059 33.6197 25.3516 33.7266C25.3036 33.8206 25.2269 33.8974 25.1328 33.9453C25.0259 33.9997 24.8861 34 24.6064 34H24.2061C23.9264 34 23.7866 33.9997 23.6797 33.9453C23.5856 33.8974 23.5089 33.8206 23.4609 33.7266C23.4066 33.6197 23.4062 33.4799 23.4062 33.2002V29H22.2061C21.9264 29 21.7866 28.9997 21.6797 28.9453C21.5856 28.8974 21.5089 28.8206 21.4609 28.7266C21.4066 28.6197 21.4062 28.4799 21.4062 28.2002V27H17.2061C16.9264 27 16.7866 26.9997 16.6797 26.9453C16.5856 26.8974 16.5089 26.8206 16.4609 26.7266C16.4066 26.6197 16.4063 26.4799 16.4062 26.2002V25.7998C16.4063 25.5201 16.4066 25.3803 16.4609 25.2734C16.5089 25.1794 16.5856 25.1026 16.6797 25.0547C16.7866 25.0003 16.9264 25 17.2061 25H21.4062V23.7998C21.4062 23.5201 21.4066 23.3803 21.4609 23.2734C21.5089 23.1794 21.5856 23.1026 21.6797 23.0547C21.7866 23.0003 21.9264 23 22.2061 23H23.4062V18.7998C23.4062 18.5201 23.4066 18.3803 23.4609 18.2734C23.5089 18.1794 23.5856 18.1026 23.6797 18.0547C23.7866 18.0003 23.9264 18 24.2061 18H24.6064ZM23.4062 25V27H25.4062V25H23.4062Z" fill="url(#paint2_linear_501_91493)"/>
<defs>
<filter id="filter0_f_501_91493" x="24.5638" y="0.667317" width="17.8372" height="17.8353" filterUnits="userSpaceOnUse" color-interpolation-filters="sRGB">
<feFlood flood-opacity="0" result="BackgroundImageFix"/>
<feBlend mode="normal" in="SourceGraphic" in2="BackgroundImageFix" result="shape"/>
<feGaussianBlur stdDeviation="1.33333" result="effect1_foregroundBlur_501_91493"/>
</filter>
<linearGradient id="paint0_linear_501_91493" x1="35.7318" y1="9.00033" x2="20.3984" y2="30.3337" gradientUnits="userSpaceOnUse">
<stop/>
<stop offset="1" stop-opacity="0"/>
</linearGradient>
<linearGradient id="paint1_linear_501_91493" x1="29.0651" y1="14.667" x2="35.3984" y2="9.33366" gradientUnits="userSpaceOnUse">
<stop stop-color="#FDFDFD"/>
<stop offset="1" stop-color="#E4E4E4"/>
</linearGradient>
<linearGradient id="paint2_linear_501_91493" x1="23.1274" y1="32.6565" x2="33.3396" y2="10.6435" gradientUnits="userSpaceOnUse">
<stop stop-color="white"/>
<stop offset="1" stop-color="white" stop-opacity="0.8"/>
</linearGradient>
</defs>
</svg>
