<svg width="48" height="48" viewBox="0 0 48 48" fill="none" xmlns="http://www.w3.org/2000/svg">
<path d="M8 4.00033C8 3.26395 8.59695 2.66699 9.33333 2.66699H27.4477C27.8013 2.66699 28.1405 2.80747 28.3905 3.05752L39.6095 14.2765C39.8595 14.5265 40 14.8657 40 15.2193V44.0003C40 44.7367 39.403 45.3337 38.6667 45.3337H9.33333C8.59695 45.3337 8 44.7367 8 44.0003V4.00033Z" fill="#DE484B"/>
<path d="M8 4.00033C8 3.26395 8.59695 2.66699 9.33333 2.66699H27.4477C27.8013 2.66699 28.1405 2.80747 28.3905 3.05752L39.6095 14.2765C39.8595 14.5265 40 14.8657 40 15.2193V44.0003C40 44.7367 39.403 45.3337 38.6667 45.3337H9.33333C8.59695 45.3337 8 44.7367 8 44.0003V4.00033Z" fill="url(#paint0_linear_501_92125)" fill-opacity="0.5" style="mix-blend-mode:overlay"/>
<g opacity="0.3" filter="url(#filter0_f_501_92125)">
<path d="M26.8569 14.3421L28.0052 4.0498L30.9491 10.0221C31.0667 10.2607 31.2529 10.4586 31.4839 10.5905L38.6221 14.6667L28.3298 15.8151C27.4801 15.9099 26.7621 15.1918 26.8569 14.3421Z" fill="black"/>
</g>
<path d="M28 13.3337V2.66699L40 14.667H29.3333C28.597 14.667 28 14.07 28 13.3337Z" fill="url(#paint1_linear_501_92125)"/>
<path opacity="0.95" d="M27.5684 19.3304C28.0772 19.1916 28.5789 19.5746 28.5791 20.1019V21.3402C28.5791 21.9391 28.1796 22.465 27.6025 22.6253L25.2666 23.2738C25.0948 23.3215 24.9753 23.4773 24.9736 23.6556L24.9121 30.9993V31.0032C24.9105 32.5482 23.6576 33.8001 22.1123 33.8001C20.566 33.8001 19.3126 32.5467 19.3125 31.0003C19.3125 29.4539 20.5659 28.2005 22.1123 28.2005C22.8301 28.2005 23.483 28.4722 23.9785 28.9163V21.3275C23.9786 20.7264 24.3811 20.1996 24.9609 20.0413L27.5684 19.3304Z" fill="url(#paint2_linear_501_92125)"/>
<defs>
<filter id="filter0_f_501_92125" x="24.181" y="1.38314" width="17.1068" height="17.1068" filterUnits="userSpaceOnUse" color-interpolation-filters="sRGB">
<feFlood flood-opacity="0" result="BackgroundImageFix"/>
<feBlend mode="normal" in="SourceGraphic" in2="BackgroundImageFix" result="shape"/>
<feGaussianBlur stdDeviation="1.33333" result="effect1_foregroundBlur_501_92125"/>
</filter>
<linearGradient id="paint0_linear_501_92125" x1="40" y1="0.666992" x2="20" y2="30.3337" gradientUnits="userSpaceOnUse">
<stop/>
<stop offset="1" stop-opacity="0"/>
</linearGradient>
<linearGradient id="paint1_linear_501_92125" x1="28.6667" y1="14.667" x2="35" y2="9.33366" gradientUnits="userSpaceOnUse">
<stop stop-color="#FDFDFD"/>
<stop offset="1" stop-color="#E4E4E4"/>
</linearGradient>
<linearGradient id="paint2_linear_501_92125" x1="23.2052" y1="33.1832" x2="35.4048" y2="17.1026" gradientUnits="userSpaceOnUse">
<stop stop-color="white"/>
<stop offset="1" stop-color="white" stop-opacity="0.9"/>
</linearGradient>
</defs>
</svg>
