<svg width="35" height="46" viewBox="0 0 35 46" fill="none" xmlns="http://www.w3.org/2000/svg">
<path d="M0.398438 4.00033C0.398438 3.26395 0.995391 2.66699 1.73177 2.66699H19.8462C20.1998 2.66699 20.5389 2.80747 20.789 3.05752L32.0079 14.2765C32.258 14.5265 32.3984 14.8657 32.3984 15.2193V44.0003C32.3984 44.7367 31.8015 45.3337 31.0651 45.3337H1.73177C0.99539 45.3337 0.398438 44.7367 0.398438 44.0003V4.00033Z" fill="#36873E"/>
<path d="M0.398438 4.00033C0.398438 3.26395 0.995391 2.66699 1.73177 2.66699H19.8462C20.1998 2.66699 20.5389 2.80747 20.789 3.05752L32.0079 14.2765C32.258 14.5265 32.3984 14.8657 32.3984 15.2193V44.0003C32.3984 44.7367 31.8015 45.3337 31.0651 45.3337H1.73177C0.99539 45.3337 0.398438 44.7367 0.398438 44.0003V4.00033Z" fill="url(#paint0_linear_501_92555)" fill-opacity="0.3" style="mix-blend-mode:overlay"/>
<path opacity="0.95" d="M11.5079 30.4599L14.9755 25.1946L11.6777 20.1983H14.3103L16.3202 23.4962L18.3583 20.1983H20.9626L17.6506 25.1805L21.1466 30.4599H18.5282L16.306 26.9922L14.1122 30.4599H11.5079Z" fill="url(#paint1_linear_501_92555)"/>
<g style="mix-blend-mode:multiply" opacity="0.3" filter="url(#filter0_f_501_92555)">
<path d="M19.2349 14.3617L20.3958 3.33301L31.7292 14.6663L20.7005 15.8273C19.857 15.916 19.1461 15.2051 19.2349 14.3617Z" fill="black"/>
</g>
<path d="M20.3984 13.3337V2.66699L32.3984 14.667H21.7318C20.9954 14.667 20.3984 14.07 20.3984 13.3337Z" fill="url(#paint2_linear_501_92555)"/>
<defs>
<filter id="filter0_f_501_92555" x="16.5599" y="0.666341" width="17.8372" height="17.8353" filterUnits="userSpaceOnUse" color-interpolation-filters="sRGB">
<feFlood flood-opacity="0" result="BackgroundImageFix"/>
<feBlend mode="normal" in="SourceGraphic" in2="BackgroundImageFix" result="shape"/>
<feGaussianBlur stdDeviation="1.33333" result="effect1_foregroundBlur_501_92555"/>
</filter>
<linearGradient id="paint0_linear_501_92555" x1="27.7318" y1="9.00033" x2="12.3984" y2="30.3337" gradientUnits="userSpaceOnUse">
<stop/>
<stop offset="1" stop-opacity="0"/>
</linearGradient>
<linearGradient id="paint1_linear_501_92555" x1="15.5289" y1="33.2192" x2="29.7672" y2="15.6009" gradientUnits="userSpaceOnUse">
<stop stop-color="white"/>
<stop offset="1" stop-color="white" stop-opacity="0.9"/>
</linearGradient>
<linearGradient id="paint2_linear_501_92555" x1="21.0651" y1="14.667" x2="27.3984" y2="9.33366" gradientUnits="userSpaceOnUse">
<stop stop-color="#FDFDFD"/>
<stop offset="1" stop-color="#E4E4E4"/>
</linearGradient>
</defs>
</svg>
