<svg width="49" height="48" viewBox="0 0 49 48" fill="none" xmlns="http://www.w3.org/2000/svg">
<path d="M8.40625 4.00033C8.40625 3.26395 9.0032 2.66699 9.73958 2.66699H27.854C28.2076 2.66699 28.5467 2.80747 28.7968 3.05752L40.0157 14.2765C40.2658 14.5265 40.4062 14.8657 40.4062 15.2193V44.0003C40.4062 44.7367 39.8093 45.3337 39.0729 45.3337H9.73958C9.0032 45.3337 8.40625 44.7367 8.40625 44.0003V4.00033Z" fill="#2A4962"/>
<path d="M8.40625 4.00033C8.40625 3.26395 9.0032 2.66699 9.73958 2.66699H27.854C28.2076 2.66699 28.5467 2.80747 28.7968 3.05752L40.0157 14.2765C40.2658 14.5265 40.4062 14.8657 40.4062 15.2193V44.0003C40.4062 44.7367 39.8093 45.3337 39.0729 45.3337H9.73958C9.0032 45.3337 8.40625 44.7367 8.40625 44.0003V4.00033Z" fill="url(#paint0_linear_501_91812)" fill-opacity="0.3" style="mix-blend-mode:overlay"/>
<g opacity="0.3" filter="url(#filter0_f_501_91812)">
<path d="M27.2466 14.3626L28.4076 3.33398L39.7409 14.6673L28.7122 15.8282C27.8688 15.917 27.1579 15.2061 27.2466 14.3626Z" fill="black"/>
</g>
<path d="M28.4062 13.3337V2.66699L40.4062 14.667H29.7396C29.0032 14.667 28.4062 14.07 28.4062 13.3337Z" fill="url(#paint1_linear_501_91812)"/>
<path d="M26.6658 22.5703L22.9324 30.6738L21.6414 30.1035L25.3748 22L26.6658 22.5703ZM20.6268 23.6211L18.0037 26.1895L20.6268 28.7588L20.1326 29.2637L19.6395 29.7676L16.7069 26.8965C16.3113 26.509 16.3112 25.8719 16.7069 25.4844L19.6385 22.6133L20.6268 23.6211ZM32.2215 25.4844C32.6172 25.872 32.6173 26.509 32.2215 26.8965L29.2899 29.7676L28.7957 29.2637L28.3016 28.7588L30.9246 26.1895L28.3026 23.6211L29.2908 22.6133L32.2215 25.4844Z" fill="url(#paint2_linear_501_91812)"/>
<defs>
<filter id="filter0_f_501_91812" x="24.5716" y="0.667318" width="17.8372" height="17.8353" filterUnits="userSpaceOnUse" color-interpolation-filters="sRGB">
<feFlood flood-opacity="0" result="BackgroundImageFix"/>
<feBlend mode="normal" in="SourceGraphic" in2="BackgroundImageFix" result="shape"/>
<feGaussianBlur stdDeviation="1.33333" result="effect1_foregroundBlur_501_91812"/>
</filter>
<linearGradient id="paint0_linear_501_91812" x1="35.7396" y1="9.00032" x2="20.4062" y2="30.3337" gradientUnits="userSpaceOnUse">
<stop/>
<stop offset="1" stop-opacity="0"/>
</linearGradient>
<linearGradient id="paint1_linear_501_91812" x1="29.0729" y1="14.667" x2="35.4062" y2="9.33366" gradientUnits="userSpaceOnUse">
<stop stop-color="#FDFDFD"/>
<stop offset="1" stop-color="#E4E4E4"/>
</linearGradient>
<linearGradient id="paint2_linear_501_91812" x1="23.1768" y1="29.9455" x2="26.5867" y2="16.2955" gradientUnits="userSpaceOnUse">
<stop stop-color="white"/>
<stop offset="1" stop-color="white" stop-opacity="0.8"/>
</linearGradient>
</defs>
</svg>
