<svg width="49" height="48" viewBox="0 0 49 48" fill="none" xmlns="http://www.w3.org/2000/svg">
<path d="M8.80469 4.00033C8.80469 3.26395 9.40164 2.66699 10.138 2.66699H28.2524C28.606 2.66699 28.9452 2.80747 29.1952 3.05752L40.4142 14.2765C40.6642 14.5265 40.8047 14.8657 40.8047 15.2193V44.0003C40.8047 44.7367 40.2077 45.3337 39.4714 45.3337H10.138C9.40164 45.3337 8.80469 44.7367 8.80469 44.0003V4.00033Z" fill="#947458"/>
<path d="M8.80469 4.00033C8.80469 3.26395 9.40164 2.66699 10.138 2.66699H28.2524C28.606 2.66699 28.9452 2.80747 29.1952 3.05752L40.4142 14.2765C40.6642 14.5265 40.8047 14.8657 40.8047 15.2193V44.0003C40.8047 44.7367 40.2077 45.3337 39.4714 45.3337H10.138C9.40164 45.3337 8.80469 44.7367 8.80469 44.0003V4.00033Z" fill="url(#paint0_linear_501_92441)" fill-opacity="0.3" style="mix-blend-mode:overlay"/>
<g opacity="0.3" filter="url(#filter0_f_501_92441)">
<path d="M27.5131 14.3421L28.6615 4.0498L31.6054 10.0221C31.723 10.2607 31.9092 10.4586 32.1401 10.5905L39.2784 14.6667L28.9861 15.8151C28.1364 15.9099 27.4183 15.1918 27.5131 14.3421Z" fill="black"/>
</g>
<path d="M28.7969 13.3337V2.66699L40.7969 14.667H30.1302C29.3938 14.667 28.7969 14.07 28.7969 13.3337Z" fill="url(#paint1_linear_501_92441)"/>
<path d="M19.1859 36.0929L19.1858 35.3063L21.6721 32.1927L21.6721 32.166L19.2721 32.1663L19.272 31.2596L23.0054 31.2592L23.0055 32.0792L20.5458 35.1594L20.5458 35.1861L23.0525 35.1858L23.0526 36.0925L19.1859 36.0929ZM24.2117 36.0924L24.2112 31.259L25.2445 31.2589L25.2451 36.0923L24.2117 36.0924ZM26.6154 36.0921L26.6148 31.2588L28.5015 31.2586C28.8348 31.2585 29.1371 31.3207 29.4082 31.4451C29.6838 31.5651 29.9038 31.7495 30.0683 31.9984C30.2327 32.2428 30.315 32.5406 30.315 32.8917C30.3151 33.2562 30.2307 33.5628 30.0618 33.8117C29.8974 34.0606 29.6707 34.2473 29.3818 34.3718C29.0974 34.4963 28.7752 34.5585 28.4152 34.5586L27.6552 34.5587L27.6554 36.092L26.6154 36.0921ZM28.2618 33.6719C28.6129 33.6719 28.8618 33.6074 29.0084 33.4785C29.1551 33.3452 29.2284 33.1563 29.2284 32.9118C29.2283 32.6763 29.155 32.4918 29.0083 32.3585C28.8661 32.2208 28.6483 32.1519 28.3549 32.1519L27.6549 32.152L27.6551 33.672L28.2618 33.6719Z" fill="white"/>
<path opacity="0.95" d="M27.3564 22.7793C27.7545 22.7793 27.9534 22.78 28.1055 22.8574C28.2393 22.9256 28.3488 23.0342 28.417 23.168C28.4944 23.32 28.4941 23.5192 28.4941 23.917V24.1514C28.4942 24.5496 28.4945 24.7492 28.417 24.9014C28.3489 25.035 28.2401 25.1438 28.1064 25.2119C27.9543 25.2894 27.7547 25.289 27.3564 25.2891L21.8096 25.29C21.4118 25.2901 21.2126 25.2902 21.0605 25.2129C20.9267 25.1447 20.8182 25.0352 20.75 24.9014C20.6725 24.7493 20.6719 24.5504 20.6719 24.1523V23.918C20.6718 23.5202 20.6718 23.321 20.749 23.1689C20.8172 23.0351 20.9268 22.9256 21.0605 22.8574C21.2126 22.7801 21.4118 22.7803 21.8096 22.7803L27.3564 22.7793ZM27.3564 18.7021C27.7545 18.7021 27.9534 18.7029 28.1055 18.7803C28.2393 18.8484 28.3488 18.957 28.417 19.0908C28.4944 19.2429 28.4941 19.442 28.4941 19.8398V20.0742C28.4942 20.4725 28.4945 20.6721 28.417 20.8242C28.3489 20.9578 28.2401 21.0666 28.1064 21.1348C27.9543 21.2123 27.7547 21.2119 27.3564 21.2119L21.8096 21.2129C21.4118 21.2129 21.2126 21.2131 21.0605 21.1357C20.9267 21.0676 20.8182 20.958 20.75 20.8242C20.6725 20.6721 20.6719 20.4733 20.6719 20.0752V19.8408C20.6718 19.443 20.6718 19.2438 20.749 19.0918C20.8172 18.958 20.9268 18.8485 21.0605 18.7803C21.2126 18.703 21.4118 18.7032 21.8096 18.7031L27.3564 18.7021ZM27.3564 14.624C27.7545 14.624 27.9534 14.6247 28.1055 14.7021C28.2393 14.7703 28.3488 14.8789 28.417 15.0127C28.4943 15.1647 28.4941 15.3639 28.4941 15.7617V15.9961C28.4942 16.394 28.4943 16.5931 28.417 16.7451C28.3489 16.8789 28.2402 16.9884 28.1064 17.0566C27.9543 17.1342 27.7547 17.1337 27.3564 17.1338L21.8096 17.1348C21.4116 17.1348 21.2126 17.1341 21.0605 17.0566C20.9268 16.9885 20.8182 16.8799 20.75 16.7461C20.6725 16.594 20.6719 16.3951 20.6719 15.9971V15.7627C20.6718 15.3649 20.6718 15.1657 20.749 15.0137C20.8172 14.8799 20.9268 14.7703 21.0605 14.7021C21.2126 14.6249 21.4117 14.625 21.8096 14.625L27.3564 14.624Z" fill="url(#paint2_linear_501_92441)"/>
<circle opacity="0.5" cx="16.7995" cy="35.3337" r="0.666667" fill="white"/>
<defs>
<filter id="filter0_f_501_92441" x="24.8372" y="1.38314" width="17.1068" height="17.1068" filterUnits="userSpaceOnUse" color-interpolation-filters="sRGB">
<feFlood flood-opacity="0" result="BackgroundImageFix"/>
<feBlend mode="normal" in="SourceGraphic" in2="BackgroundImageFix" result="shape"/>
<feGaussianBlur stdDeviation="1.33333" result="effect1_foregroundBlur_501_92441"/>
</filter>
<linearGradient id="paint0_linear_501_92441" x1="36.138" y1="9.00033" x2="20.8047" y2="30.3337" gradientUnits="userSpaceOnUse">
<stop/>
<stop offset="1" stop-opacity="0"/>
</linearGradient>
<linearGradient id="paint1_linear_501_92441" x1="29.4635" y1="14.667" x2="35.7969" y2="9.33366" gradientUnits="userSpaceOnUse">
<stop stop-color="#FDFDFD"/>
<stop offset="1" stop-color="#E4E4E4"/>
</linearGradient>
<linearGradient id="paint2_linear_501_92441" x1="23.9579" y1="24.8362" x2="32.5328" y2="11.8668" gradientUnits="userSpaceOnUse">
<stop stop-color="white"/>
<stop offset="1" stop-color="white" stop-opacity="0.8"/>
</linearGradient>
</defs>
</svg>
