<svg width="49" height="48" viewBox="0 0 49 48" fill="none" xmlns="http://www.w3.org/2000/svg">
<path d="M8.60156 4.00033C8.60156 3.26395 9.19852 2.66699 9.9349 2.66699H28.0493C28.4029 2.66699 28.742 2.80747 28.9921 3.05752L40.211 14.2765C40.4611 14.5265 40.6016 14.8657 40.6016 15.2193V44.0003C40.6016 44.7367 40.0046 45.3337 39.2682 45.3337H9.93489C9.19851 45.3337 8.60156 44.7367 8.60156 44.0003V4.00033Z" fill="#947458"/>
<path d="M8.60156 4.00033C8.60156 3.26395 9.19852 2.66699 9.9349 2.66699H28.0493C28.4029 2.66699 28.742 2.80747 28.9921 3.05752L40.211 14.2765C40.4611 14.5265 40.6016 14.8657 40.6016 15.2193V44.0003C40.6016 44.7367 40.0046 45.3337 39.2682 45.3337H9.93489C9.19851 45.3337 8.60156 44.7367 8.60156 44.0003V4.00033Z" fill="url(#paint0_linear_501_92402)" fill-opacity="0.3" style="mix-blend-mode:overlay"/>
<g opacity="0.3" filter="url(#filter0_f_501_92402)">
<path d="M27.4506 14.3421L28.599 4.0498L31.5429 10.0221C31.6605 10.2607 31.8467 10.4586 32.0776 10.5905L39.2159 14.6667L28.9236 15.8151C28.0739 15.9099 27.3558 15.1918 27.4506 14.3421Z" fill="black"/>
</g>
<path d="M28.6016 13.3337V2.66699L40.6016 14.667H29.9349C29.1985 14.667 28.6016 14.07 28.6016 13.3337Z" fill="url(#paint1_linear_501_92402)"/>
<path d="M19.1869 36.1529C18.7958 36.1529 18.4424 36.0552 18.1269 35.8597C17.8113 35.6597 17.6024 35.3597 17.5001 34.9598L18.4734 34.6463C18.5356 34.8641 18.6334 35.0174 18.7668 35.1063C18.9046 35.1907 19.0557 35.2329 19.2201 35.2329C19.4335 35.2329 19.6023 35.1573 19.7268 35.0062C19.8556 34.8551 19.9201 34.6795 19.92 34.4795L19.9197 31.2595L20.9597 31.2594L20.96 34.546C20.9601 35.0483 20.8113 35.4416 20.5135 35.7261C20.2158 36.0106 19.7736 36.1528 19.1869 36.1529ZM21.8254 36.0926L23.5515 31.2591L24.7915 31.259L26.5254 36.0921L25.3587 36.0922L24.1716 32.3257L24.1316 32.3257L22.952 36.0925L21.8254 36.0926ZM22.7786 35.0592L22.9718 34.2125L25.3052 34.2122L25.5053 35.0589L22.7786 35.0592ZM27.5255 36.092L27.525 31.2587L29.5983 31.2584C29.905 31.2584 30.1828 31.3139 30.4317 31.425C30.685 31.5316 30.8873 31.6894 31.0384 31.8983C31.1895 32.1072 31.2651 32.3605 31.2652 32.6583C31.2652 32.9916 31.1808 33.2538 31.0119 33.4449C30.843 33.6361 30.6119 33.7628 30.3186 33.825L30.3186 33.8584C30.4608 33.8806 30.5808 33.9383 30.6786 34.0317C30.7809 34.1205 30.8631 34.2339 30.9253 34.3716C30.992 34.5094 31.0498 34.6738 31.0987 34.8649C31.1076 34.8872 31.1143 34.9116 31.1187 34.9383C31.1276 34.9605 31.1343 34.9849 31.1387 35.0116L31.3989 36.0916L30.3322 36.0917L30.0921 35.1184C30.0343 34.8784 29.9765 34.6984 29.9187 34.5784C29.8609 34.4584 29.7898 34.3762 29.7053 34.3318C29.6209 34.2829 29.5098 34.2584 29.372 34.2585L28.5653 34.2585L28.5655 36.0919L27.5255 36.092ZM29.4652 33.3785C29.6963 33.3784 29.8719 33.3295 29.9919 33.2317C30.1119 33.1339 30.1719 32.9762 30.1718 32.7584C30.1718 32.545 30.1007 32.3917 29.9584 32.2984C29.8207 32.2006 29.6184 32.1518 29.3518 32.1518L28.5651 32.1519L28.5652 33.3785L29.4652 33.3785Z" fill="white"/>
<path opacity="0.95" d="M27.1533 22.7793C27.5514 22.7793 27.7503 22.78 27.9023 22.8574C28.0362 22.9256 28.1457 23.0342 28.2139 23.168C28.2912 23.32 28.291 23.5192 28.291 23.917V24.1514C28.2911 24.5496 28.2914 24.7492 28.2139 24.9014C28.1457 25.035 28.0369 25.1438 27.9033 25.2119C27.7512 25.2894 27.5516 25.289 27.1533 25.2891L21.6064 25.29C21.2087 25.2901 21.0095 25.2902 20.8574 25.2129C20.7236 25.1447 20.6151 25.0352 20.5469 24.9014C20.4694 24.7493 20.4688 24.5504 20.4688 24.1523V23.918C20.4687 23.5202 20.4687 23.321 20.5459 23.1689C20.6141 23.0351 20.7236 22.9256 20.8574 22.8574C21.0095 22.7801 21.2086 22.7803 21.6064 22.7803L27.1533 22.7793ZM27.1533 18.7021C27.5514 18.7021 27.7503 18.7029 27.9023 18.7803C28.0362 18.8484 28.1457 18.957 28.2139 19.0908C28.2912 19.2429 28.291 19.442 28.291 19.8398V20.0742C28.2911 20.4725 28.2914 20.6721 28.2139 20.8242C28.1457 20.9578 28.0369 21.0666 27.9033 21.1348C27.7512 21.2123 27.5516 21.2119 27.1533 21.2119L21.6064 21.2129C21.2087 21.2129 21.0095 21.2131 20.8574 21.1357C20.7236 21.0676 20.6151 20.958 20.5469 20.8242C20.4694 20.6721 20.4688 20.4733 20.4688 20.0752V19.8408C20.4687 19.443 20.4687 19.2438 20.5459 19.0918C20.6141 18.958 20.7236 18.8485 20.8574 18.7803C21.0095 18.703 21.2086 18.7032 21.6064 18.7031L27.1533 18.7021ZM27.1533 14.624C27.5514 14.624 27.7503 14.6247 27.9023 14.7021C28.0362 14.7703 28.1457 14.8789 28.2139 15.0127C28.2912 15.1647 28.291 15.3639 28.291 15.7617V15.9961C28.2911 16.394 28.2911 16.5931 28.2139 16.7451C28.1457 16.8789 28.037 16.9884 27.9033 17.0566C27.7512 17.1342 27.5516 17.1337 27.1533 17.1338L21.6064 17.1348C21.2084 17.1348 21.0095 17.1341 20.8574 17.0566C20.7237 16.9885 20.6151 16.8799 20.5469 16.7461C20.4694 16.594 20.4688 16.3951 20.4688 15.9971V15.7627C20.4687 15.3649 20.4687 15.1657 20.5459 15.0137C20.6141 14.8799 20.7236 14.7703 20.8574 14.7021C21.0095 14.6249 21.2086 14.625 21.6064 14.625L27.1533 14.624Z" fill="url(#paint2_linear_501_92402)"/>
<circle opacity="0.5" cx="15.2682" cy="35.3337" r="0.666667" fill="white"/>
<defs>
<filter id="filter0_f_501_92402" x="24.7747" y="1.38314" width="17.1068" height="17.1068" filterUnits="userSpaceOnUse" color-interpolation-filters="sRGB">
<feFlood flood-opacity="0" result="BackgroundImageFix"/>
<feBlend mode="normal" in="SourceGraphic" in2="BackgroundImageFix" result="shape"/>
<feGaussianBlur stdDeviation="1.33333" result="effect1_foregroundBlur_501_92402"/>
</filter>
<linearGradient id="paint0_linear_501_92402" x1="35.9349" y1="9.00033" x2="20.6016" y2="30.3337" gradientUnits="userSpaceOnUse">
<stop/>
<stop offset="1" stop-opacity="0"/>
</linearGradient>
<linearGradient id="paint1_linear_501_92402" x1="29.2682" y1="14.667" x2="35.6016" y2="9.33366" gradientUnits="userSpaceOnUse">
<stop stop-color="#FDFDFD"/>
<stop offset="1" stop-color="#E4E4E4"/>
</linearGradient>
<linearGradient id="paint2_linear_501_92402" x1="23.7547" y1="24.8362" x2="32.3297" y2="11.8668" gradientUnits="userSpaceOnUse">
<stop stop-color="white"/>
<stop offset="1" stop-color="white" stop-opacity="0.8"/>
</linearGradient>
</defs>
</svg>
