<svg width="49" height="48" viewBox="0 0 49 48" fill="none" xmlns="http://www.w3.org/2000/svg">
<path d="M8.20312 4.00033C8.20312 3.26395 8.80008 2.66699 9.53646 2.66699H27.6508C28.0045 2.66699 28.3436 2.80747 28.5936 3.05752L39.8126 14.2765C40.0626 14.5265 40.2031 14.8657 40.2031 15.2193V44.0003C40.2031 44.7367 39.6062 45.3337 38.8698 45.3337H9.53646C8.80008 45.3337 8.20312 44.7367 8.20312 44.0003V4.00033Z" fill="#BDC3D3"/>
<path d="M8.20312 4.00033C8.20312 3.26395 8.80008 2.66699 9.53646 2.66699H27.6508C28.0045 2.66699 28.3436 2.80747 28.5936 3.05752L39.8126 14.2765C40.0626 14.5265 40.2031 14.8657 40.2031 15.2193V44.0003C40.2031 44.7367 39.6062 45.3337 38.8698 45.3337H9.53646C8.80008 45.3337 8.20312 44.7367 8.20312 44.0003V4.00033Z" fill="url(#paint0_linear_501_91518)" fill-opacity="0.7" style="mix-blend-mode:overlay"/>
<g opacity="0.3" filter="url(#filter0_f_501_91518)">
<path d="M27.0435 14.3626L28.2044 3.33398L39.5378 14.6673L28.5091 15.8282C27.6656 15.917 26.9547 15.2061 27.0435 14.3626Z" fill="black"/>
</g>
<path d="M28.2031 13.3337V2.66699L40.2031 14.667H29.5365C28.8001 14.667 28.2031 14.07 28.2031 13.3337Z" fill="url(#paint1_linear_501_91518)"/>
<path opacity="0.95" d="M24.0879 29.2899C24.7486 29.2899 25.2842 29.8255 25.2842 30.4862C25.2842 31.147 24.7487 31.6825 24.0879 31.6825C23.4272 31.6825 22.8916 31.147 22.8916 30.4862C22.8916 29.8255 23.4272 29.29 24.0879 29.2899ZM24.2783 18.6718C24.9821 18.7068 25.6634 18.9321 26.249 19.3241C26.8347 19.7163 27.303 20.2608 27.6035 20.8983C27.9039 21.5358 28.0253 22.243 27.9551 22.9442C27.8848 23.6455 27.6251 24.3145 27.2041 24.8798C26.7888 25.4373 26.2315 25.8724 25.5908 26.1415C25.4158 26.22 25.2676 26.3495 25.165 26.5116C25.0626 26.6737 25.0107 26.8629 25.0146 27.0546V27.4882C25.0146 28.002 24.5978 28.4188 24.084 28.4189C23.5701 28.4189 23.1534 28.0021 23.1533 27.4882V27.0732C23.1457 26.5228 23.2983 25.9819 23.5928 25.5165C23.8909 25.0455 24.3214 24.6723 24.8301 24.4442L24.8438 24.4384L24.8564 24.4325C25.1964 24.2927 25.4923 24.0632 25.7119 23.7685C25.9315 23.4737 26.0669 23.1244 26.1035 22.7587C26.1401 22.393 26.0766 22.0238 25.9199 21.6913C25.7632 21.359 25.5191 21.0754 25.2139 20.871C24.9084 20.6665 24.5527 20.5484 24.1855 20.5302C23.8184 20.512 23.4531 20.5943 23.1289 20.7675C22.8048 20.9407 22.5336 21.1993 22.3447 21.5146C22.1795 21.7905 22.083 22.1012 22.0615 22.4208L22.0566 22.5575L22.0518 22.6532C22.0042 23.1222 21.6084 23.4887 21.127 23.4892C20.6452 23.4895 20.2482 23.1233 20.2002 22.6542L20.1953 22.5585L20.2041 22.2958C20.2453 21.6828 20.431 21.0867 20.748 20.5575C21.1103 19.9529 21.6303 19.4581 22.252 19.1259C22.8736 18.7937 23.5743 18.6368 24.2783 18.6718Z" fill="url(#paint2_linear_501_91518)"/>
<defs>
<filter id="filter0_f_501_91518" x="24.3685" y="0.667318" width="17.8372" height="17.8353" filterUnits="userSpaceOnUse" color-interpolation-filters="sRGB">
<feFlood flood-opacity="0" result="BackgroundImageFix"/>
<feBlend mode="normal" in="SourceGraphic" in2="BackgroundImageFix" result="shape"/>
<feGaussianBlur stdDeviation="1.33333" result="effect1_foregroundBlur_501_91518"/>
</filter>
<linearGradient id="paint0_linear_501_91518" x1="35.5365" y1="9.00032" x2="8.20312" y2="45.3337" gradientUnits="userSpaceOnUse">
<stop stop-opacity="0.6"/>
<stop offset="1" stop-opacity="0"/>
</linearGradient>
<linearGradient id="paint1_linear_501_91518" x1="28.8698" y1="14.667" x2="35.2031" y2="9.33366" gradientUnits="userSpaceOnUse">
<stop stop-color="#FDFDFD"/>
<stop offset="1" stop-color="#E4E4E4"/>
</linearGradient>
<linearGradient id="paint2_linear_501_91518" x1="23.4632" y1="31.1287" x2="34.5912" y2="17.4121" gradientUnits="userSpaceOnUse">
<stop stop-color="white"/>
<stop offset="1" stop-color="white" stop-opacity="0.5"/>
</linearGradient>
</defs>
</svg>
