<svg width="49" height="48" viewBox="0 0 49 48" fill="none" xmlns="http://www.w3.org/2000/svg">
<path d="M8.39844 4.00033C8.39844 3.26395 8.99539 2.66699 9.73177 2.66699H27.8462C28.1998 2.66699 28.5389 2.80747 28.789 3.05752L40.0079 14.2765C40.258 14.5265 40.3984 14.8657 40.3984 15.2193V44.0003C40.3984 44.7367 39.8015 45.3337 39.0651 45.3337H9.73177C8.99539 45.3337 8.39844 44.7367 8.39844 44.0003V4.00033Z" fill="#6153E5"/>
<path d="M8.39844 4.00033C8.39844 3.26395 8.99539 2.66699 9.73177 2.66699H27.8462C28.1998 2.66699 28.5389 2.80747 28.789 3.05752L40.0079 14.2765C40.258 14.5265 40.3984 14.8657 40.3984 15.2193V44.0003C40.3984 44.7367 39.8015 45.3337 39.0651 45.3337H9.73177C8.99539 45.3337 8.39844 44.7367 8.39844 44.0003V4.00033Z" fill="url(#paint0_linear_501_91636)" fill-opacity="0.3" style="mix-blend-mode:overlay"/>
<g opacity="0.3" filter="url(#filter0_f_501_91636)">
<path d="M27.2388 14.3626L28.3997 3.33398L39.7331 14.6673L28.7044 15.8282C27.8609 15.917 27.15 15.2061 27.2388 14.3626Z" fill="black"/>
</g>
<path d="M28.3984 13.3337V2.66699L40.3984 14.667H29.7318C28.9954 14.667 28.3984 14.07 28.3984 13.3337Z" fill="url(#paint1_linear_501_91636)"/>
<path d="M20.4053 23.3382C20.4727 23.3601 20.5316 23.4186 20.6485 23.5355L27.8086 30.6957C27.9255 30.8125 27.984 30.8714 28.0059 30.9388C28.0252 30.9981 28.0252 31.0622 28.0059 31.1214C27.984 31.1887 27.9253 31.2469 27.8086 31.3636L26.4766 32.6957C26.0679 33.1044 25.8636 33.3095 25.628 33.3861C25.4208 33.4534 25.1975 33.4533 24.9903 33.3861C24.7546 33.3095 24.5495 33.1045 24.1407 32.6957L22.4913 31.0462C22.4204 30.9754 22.3844 30.9397 22.3438 30.9271C22.3081 30.9162 22.2695 30.9173 22.2344 30.93C22.1945 30.9446 22.1603 30.9817 22.0928 31.056L19.6426 33.7552C19.5701 33.8351 19.5335 33.8753 19.501 33.9066C18.9994 34.3894 18.2118 34.4085 17.6876 33.9505C17.6535 33.9208 17.6146 33.8825 17.5381 33.806C17.4618 33.7296 17.4233 33.6916 17.3936 33.6576C16.9357 33.1333 16.955 32.3458 17.4376 31.8441C17.4688 31.8116 17.509 31.775 17.5889 31.7025L20.2881 29.2513C20.3625 29.1838 20.3995 29.1497 20.4141 29.1097C20.4269 29.0746 20.428 29.0361 20.417 29.0003C20.4045 28.9597 20.3689 28.9239 20.2979 28.8529L18.6485 27.2035C18.2397 26.7946 18.0356 26.5896 17.959 26.3539C17.8918 26.1466 17.8917 25.9234 17.959 25.7162C18.0357 25.4806 18.2399 25.2762 18.6485 24.8675L19.9805 23.5355C20.0971 23.4189 20.1555 23.3603 20.2227 23.3382C20.2819 23.319 20.3461 23.319 20.4053 23.3382ZM24.0157 19.806C24.9769 19.3551 25.8501 19.7771 26.6543 20.346C27.5175 20.9543 28.2829 21.6806 29.0284 22.4261C29.764 23.1814 30.4993 23.9369 31.1075 24.8001C31.6764 25.6046 32.0889 26.4676 31.6475 27.4388C31.4609 27.8494 31.1453 28.1568 30.8321 28.4701L29.3809 29.9212C29.2643 30.0379 29.206 30.0966 29.1387 30.1185C29.0795 30.1378 29.0153 30.1377 28.9561 30.1185C28.8887 30.0966 28.8298 30.0381 28.7129 29.9212L21.5528 22.7601C21.4362 22.6435 21.3775 22.5852 21.3555 22.5179C21.3363 22.4587 21.3363 22.3945 21.3555 22.3353C21.3774 22.2679 21.4359 22.209 21.5528 22.0921L23.004 20.6419C23.316 20.3299 23.6108 19.9997 24.0157 19.806Z" fill="url(#paint2_linear_501_91636)"/>
<defs>
<filter id="filter0_f_501_91636" x="24.5638" y="0.667317" width="17.8372" height="17.8353" filterUnits="userSpaceOnUse" color-interpolation-filters="sRGB">
<feFlood flood-opacity="0" result="BackgroundImageFix"/>
<feBlend mode="normal" in="SourceGraphic" in2="BackgroundImageFix" result="shape"/>
<feGaussianBlur stdDeviation="1.33333" result="effect1_foregroundBlur_501_91636"/>
</filter>
<linearGradient id="paint0_linear_501_91636" x1="35.7318" y1="9.00033" x2="20.3984" y2="30.3337" gradientUnits="userSpaceOnUse">
<stop/>
<stop offset="1" stop-opacity="0"/>
</linearGradient>
<linearGradient id="paint1_linear_501_91636" x1="29.0651" y1="14.667" x2="35.3984" y2="9.33366" gradientUnits="userSpaceOnUse">
<stop stop-color="#FDFDFD"/>
<stop offset="1" stop-color="#E4E4E4"/>
</linearGradient>
<linearGradient id="paint2_linear_501_91636" x1="23.2672" y1="33.0502" x2="32.5844" y2="12.8225" gradientUnits="userSpaceOnUse">
<stop stop-color="white"/>
<stop offset="1" stop-color="white" stop-opacity="0.8"/>
</linearGradient>
</defs>
</svg>
